{"glyphs":{"0":{"ha":772,"x_min":65,"x_max":734,"o":"m 325 -14 q 131 75 197 -11 q 67 315 65 161 q 74 416 68 366 l 100 592 q 229 902 134 800 q 474 1001 323 1004 q 668 914 602 998 q 732 675 734 830 q 725 575 731 625 l 699 404 q 570 87 664 191 q 325 -14 476 -17 m 568 602 q 577 711 577 679 q 465 869 574 865 q 332 809 382 873 q 262 606 282 745 l 231 391 q 223 281 222 321 q 334 117 223 122 q 532 357 488 109 l 568 602 z "},"1":{"ha":772,"x_min":162,"x_max":602,"o":"m 435 0 l 275 0 l 412 789 l 162 707 l 187 852 l 578 991 l 602 991 l 435 0 z "},"2":{"ha":772,"x_min":7,"x_max":737,"o":"m 652 0 l 7 0 l 26 120 l 437 514 q 563 717 551 626 q 541 824 572 781 q 450 870 511 867 q 323 823 374 873 q 260 687 271 773 l 100 686 q 156 850 107 777 q 284 963 204 922 q 458 1001 365 1003 q 662 926 587 998 q 728 734 737 854 q 562 441 717 595 l 520 400 l 235 132 l 673 132 l 652 0 z "},"3":{"ha":772,"x_min":26,"x_max":733,"o":"m 282 569 l 370 568 q 502 611 449 568 q 562 725 555 654 q 538 830 570 792 q 443 870 506 869 q 332 833 379 871 q 276 731 286 794 l 115 730 q 168 872 121 810 q 288 968 214 935 q 448 1001 362 1002 q 657 924 581 998 q 724 725 733 850 q 674 601 720 657 q 543 503 629 544 q 667 315 660 449 l 667 282 q 558 66 659 149 q 313 -14 458 -16 q 163 22 230 -13 q 61 120 97 57 q 28 265 26 184 l 189 264 q 221 160 186 199 q 323 118 256 120 q 449 161 397 115 q 509 282 500 208 q 478 397 517 357 q 366 438 439 436 l 262 439 l 282 569 z "},"4":{"ha":772,"x_min":6,"x_max":723,"o":"m 604 352 l 723 352 l 700 220 l 581 220 l 543 0 l 382 0 l 420 220 l 6 220 l 20 328 l 543 987 l 714 987 l 604 352 m 198 352 l 443 352 l 519 766 l 503 743 l 198 352 z "},"5":{"ha":772,"x_min":61,"x_max":772,"o":"m 126 492 l 256 987 l 772 987 l 750 845 l 370 845 l 300 608 q 450 648 369 648 q 643 555 576 646 q 699 320 711 465 q 587 77 686 172 q 342 -14 488 -17 q 142 65 219 -12 q 61 267 65 142 l 215 267 q 254 159 220 198 q 350 119 288 120 q 476 174 425 117 q 538 326 528 231 q 510 461 546 410 q 403 515 474 513 q 325 501 359 516 q 258 458 291 486 l 126 492 z "},"6":{"ha":772,"x_min":67,"x_max":707,"o":"m 659 993 l 646 856 l 637 857 q 411 786 507 858 q 261 570 315 715 q 465 654 351 656 q 600 609 545 652 q 682 491 656 566 q 699 328 707 416 q 643 152 691 232 q 517 27 595 71 q 347 -14 439 -16 q 157 69 230 -12 q 73 281 83 150 q 89 475 67 354 q 277 855 133 718 q 644 993 421 993 l 659 993 m 418 522 q 317 493 364 523 q 237 407 269 463 q 230 309 229 338 q 262 172 230 222 q 353 119 294 121 q 478 174 427 117 q 539 323 529 231 q 515 465 548 410 q 418 522 483 519 z "},"7":{"ha":772,"x_min":91,"x_max":800,"o":"m 785 888 l 267 0 l 91 0 l 607 855 l 115 855 l 136 987 l 800 987 l 785 888 z "},"8":{"ha":772,"x_min":40,"x_max":741,"o":"m 735 732 q 562 505 723 585 q 651 406 622 466 q 675 275 681 347 q 569 64 667 144 q 327 -14 471 -16 q 118 65 195 -11 q 49 263 40 140 q 246 513 61 428 q 171 604 195 549 q 151 721 146 659 q 251 926 160 848 q 477 1001 342 1004 q 619 965 557 999 q 711 870 680 931 q 735 732 741 809 m 517 283 q 490 396 524 351 q 393 441 456 440 q 270 394 321 443 q 211 272 219 346 q 238 160 203 202 q 336 117 273 119 q 459 163 409 116 q 517 283 509 210 m 574 727 q 551 828 580 788 q 466 869 522 868 q 360 827 404 871 q 309 715 317 784 q 332 612 303 651 q 416 572 361 574 q 523 615 479 571 q 574 727 566 659 z "},"9":{"ha":772,"x_min":96,"x_max":726,"o":"m 168 132 q 401 201 311 130 q 536 414 492 272 q 341 326 444 324 q 208 367 264 327 q 124 484 152 408 q 104 652 96 559 q 162 832 113 750 q 288 959 210 914 q 456 1001 365 1004 q 594 961 536 999 q 686 851 653 922 q 723 693 718 781 q 707 512 726 621 q 522 128 664 261 q 159 -5 379 -5 l 144 -5 l 157 132 l 168 132 m 381 454 q 476 481 431 452 q 553 561 521 510 l 562 627 l 565 674 q 537 814 567 762 q 448 869 507 866 q 309 787 363 871 q 264 589 254 703 q 300 492 269 529 q 381 454 330 456 z "},"\u0000":{"ha":0,"x_min":0,"x_max":0,"o":""},"\u0002":{"ha":0,"x_min":0,"x_max":0,"o":""},"\r":{"ha":342,"x_min":0,"x_max":0,"o":""}," ":{"ha":342,"x_min":0,"x_max":0,"o":""},"!":{"ha":368,"x_min":37,"x_max":369,"o":"m 232 291 l 94 291 l 199 987 l 369 987 l 232 291 m 37 75 q 63 141 37 115 q 127 168 88 167 q 193 144 166 170 q 219 81 219 119 q 194 17 219 42 q 129 -10 168 -9 q 64 13 92 -12 q 37 75 37 37 z "},"\"":{"ha":444,"x_min":109,"x_max":479,"o":"m 265 941 l 203 686 l 109 686 l 165 1042 l 281 1042 l 265 941 m 463 941 l 401 686 l 307 686 l 363 1042 l 479 1042 l 463 941 z "},"#":{"ha":829,"x_min":40,"x_max":850,"o":"m 449 278 l 306 278 l 208 0 l 92 0 l 191 278 l 40 278 l 59 385 l 229 385 l 304 597 l 146 597 l 165 705 l 342 705 l 443 987 l 557 987 l 456 705 l 600 705 l 701 987 l 815 987 l 715 705 l 850 705 l 831 597 l 676 597 l 602 385 l 745 385 l 726 278 l 563 278 l 465 0 l 350 0 l 449 278 m 344 385 l 487 385 l 562 597 l 419 597 l 344 385 z "},"$":{"ha":772,"x_min":45,"x_max":749,"o":"m 519 262 q 498 352 526 314 q 391 424 471 391 q 262 494 311 457 q 157 722 147 582 q 241 911 164 838 q 441 999 319 985 l 468 1147 l 574 1147 l 547 996 q 698 893 647 975 q 743 682 749 811 l 583 682 q 560 815 589 768 q 472 865 531 863 q 367 829 410 867 q 316 724 325 791 q 337 636 310 673 q 443 565 364 600 q 564 500 522 530 q 679 264 689 412 q 591 74 671 146 q 383 -11 511 2 l 359 -143 l 253 -143 l 278 -10 q 104 90 164 7 q 51 301 45 172 l 212 300 q 241 169 207 214 q 342 121 276 123 q 463 159 414 120 q 519 262 512 198 z "},"%":{"ha":996,"x_min":123,"x_max":910,"o":"m 357 1002 q 496 942 446 1000 q 540 798 545 884 l 536 745 q 463 596 526 652 q 312 543 400 540 q 175 602 227 544 q 128 745 123 659 l 133 795 q 204 946 142 888 q 357 1002 266 1004 m 241 744 q 256 671 237 701 q 314 640 275 642 q 385 668 355 639 q 422 745 414 698 l 428 798 q 414 872 433 842 q 355 903 395 902 q 283 873 313 905 q 247 791 252 842 l 241 744 m 722 446 q 860 385 810 443 q 905 242 910 328 l 901 189 q 828 40 891 98 q 677 -14 765 -17 q 541 43 593 -13 q 492 189 488 100 l 496 233 q 566 388 503 330 q 722 446 629 447 m 606 188 q 622 113 602 141 q 679 83 642 85 q 749 110 720 82 q 786 189 778 138 l 793 243 q 777 319 796 292 q 720 347 757 346 q 646 317 676 349 q 611 237 616 286 l 606 188 m 254 75 l 172 129 l 768 893 l 850 840 l 254 75 z "},"&":{"ha":868,"x_min":31,"x_max":804,"o":"m 38 261 q 180 479 46 385 l 258 530 q 203 654 216 606 q 192 745 189 702 q 277 932 200 860 q 471 1001 355 1004 q 585 971 534 999 q 663 894 636 943 q 687 786 690 845 q 648 672 684 725 q 532 563 612 618 l 450 509 l 595 289 q 666 471 652 373 l 804 471 q 679 170 787 287 l 788 0 l 613 0 l 572 64 q 317 -13 452 -16 q 111 64 191 -12 q 38 261 31 139 m 328 119 q 415 136 374 118 q 494 177 456 153 l 329 427 l 306 412 q 201 267 213 347 q 229 161 193 201 q 328 119 264 120 m 340 749 q 366 640 333 703 l 381 612 l 448 654 q 544 781 536 709 q 524 845 548 820 q 462 869 499 869 q 379 834 413 869 q 340 749 345 798 z "},"'":{"ha":235,"x_min":98,"x_max":275,"o":"m 261 949 l 204 692 l 98 692 l 153 1042 l 275 1042 l 261 949 z "},"(":{"ha":477,"x_min":71,"x_max":543,"o":"m 87 399 q 236 839 123 646 q 518 1107 350 1032 l 543 1009 q 241 448 311 830 q 216 178 216 308 q 248 -62 214 41 q 349 -224 282 -165 l 311 -314 q 133 -90 195 -242 q 76 264 71 62 q 85 387 77 329 l 87 399 z "},")":{"ha":481,"x_min":-73,"x_max":401,"o":"m -48 -315 l -73 -222 q 152 80 71 -110 q 251 529 233 269 l 254 613 q 121 1015 254 899 l 159 1106 q 293 973 237 1059 q 375 769 348 887 q 399 528 401 651 q 332 162 393 339 q 173 -138 271 -16 q -48 -315 75 -260 z "},"*":{"ha":602,"x_min":70,"x_max":633,"o":"m 260 663 l 70 722 l 123 831 l 313 751 l 343 987 l 463 987 l 412 754 l 616 830 l 633 708 l 416 648 l 519 465 l 418 398 l 334 594 l 184 407 l 94 481 l 260 663 z "},"+":{"ha":758,"x_min":41,"x_max":726,"o":"m 475 543 l 726 543 l 699 393 l 450 393 l 399 99 l 242 99 l 294 393 l 41 393 l 68 543 l 319 543 l 367 818 l 524 818 l 475 543 z "},",":{"ha":303,"x_min":-81,"x_max":187,"o":"m 5 -222 l -81 -168 q 18 20 -1 -61 l 43 159 l 187 159 l 170 50 q 5 -222 142 -117 z "},"-":{"ha":449,"x_min":37,"x_max":407,"o":"m 383 353 l 37 353 l 60 486 l 407 486 l 383 353 z "},".":{"ha":383,"x_min":33,"x_max":219,"o":"m 33 79 q 59 147 33 121 q 125 174 85 173 q 192 150 165 176 q 219 85 219 125 q 193 19 219 45 q 126 -8 168 -7 q 59 16 86 -9 q 33 79 33 41 z "},"/":{"ha":540,"x_min":-87,"x_max":609,"o":"m 45 -85 l -87 -85 l 475 987 l 609 987 l 45 -85 z "},":":{"ha":364,"x_min":29,"x_max":315,"o":"m 29 79 q 55 147 29 121 q 122 174 81 173 q 189 150 162 176 q 216 85 216 125 q 190 19 216 45 q 123 -8 164 -7 q 56 16 83 -9 q 29 79 29 41 m 128 655 q 154 723 128 696 q 221 750 180 749 q 288 726 261 751 q 315 661 315 701 q 289 595 315 621 q 222 568 263 569 q 155 591 182 566 q 128 655 128 616 z "},";":{"ha":327,"x_min":-69,"x_max":301,"o":"m 115 655 q 141 723 115 696 q 208 750 167 749 q 274 726 248 751 q 301 661 301 701 q 275 595 301 621 q 208 568 250 569 q 141 591 168 566 q 115 655 115 616 m 17 -222 l -69 -168 q 29 20 11 -61 l 54 159 l 199 159 l 181 50 q 17 -222 154 -117 z "},"<":{"ha":692,"x_min":34,"x_max":653,"o":"m 208 425 l 570 273 l 542 115 l 34 368 l 57 499 l 653 751 l 623 579 l 208 425 z "},"=":{"ha":761,"x_min":66,"x_max":708,"o":"m 684 529 l 116 529 l 140 666 l 708 666 l 684 529 m 634 241 l 66 241 l 90 378 l 659 378 l 634 241 z "},">":{"ha":708,"x_min":32,"x_max":668,"o":"m 496 435 l 115 589 l 142 744 l 668 491 l 645 360 l 32 108 l 62 277 l 496 435 z "},"?":{"ha":662,"x_min":101,"x_max":672,"o":"m 216 290 q 256 434 224 374 q 356 552 288 494 q 446 635 425 610 q 498 788 510 708 q 468 844 492 823 q 405 865 444 865 q 311 833 349 867 q 261 742 273 800 l 101 741 q 199 933 113 862 q 415 1002 286 1004 q 604 929 535 999 q 663 744 672 859 q 524 513 652 624 l 441 444 q 364 290 378 386 l 216 290 m 162 77 q 188 142 162 117 q 252 170 213 168 q 317 146 290 171 q 343 82 343 121 q 316 16 343 41 q 253 -9 290 -9 q 189 14 215 -10 q 162 77 162 38 z "},"@":{"ha":1212,"x_min":34,"x_max":1153,"o":"m 807 -14 q 715 12 755 -13 q 661 90 675 37 q 478 -14 572 -16 q 359 49 401 -12 q 324 219 318 111 q 383 442 329 328 q 513 614 437 555 q 680 672 590 673 q 782 651 737 671 q 873 600 827 632 l 782 215 l 777 174 q 785 107 772 132 q 831 81 799 82 q 938 127 891 78 q 1013 269 984 176 q 1047 479 1042 362 q 1030 642 1050 570 q 969 763 1010 715 q 720 865 884 862 q 507 818 607 867 q 328 670 408 768 q 203 446 248 572 q 153 191 158 319 q 183 -18 148 73 q 293 -156 219 -109 q 475 -203 368 -203 q 705 -154 588 -205 l 724 -249 q 475 -307 630 -307 q 244 -251 342 -307 q 92 -90 145 -195 q 37 159 39 16 q 87 461 34 309 q 239 730 141 613 q 461 908 336 848 q 722 966 585 968 q 947 909 852 964 q 1095 748 1043 854 q 1150 507 1147 643 q 1109 240 1153 364 q 987 50 1065 116 q 807 -14 909 -17 m 455 208 q 524 96 452 98 q 602 131 562 94 q 662 218 642 167 l 749 555 q 691 568 719 567 q 543 487 603 572 q 458 246 483 401 l 455 208 z "},"A":{"ha":903,"x_min":-62,"x_max":812,"o":"m 606 230 l 236 230 l 118 0 l -62 0 l 471 987 l 621 987 l 812 0 l 644 0 l 606 230 m 307 368 l 583 368 l 516 777 l 307 368 z "},"B":{"ha":857,"x_min":26,"x_max":822,"o":"m 26 0 l 198 987 l 501 987 q 742 917 661 986 q 812 726 822 848 q 637 510 800 583 q 731 431 698 488 q 760 293 764 373 q 651 79 750 157 q 389 0 551 0 l 26 0 m 271 446 l 218 137 l 393 136 q 528 178 473 136 q 594 294 584 220 q 573 403 604 363 q 472 445 543 442 l 271 446 m 293 572 l 447 571 q 582 610 530 571 q 644 717 634 650 q 515 848 661 844 l 341 849 l 293 572 z "},"C":{"ha":886,"x_min":68,"x_max":877,"o":"m 810 322 q 671 76 785 168 q 393 -14 557 -16 q 228 31 299 -12 q 117 156 157 74 q 73 340 77 237 q 92 551 68 418 q 180 790 115 684 q 341 949 245 896 q 553 1001 436 1003 q 786 908 700 998 q 877 661 871 819 l 711 661 q 666 813 707 766 q 545 863 625 861 q 359 783 434 866 q 259 543 285 701 l 245 452 l 239 383 q 249 252 234 313 q 303 158 264 191 q 401 124 342 126 q 644 321 591 117 l 810 322 z "},"D":{"ha":887,"x_min":26,"x_max":846,"o":"m 26 0 l 197 987 l 465 987 q 677 925 588 987 q 806 756 766 864 q 831 517 846 648 l 823 464 q 733 222 803 328 q 554 58 664 117 q 313 0 444 0 l 26 0 m 341 849 l 218 137 l 317 136 q 539 221 451 136 q 653 456 628 307 q 666 636 671 559 q 609 790 660 734 q 467 848 557 846 l 341 849 z "},"E":{"ha":768,"x_min":26,"x_max":821,"o":"m 664 441 l 271 441 l 218 137 l 677 137 l 654 0 l 26 0 l 197 987 l 821 987 l 796 849 l 341 849 l 294 576 l 688 576 l 664 441 z "},"F":{"ha":747,"x_min":26,"x_max":808,"o":"m 652 418 l 267 418 l 194 0 l 26 0 l 197 987 l 808 987 l 783 849 l 341 849 l 290 555 l 676 555 l 652 418 z "},"G":{"ha":924,"x_min":73,"x_max":883,"o":"m 792 128 q 639 21 738 58 q 418 -14 540 -15 q 245 30 320 -13 q 127 156 171 73 q 77 343 83 238 q 94 551 73 425 q 172 775 116 677 q 308 928 228 873 q 556 1001 416 1004 q 788 916 705 998 q 883 684 872 833 l 721 684 q 552 863 706 859 q 362 782 437 867 q 261 538 288 698 q 244 387 245 446 q 289 195 240 265 q 430 124 337 125 q 625 183 549 121 l 662 376 l 464 376 l 487 507 l 850 507 l 792 128 z "},"H":{"ha":964,"x_min":26,"x_max":960,"o":"m 788 0 l 621 0 l 697 439 l 270 439 l 194 0 l 26 0 l 198 987 l 366 987 l 294 576 l 721 576 l 792 987 l 960 987 l 788 0 z "},"I":{"ha":387,"x_min":36,"x_max":374,"o":"m 203 0 l 36 0 l 208 987 l 374 987 l 203 0 z "},"J":{"ha":755,"x_min":2,"x_max":760,"o":"m 593 987 l 760 987 l 642 295 q 525 67 621 151 q 286 -14 428 -17 q 75 68 148 -12 q 9 282 2 147 l 176 281 q 296 123 166 126 q 413 166 364 121 q 475 294 461 212 l 593 987 z "},"K":{"ha":856,"x_min":26,"x_max":945,"o":"m 382 425 l 246 301 l 194 0 l 26 0 l 198 987 l 366 987 l 286 534 l 390 642 l 730 987 l 945 987 l 505 542 l 783 0 l 595 0 l 382 425 z "},"L":{"ha":736,"x_min":26,"x_max":653,"o":"m 218 137 l 653 137 l 629 0 l 26 0 l 198 987 l 366 987 l 218 137 z "},"M":{"ha":1186,"x_min":26,"x_max":1181,"o":"m 411 987 l 555 232 l 962 987 l 1181 987 l 1010 0 l 844 0 l 901 334 l 989 746 l 582 0 l 461 0 l 310 768 l 248 317 l 193 0 l 26 0 l 198 987 l 411 987 z "},"N":{"ha":963,"x_min":26,"x_max":959,"o":"m 787 0 l 625 0 l 317 707 l 194 0 l 26 0 l 198 987 l 360 987 l 669 277 l 792 987 l 959 987 l 787 0 z "},"O":{"ha":937,"x_min":73,"x_max":890,"o":"m 406 -14 q 237 33 310 -12 q 123 160 164 77 q 77 351 83 244 q 93 549 73 435 q 164 755 113 662 q 286 907 215 848 q 557 1001 404 1004 q 791 900 704 998 q 886 634 878 802 q 871 441 890 550 q 805 241 852 332 q 688 89 758 150 q 406 -14 567 -17 m 715 520 l 721 592 q 708 729 725 666 q 651 824 691 791 q 549 859 610 857 q 397 811 463 862 q 290 656 331 760 q 242 396 249 553 q 280 201 235 272 q 414 127 325 130 q 608 215 532 123 q 708 473 684 307 l 715 520 z "},"P":{"ha":868,"x_min":26,"x_max":871,"o":"m 258 367 l 194 0 l 26 0 l 198 987 l 540 987 q 783 902 694 987 q 859 679 871 818 q 742 451 847 535 q 467 366 637 366 l 258 367 m 281 505 l 473 503 q 622 549 564 503 q 692 678 680 595 q 664 799 701 753 q 550 848 626 845 l 341 849 l 281 505 z "},"Q":{"ha":937,"x_min":68,"x_max":886,"o":"m 637 58 l 778 -77 l 660 -171 l 486 -5 q 400 -13 432 -14 q 168 87 256 -12 q 72 353 80 186 q 88 550 68 438 q 161 758 108 661 q 292 916 214 855 q 553 1001 406 1004 q 723 955 650 999 q 837 826 795 911 q 883 635 878 741 q 879 518 886 576 l 871 459 q 637 58 829 186 m 711 521 l 718 593 q 704 730 722 667 q 646 825 687 792 q 544 859 606 857 q 329 741 411 863 q 238 396 248 618 q 252 258 234 321 q 310 162 269 195 q 410 127 350 129 q 599 209 522 122 q 703 460 675 296 l 711 521 z "},"R":{"ha":848,"x_min":26,"x_max":841,"o":"m 449 380 l 260 380 l 194 0 l 26 0 l 198 987 l 509 987 q 755 909 670 987 q 829 694 841 832 q 766 529 822 599 q 608 418 709 458 l 753 10 l 753 0 l 575 0 l 449 380 m 283 518 l 446 517 q 592 563 533 517 q 661 687 650 608 q 633 805 671 764 q 520 848 596 846 l 341 849 l 283 518 z "},"S":{"ha":820,"x_min":24,"x_max":821,"o":"m 572 259 q 466 404 587 357 l 411 425 q 193 551 258 478 q 135 722 129 625 q 192 870 140 806 q 329 968 244 934 q 509 1001 414 1003 q 673 961 602 999 q 783 854 745 922 q 819 699 821 786 l 652 699 q 617 819 656 777 q 500 864 578 862 q 366 827 420 865 q 302 722 311 788 q 417 587 288 636 l 468 568 q 685 438 623 513 q 739 260 747 363 q 684 115 732 177 q 551 19 636 53 q 363 -14 466 -15 q 188 27 267 -13 q 66 138 109 67 q 28 299 24 209 l 195 298 q 237 169 190 214 q 371 122 283 123 q 507 157 452 121 q 572 259 562 193 z "},"T":{"ha":825,"x_min":106,"x_max":891,"o":"m 867 849 l 568 849 l 421 0 l 254 0 l 402 849 l 106 849 l 130 987 l 891 987 l 867 849 z "},"U":{"ha":885,"x_min":62,"x_max":900,"o":"m 900 987 l 788 328 q 653 76 765 170 q 381 -15 541 -18 q 148 75 233 -12 q 69 301 62 161 l 71 327 l 183 987 l 350 987 l 238 326 q 266 179 226 232 q 389 123 306 126 q 542 173 481 121 q 620 323 603 225 l 733 987 l 900 987 z "},"V":{"ha":878,"x_min":105,"x_max":956,"o":"m 402 216 l 766 987 l 956 987 l 456 0 l 294 0 l 105 987 l 283 987 l 402 216 z "},"W":{"ha":1192,"x_min":124,"x_max":1255,"o":"m 821 245 l 1084 987 l 1255 987 l 879 0 l 719 0 l 650 719 l 352 0 l 191 0 l 124 987 l 286 987 l 319 249 l 616 987 l 757 987 l 821 245 z "},"X":{"ha":859,"x_min":-41,"x_max":916,"o":"m 458 631 l 714 987 l 916 987 l 544 490 l 760 0 l 574 0 l 425 361 l 161 0 l -41 0 l 339 505 l 128 987 l 313 987 l 458 631 z "},"Y":{"ha":828,"x_min":109,"x_max":920,"o":"m 425 521 l 726 987 l 920 987 l 485 355 l 423 0 l 255 0 l 320 372 l 109 987 l 286 987 l 425 521 z "},"Z":{"ha":818,"x_min":-18,"x_max":851,"o":"m 213 137 l 720 137 l 696 0 l -18 0 l 3 119 l 619 849 l 132 849 l 157 987 l 851 987 l 831 871 l 213 137 z "},"[":{"ha":376,"x_min":-12,"x_max":470,"o":"m 450 1009 l 342 1009 l 170 -92 l 278 -92 l 258 -220 l -12 -220 l 201 1138 l 470 1138 l 450 1009 z "},"\\":{"ha":570,"x_min":117,"x_max":483,"o":"m 117 987 l 269 987 l 483 -85 l 331 -85 l 117 987 z "},"]":{"ha":376,"x_min":-91,"x_max":393,"o":"m 122 1138 l 393 1138 l 180 -220 l -91 -220 l -71 -92 l 39 -92 l 212 1009 l 101 1009 l 122 1138 z "},"^":{"ha":583,"x_min":46,"x_max":552,"o":"m 361 806 l 189 494 l 46 494 l 328 987 l 441 987 l 552 494 l 424 494 l 361 806 z "},"_":{"ha":614,"x_min":-92,"x_max":536,"o":"m 513 -130 l -92 -130 l -68 0 l 536 0 l 513 -130 z "},"`":{"ha":441,"x_min":137,"x_max":406,"o":"m 406 836 l 283 836 l 137 1042 l 309 1042 l 406 836 z "},"a":{"ha":736,"x_min":23,"x_max":670,"o":"m 447 0 q 440 68 439 27 q 244 -14 349 -16 q 86 48 149 -12 q 27 200 23 108 q 127 382 33 316 q 382 449 222 449 l 487 448 l 496 498 q 496 547 500 524 q 399 623 483 621 q 309 596 348 624 q 261 523 270 569 l 100 522 q 149 641 105 589 q 264 720 192 692 q 416 747 336 749 q 603 675 536 745 q 659 495 670 606 l 602 151 l 597 90 q 607 12 595 50 l 606 0 l 447 0 m 281 118 q 376 141 332 117 q 450 205 419 166 l 475 345 l 398 345 q 253 311 307 345 q 191 217 199 277 q 211 145 186 172 q 281 118 237 119 z "},"b":{"ha":765,"x_min":11,"x_max":705,"o":"m 699 363 q 639 161 686 252 q 524 27 593 71 q 369 -14 455 -16 q 184 80 246 -12 l 158 0 l 11 0 l 191 1042 l 353 1042 l 279 663 q 474 747 361 750 q 641 669 581 745 q 704 463 701 594 q 699 363 705 422 m 545 454 q 514 570 545 528 q 426 613 484 612 q 262 519 329 616 l 209 216 q 337 120 239 123 q 471 182 418 118 q 538 364 524 247 q 545 454 544 422 z "},"c":{"ha":712,"x_min":38,"x_max":682,"o":"m 331 117 q 433 151 389 116 q 490 242 477 186 l 642 243 q 589 111 634 170 q 473 18 544 51 q 326 -14 403 -16 q 165 35 232 -12 q 68 166 99 83 q 48 353 38 250 l 50 377 q 112 570 62 484 q 243 703 163 656 q 420 747 323 750 q 611 668 540 745 q 682 470 682 592 l 532 470 q 501 573 532 533 q 412 616 470 613 q 263 536 317 618 q 205 302 209 453 q 331 117 200 120 z "},"d":{"ha":767,"x_min":40,"x_max":787,"o":"m 46 368 q 107 571 60 481 q 224 706 155 661 q 380 748 294 750 q 555 665 492 745 l 625 1042 l 787 1042 l 606 0 l 462 0 l 473 76 q 272 -14 387 -17 q 108 65 170 -13 q 42 271 47 142 q 44 353 40 313 l 46 368 m 202 304 q 228 171 197 220 q 320 120 259 121 q 481 210 413 117 l 536 526 q 412 613 504 610 q 264 532 320 616 q 202 304 208 448 z "},"e":{"ha":730,"x_min":40,"x_max":696,"o":"m 343 -14 q 177 35 248 -12 q 74 161 107 81 q 48 339 40 241 l 50 367 q 116 568 62 479 q 248 703 169 657 q 420 747 328 749 q 627 645 558 745 q 679 385 696 545 l 669 315 l 208 315 q 243 174 201 227 q 357 119 284 120 q 548 209 460 115 l 629 123 q 508 21 583 58 q 343 -14 433 -15 m 412 616 q 220 435 284 620 l 525 435 l 528 449 q 528 510 532 480 q 490 586 521 558 q 412 616 460 614 z "},"f":{"ha":484,"x_min":64,"x_max":585,"o":"m 67 0 l 174 612 l 64 612 l 86 734 l 195 734 l 205 812 q 297 993 223 926 q 489 1058 372 1059 q 585 1044 530 1057 l 567 916 q 507 922 537 922 q 412 891 449 923 q 366 803 376 859 l 355 734 l 500 734 l 479 612 l 334 612 l 228 0 l 67 0 z "},"g":{"ha":770,"x_min":-6,"x_max":739,"o":"m 47 368 q 107 566 60 477 q 224 702 153 655 q 385 748 294 749 q 568 659 506 745 l 593 734 l 739 734 l 618 20 q 497 -209 597 -123 q 252 -290 396 -294 q 105 -254 174 -288 q -6 -165 36 -220 l 79 -68 q 248 -159 144 -157 q 383 -116 326 -162 q 458 14 439 -71 l 470 66 q 277 -14 385 -16 q 112 64 174 -12 q 44 271 50 141 q 47 368 42 311 m 207 353 q 204 279 203 319 q 237 165 205 207 q 326 121 268 123 q 486 205 417 117 l 543 530 q 418 613 508 610 q 281 550 336 615 q 208 368 225 485 l 207 353 z "},"h":{"ha":755,"x_min":9,"x_max":690,"o":"m 276 653 q 484 747 368 749 q 639 673 589 745 q 677 472 690 600 l 598 0 l 437 0 l 517 474 q 519 528 521 503 q 421 613 510 611 q 261 525 332 614 l 170 0 l 9 0 l 189 1042 l 351 1042 l 276 653 z "},"i":{"ha":351,"x_min":21,"x_max":353,"o":"m 182 0 l 21 0 l 149 734 l 309 734 l 182 0 m 172 922 q 196 985 172 959 q 262 1013 220 1012 q 327 989 301 1015 q 353 927 353 964 q 328 863 353 888 q 263 837 302 838 q 198 860 224 836 q 172 922 172 885 z "},"j":{"ha":345,"x_min":-165,"x_max":346,"o":"m 306 734 l 171 -64 q 92 -239 156 -178 q -74 -298 28 -300 q -165 -286 -117 -297 l -152 -155 q -95 -163 -121 -163 q 9 -62 -9 -163 l 145 734 l 306 734 m 165 922 q 189 986 165 961 q 254 1013 214 1012 q 320 990 294 1015 q 346 927 346 965 q 320 863 346 888 q 256 837 295 838 q 190 861 215 837 q 165 922 165 885 z "},"k":{"ha":710,"x_min":12,"x_max":745,"o":"m 303 313 l 212 233 l 172 0 l 12 0 l 192 1042 l 353 1042 l 250 450 l 306 509 l 539 734 l 745 734 l 419 420 l 633 0 l 459 0 l 303 313 z "},"l":{"ha":351,"x_min":21,"x_max":363,"o":"m 182 0 l 21 0 l 202 1042 l 363 1042 l 182 0 z "},"m":{"ha":1179,"x_min":11,"x_max":1112,"o":"m 288 734 l 274 656 q 491 747 365 750 q 606 715 560 746 q 668 635 652 685 q 901 747 770 750 q 1060 674 1008 745 q 1099 475 1112 603 l 1020 0 l 859 0 l 939 477 q 940 532 943 507 q 840 613 929 611 q 682 504 740 616 l 680 489 l 596 0 l 435 0 l 515 475 q 515 529 518 504 q 415 613 505 611 q 264 532 325 614 l 172 0 l 11 0 l 138 734 l 288 734 z "},"n":{"ha":756,"x_min":9,"x_max":690,"o":"m 287 734 l 271 648 q 488 747 365 750 q 641 674 591 745 q 677 474 690 602 l 598 0 l 437 0 l 517 476 q 518 530 521 505 q 422 613 509 611 q 261 523 330 614 l 170 0 l 9 0 l 136 734 l 287 734 z "},"o":{"ha":774,"x_min":39,"x_max":721,"o":"m 50 370 q 113 566 61 477 q 246 702 165 654 q 427 747 328 750 q 589 697 521 746 q 689 564 658 648 q 711 375 721 479 q 648 169 701 258 q 514 32 595 79 q 332 -14 432 -16 q 171 36 239 -12 q 71 169 102 85 q 47 355 39 254 l 50 370 m 208 277 q 245 162 211 205 q 340 117 279 119 q 479 181 423 115 q 549 361 535 247 l 553 427 q 519 564 553 514 q 418 616 484 613 q 256 515 315 618 q 210 370 220 452 q 208 277 205 313 z "},"p":{"ha":765,"x_min":-39,"x_max":703,"o":"m 698 364 q 639 165 684 254 q 525 30 594 75 q 369 -14 455 -16 q 189 67 254 -12 l 123 -282 l -39 -282 l 138 734 l 285 734 l 273 659 q 473 747 357 750 q 594 712 543 747 q 673 610 646 677 q 703 463 701 544 q 698 364 703 421 m 539 378 l 543 428 q 514 564 545 515 q 421 613 483 612 q 264 530 330 616 l 207 202 q 331 117 237 120 q 466 180 411 115 q 539 378 520 244 z "},"q":{"ha":772,"x_min":40,"x_max":732,"o":"m 46 368 q 108 574 60 484 q 226 707 156 664 q 382 748 296 750 q 561 661 498 745 l 587 734 l 732 734 l 556 -282 l 395 -282 l 462 63 q 274 -14 380 -16 q 108 65 169 -12 q 42 271 47 142 q 44 354 40 313 l 46 368 m 205 354 l 202 305 q 231 166 200 214 q 321 118 262 119 q 410 139 372 116 q 478 201 448 163 l 538 536 q 414 616 503 613 q 283 557 337 618 q 210 386 229 497 l 205 354 z "},"r":{"ha":480,"x_min":11,"x_max":509,"o":"m 491 583 q 428 590 460 590 q 260 503 322 593 l 172 0 l 11 0 l 138 734 l 290 734 l 274 651 q 448 749 349 751 q 509 739 470 749 l 491 583 z "},"s":{"ha":702,"x_min":19,"x_max":654,"o":"m 450 203 q 362 297 461 271 q 228 338 264 323 q 93 520 88 398 q 183 684 96 619 q 390 747 269 749 q 580 682 507 746 q 652 513 654 617 l 493 513 q 465 593 494 564 q 385 623 436 622 q 293 597 332 623 q 249 528 255 570 q 336 442 239 466 q 478 397 432 418 q 608 213 612 338 q 562 91 604 143 q 448 12 519 39 q 297 -14 377 -16 q 98 56 177 -12 q 20 232 19 125 l 176 231 q 211 142 177 172 q 304 111 245 111 q 403 135 363 111 q 450 203 443 160 z "},"t":{"ha":455,"x_min":40,"x_max":465,"o":"m 371 912 l 340 734 l 465 734 l 444 612 l 318 612 l 249 201 q 248 170 247 184 q 302 124 252 126 q 359 130 328 124 l 349 1 q 248 -13 298 -13 q 122 44 163 -12 q 89 193 80 100 l 157 612 l 40 612 l 62 734 l 178 734 l 210 912 l 371 912 z "},"u":{"ha":755,"x_min":50,"x_max":728,"o":"m 465 73 q 256 -14 381 -16 q 137 22 184 -12 q 70 116 90 56 q 58 259 50 177 l 138 734 l 298 734 l 218 257 q 218 208 216 232 q 302 121 224 124 q 475 206 409 117 l 567 734 l 728 734 l 601 0 l 450 0 l 465 73 z "},"v":{"ha":673,"x_min":68,"x_max":703,"o":"m 300 211 l 532 734 l 703 734 l 342 0 l 202 0 l 68 734 l 229 734 l 300 211 z "},"w":{"ha":1008,"x_min":81,"x_max":1036,"o":"m 673 229 l 875 734 l 1036 734 l 715 0 l 583 0 l 518 502 l 281 0 l 148 0 l 81 734 l 233 734 l 260 236 l 492 734 l 614 734 l 673 229 z "},"x":{"ha":684,"x_min":-48,"x_max":707,"o":"m 347 494 l 519 734 l 707 734 l 427 365 l 590 0 l 422 0 l 319 250 l 139 0 l -48 0 l 241 380 l 83 734 l 252 734 l 347 494 z "},"y":{"ha":663,"x_min":-51,"x_max":707,"o":"m 298 237 l 529 734 l 707 734 l 272 -127 q 33 -298 181 -300 q -51 -285 -4 -297 l -37 -157 l -8 -160 q 88 -138 50 -162 q 152 -63 126 -114 l 191 13 l 68 734 l 235 734 l 298 237 z "},"z":{"ha":684,"x_min":-17,"x_max":675,"o":"m 212 132 l 585 132 l 562 0 l -17 0 l 3 116 l 443 601 l 94 601 l 117 734 l 675 734 l 656 622 l 212 132 z "},"{":{"ha":458,"x_min":33,"x_max":524,"o":"m 313 -243 q 153 -127 205 -209 q 113 72 100 -46 l 132 210 q 132 267 135 241 q 33 357 123 350 l 44 478 q 200 635 179 485 l 221 787 q 500 1085 260 1015 l 524 988 q 370 763 393 941 l 350 615 q 202 416 328 481 q 270 324 252 379 q 282 210 288 269 l 262 54 l 260 5 q 347 -149 258 -110 l 313 -243 z "},"|":{"ha":345,"x_min":22,"x_max":316,"o":"m 133 -183 l 22 -183 l 205 987 l 316 987 l 133 -183 z "},"}":{"ha":458,"x_min":-70,"x_max":422,"o":"m -70 -149 q 83 63 55 -105 l 106 229 q 258 422 130 361 q 173 570 182 473 q 173 630 170 600 l 193 786 l 196 835 q 109 989 196 950 l 146 1082 q 305 963 256 1045 q 342 768 354 882 l 323 629 q 322 572 319 598 q 422 481 331 488 l 410 360 q 254 205 275 353 l 233 54 q -46 -246 195 -177 l -70 -149 z "},"~":{"ha":902,"x_min":62,"x_max":831,"o":"m 831 534 q 757 338 823 416 q 590 262 690 259 q 492 288 535 263 q 410 353 450 313 q 348 404 371 392 q 303 416 326 416 q 189 288 212 418 l 62 288 q 139 481 71 407 q 304 553 206 556 q 404 526 360 552 q 486 462 448 500 q 547 411 524 423 q 591 399 570 399 q 669 434 637 399 q 711 532 701 470 l 831 534 z "},"¡":{"ha":363,"x_min":-18,"x_max":313,"o":"m 119 449 l 257 449 l 153 -247 l -18 -247 l 119 449 m 313 661 q 288 596 313 623 q 223 569 263 570 q 157 593 183 568 q 132 656 132 618 q 157 720 132 694 q 222 747 182 746 q 287 723 261 749 q 313 661 313 698 z "},"¢":{"ha":763,"x_min":52,"x_max":699,"o":"m 340 117 q 444 151 400 116 q 500 242 487 186 l 652 243 q 570 80 642 147 q 389 -7 497 12 l 357 -166 l 224 -166 l 256 -6 q 137 62 184 12 q 71 188 91 112 q 61 353 52 263 l 62 366 q 163 620 79 522 q 377 741 246 718 l 408 894 l 541 894 l 509 740 q 649 646 599 718 q 697 470 699 575 l 547 470 q 516 574 547 536 q 429 615 485 612 q 274 529 332 619 q 217 276 217 439 q 248 162 217 204 q 340 117 279 119 z "},"£":{"ha":800,"x_min":-7,"x_max":806,"o":"m 335 406 l 320 288 q 248 135 309 199 l 709 137 l 685 0 l -7 0 l 18 136 l 64 135 q 151 280 132 159 l 168 406 l 61 406 l 85 541 l 187 541 l 208 711 q 266 864 219 797 q 387 967 313 932 q 547 1000 460 1003 q 738 924 669 998 q 801 727 806 850 l 639 728 q 614 827 642 792 q 530 865 587 862 q 426 821 469 866 q 374 699 383 775 l 354 541 l 559 541 l 535 406 l 335 406 z "},"¤":{"ha":952,"x_min":5,"x_max":954,"o":"m 665 71 q 414 -14 541 -16 q 190 72 281 -11 l 87 -18 l 5 87 l 110 174 q 85 290 92 232 q 102 486 72 390 q 201 662 132 583 l 123 767 l 225 857 l 300 760 q 539 836 418 839 q 757 758 665 835 l 872 858 l 954 752 l 840 656 q 868 417 882 530 q 762 174 850 281 l 837 73 l 734 -18 l 665 71 m 208 406 q 220 263 197 332 q 296 154 243 195 q 419 111 348 113 q 567 149 496 108 q 686 263 637 190 q 745 418 734 337 q 732 560 755 492 q 657 668 709 627 q 534 711 605 709 q 385 673 456 714 q 266 559 313 631 q 208 406 218 488 z "},"¥":{"ha":722,"x_min":34,"x_max":814,"o":"m 384 576 l 627 987 l 814 987 l 505 503 l 655 503 l 637 400 l 438 400 l 421 307 l 621 307 l 603 204 l 404 204 l 368 0 l 201 0 l 237 204 l 34 204 l 52 307 l 254 307 l 271 400 l 68 400 l 86 503 l 254 503 l 112 987 l 284 987 l 384 576 z "},"¦":{"ha":341,"x_min":-14,"x_max":342,"o":"m -14 -183 l 81 356 l 232 356 l 138 -183 l -14 -183 m 252 473 l 100 473 l 190 987 l 342 987 l 252 473 z "},"§":{"ha":844,"x_min":-24,"x_max":814,"o":"m 750 314 q 605 120 741 191 q 662 -64 671 50 q 607 -205 656 -146 q 477 -293 559 -263 q 298 -321 396 -323 q 61 -243 146 -320 q -21 -33 -24 -167 l 142 -33 q 180 -147 138 -106 q 304 -189 223 -188 q 439 -156 386 -189 q 501 -66 492 -123 q 390 59 515 15 l 291 92 l 231 115 q 57 362 43 196 q 201 557 66 487 q 144 742 136 631 q 255 932 154 861 q 510 1001 356 1002 q 735 921 655 998 q 808 709 814 844 l 648 710 q 613 825 652 783 q 503 868 574 867 q 372 838 425 869 q 307 744 316 805 q 420 615 292 653 q 606 547 549 576 q 750 314 762 469 m 315 490 q 220 373 233 453 q 328 239 205 281 l 460 196 l 488 186 q 589 303 575 226 q 472 437 604 391 l 315 490 z "},"¨":{"ha":600,"x_min":142,"x_max":610,"o":"m 225 1007 q 286 984 262 1007 q 309 928 309 962 q 286 870 309 894 q 226 846 262 847 q 165 869 188 846 q 142 924 142 892 q 165 981 142 957 q 225 1007 188 1006 m 443 924 q 467 982 443 960 q 526 1006 491 1005 q 587 983 564 1006 q 610 928 610 960 q 586 870 610 893 q 526 845 562 846 q 466 868 488 845 q 443 924 443 890 z "},"©":{"ha":1062,"x_min":64,"x_max":1026,"o":"m 740 404 q 669 245 732 302 q 503 191 606 189 q 348 267 404 194 q 302 454 292 340 l 309 522 q 392 724 321 650 q 570 798 463 799 q 723 738 671 795 q 772 583 775 680 l 669 584 q 648 675 673 645 q 569 707 624 705 q 464 660 506 708 q 413 528 422 612 q 403 425 403 444 l 404 395 q 433 315 408 345 q 503 283 458 285 q 637 404 616 278 l 740 404 m 158 387 q 258 160 171 249 q 473 71 345 72 q 709 142 597 68 q 883 343 821 216 q 932 602 945 471 q 834 826 920 739 q 618 916 749 913 q 381 845 493 919 q 207 644 270 771 q 158 387 144 517 m 78 490 q 136 686 90 591 q 258 854 182 781 q 426 965 334 928 q 614 1001 517 1003 q 832 933 735 1000 q 978 749 929 866 q 1012 498 1026 631 q 919 241 997 362 q 723 52 841 119 q 476 -14 606 -16 q 257 56 353 -11 q 113 240 161 122 q 78 490 64 358 z "},"ª":{"ha":608,"x_min":129,"x_max":575,"o":"m 422 477 q 420 524 418 504 q 283 469 357 469 q 170 510 211 469 q 132 618 129 552 q 196 738 133 696 q 374 781 260 781 l 444 780 l 452 816 q 454 848 454 833 q 397 901 449 899 q 298 833 317 903 l 182 843 q 249 961 189 918 q 397 1002 309 1003 q 528 949 480 1000 q 568 814 575 899 l 532 578 l 529 539 q 534 477 528 509 l 422 477 m 310 565 q 418 607 357 565 l 436 701 l 380 701 q 290 677 324 699 q 250 621 255 656 q 261 580 245 595 q 310 565 278 565 z "},"«":{"ha":661,"x_min":50,"x_max":638,"o":"m 186 355 l 298 94 l 198 94 l 50 357 l 50 371 l 281 635 l 402 635 l 186 355 m 422 355 l 534 94 l 434 94 l 286 357 l 286 371 l 517 635 l 638 635 l 422 355 z "},"¬":{"ha":752,"x_min":87,"x_max":658,"o":"m 607 254 l 474 254 l 505 430 l 87 430 l 108 546 l 658 546 l 607 254 z "},"®":{"ha":1062,"x_min":64,"x_max":1026,"o":"m 78 490 q 168 744 93 624 q 362 933 243 863 q 614 1001 481 1004 q 832 933 735 1000 q 978 749 929 866 q 1012 498 1026 631 q 919 241 997 362 q 723 52 841 119 q 476 -14 606 -16 q 257 56 353 -11 q 113 240 161 122 q 78 490 64 358 m 157 387 q 208 225 165 298 q 319 113 251 153 q 473 71 387 73 q 679 123 578 68 q 847 281 779 179 q 930 499 915 383 q 909 704 945 607 q 798 857 873 801 q 618 916 722 913 q 381 845 493 919 q 208 645 270 771 q 157 387 145 519 m 444 443 l 408 214 l 307 214 l 397 791 l 574 790 q 721 741 671 787 q 768 619 771 696 q 670 489 763 541 q 724 390 720 458 q 721 328 726 369 q 718 268 717 287 l 720 226 l 720 214 l 618 214 q 616 263 615 239 q 625 350 617 286 q 614 416 629 393 q 555 441 600 439 l 444 443 m 457 534 l 545 533 q 629 557 595 534 q 670 616 663 580 q 657 677 677 656 q 577 700 637 698 l 484 701 l 457 534 z "},"¯":{"ha":656,"x_min":174,"x_max":645,"o":"m 628 876 l 174 876 l 192 983 l 645 983 l 628 876 z "},"°":{"ha":519,"x_min":155,"x_max":502,"o":"m 156 813 q 213 946 157 888 q 344 1002 269 1003 q 456 948 411 1000 q 500 825 502 897 q 444 693 498 748 q 316 639 389 637 q 201 691 247 640 q 156 813 155 742 m 248 814 q 262 760 244 785 q 314 735 281 735 q 378 762 351 735 q 410 824 406 789 q 396 882 414 857 q 346 907 378 907 q 281 878 309 907 q 248 814 252 850 z "},"±":{"ha":729,"x_min":18,"x_max":698,"o":"m 472 610 l 698 610 l 676 475 l 451 475 l 410 212 l 267 212 l 308 475 l 73 475 l 94 610 l 328 610 l 369 865 l 512 865 l 472 610 m 578 1 l 18 1 l 39 134 l 599 134 l 578 1 z "},"²":{"ha":505,"x_min":58,"x_max":511,"o":"m 462 452 l 58 452 l 75 544 l 307 734 q 380 836 372 791 q 371 880 385 864 q 328 897 356 896 q 266 872 289 897 q 235 813 243 848 l 112 812 q 178 946 119 895 q 326 996 237 998 q 461 950 412 995 q 507 836 511 906 q 402 669 504 750 l 349 629 l 242 554 l 480 553 l 462 452 z "},"³":{"ha":505,"x_min":70,"x_max":515,"o":"m 234 768 l 290 768 q 358 789 332 770 q 389 839 384 808 q 345 893 395 884 l 329 895 q 247 844 266 896 l 121 844 q 183 956 127 915 q 324 996 239 998 q 464 954 412 994 q 512 847 515 913 q 485 778 510 807 q 405 722 460 748 q 482 607 485 694 q 416 488 480 532 q 258 445 353 444 q 122 491 174 446 q 70 609 70 535 l 190 608 q 264 547 193 548 q 329 566 301 547 q 362 616 357 585 q 290 680 371 677 l 227 680 l 234 768 z "},"´":{"ha":446,"x_min":136,"x_max":490,"o":"m 296 1042 l 490 1042 l 275 836 l 136 836 l 296 1042 z "},"µ":{"ha":804,"x_min":-24,"x_max":751,"o":"m 313 734 l 243 312 q 239 227 238 254 q 333 119 243 121 q 497 200 436 116 l 591 734 l 751 734 l 625 0 l 479 0 l 489 58 q 323 -15 418 -16 q 195 24 250 -15 l 136 -282 l -24 -282 l 153 734 l 313 734 z "},"¶":{"ha":668,"x_min":85,"x_max":670,"o":"m 359 0 l 420 353 l 382 353 q 162 442 239 355 q 98 665 85 528 q 213 898 111 808 q 467 988 314 988 l 670 987 l 498 0 l 359 0 z "},"·":{"ha":387,"x_min":107,"x_max":294,"o":"m 107 481 q 133 549 107 523 q 199 577 159 576 q 267 552 241 578 q 294 487 294 525 q 267 421 294 447 q 200 393 241 395 q 134 417 160 392 q 107 481 107 442 z "},"¸":{"ha":354,"x_min":-31,"x_max":205,"o":"m 134 3 l 121 -37 q 184 -76 163 -47 q 205 -147 205 -104 q 143 -261 203 -221 q -31 -306 83 -302 l -29 -210 q 75 -145 64 -206 q 25 -96 81 -104 l -13 -92 l 18 1 l 134 3 z "},"¹":{"ha":505,"x_min":152,"x_max":434,"o":"m 346 452 l 223 452 l 290 836 l 152 804 l 170 908 l 418 986 l 434 986 l 346 452 z "},"º":{"ha":622,"x_min":129,"x_max":606,"o":"m 397 1002 q 550 931 495 999 q 598 760 606 864 l 594 715 q 513 534 584 604 q 338 467 441 465 q 185 536 242 470 q 136 708 129 603 l 140 753 q 182 885 147 827 q 273 973 217 942 q 397 1002 330 1004 m 253 706 q 271 604 248 640 q 342 566 294 567 q 432 604 395 564 q 477 713 469 644 l 482 761 q 464 864 488 829 q 393 901 441 900 q 302 863 339 903 q 258 755 266 823 l 253 706 z "},"»":{"ha":661,"x_min":1,"x_max":600,"o":"m 205 635 l 355 372 l 353 358 l 123 94 l 1 94 l 218 372 l 106 635 l 205 635 m 451 635 l 600 372 l 599 358 l 369 94 l 247 94 l 463 372 l 351 635 l 451 635 z "},"¼":{"ha":985,"x_min":125,"x_max":897,"o":"m 319 450 l 197 450 l 264 834 l 125 802 l 144 906 l 392 984 l 408 984 l 319 450 m 248 81 l 166 134 l 763 899 l 844 845 l 248 81 m 829 212 l 897 213 l 878 111 l 815 111 l 796 0 l 671 0 l 692 111 l 456 111 l 465 201 l 758 534 l 884 536 l 829 212 m 593 213 l 709 213 l 743 379 l 731 363 l 593 213 z "},"½":{"ha":1046,"x_min":120,"x_max":955,"o":"m 220 81 l 138 134 l 734 899 l 816 845 l 220 81 m 314 452 l 191 452 l 258 836 l 120 804 l 138 908 l 387 986 l 402 986 l 314 452 m 906 0 l 503 0 l 519 92 l 751 282 q 825 384 817 338 q 815 428 829 412 q 772 444 800 444 q 710 420 733 444 q 680 361 688 396 l 556 360 q 622 494 563 442 q 770 544 682 545 q 905 498 856 543 q 951 383 955 454 q 846 217 948 298 l 793 176 l 686 102 l 924 100 l 906 0 z "},"¾":{"ha":1074,"x_min":102,"x_max":976,"o":"m 341 81 l 259 134 l 856 899 l 937 845 l 341 81 m 908 212 l 976 213 l 957 111 l 895 111 l 876 0 l 751 0 l 771 111 l 536 111 l 545 201 l 838 534 l 964 536 l 908 212 m 673 213 l 788 213 l 823 379 l 810 363 l 673 213 m 266 768 l 322 768 q 390 789 363 770 q 420 839 416 808 q 376 893 427 884 l 361 895 q 279 844 298 896 l 153 844 q 215 956 159 915 q 356 996 271 998 q 495 954 444 994 q 544 847 547 913 q 517 778 542 807 q 437 722 492 748 q 514 607 517 694 q 448 488 512 532 q 290 445 385 444 q 154 491 205 446 q 102 609 102 535 l 222 608 q 296 547 224 548 q 361 566 333 547 q 394 616 389 585 q 321 680 403 677 l 259 680 l 266 768 z "},"¿":{"ha":662,"x_min":-31,"x_max":545,"o":"m 420 449 q 383 312 412 370 q 289 195 353 254 l 233 145 q 142 -4 152 71 q 160 -92 135 -60 q 238 -126 185 -125 q 333 -93 294 -127 q 384 0 372 -59 l 545 0 q 445 -193 533 -121 q 229 -262 357 -264 q 37 -190 105 -259 q -22 -6 -31 -121 q 120 231 -12 115 l 194 295 q 272 448 258 353 l 420 449 m 475 662 q 450 596 475 622 q 386 570 425 571 q 320 593 346 568 q 294 656 294 618 q 319 721 294 695 q 385 748 345 747 q 450 724 424 749 q 475 662 475 699 z "},"Æ":{"ha":1273,"x_min":-82,"x_max":1297,"o":"m 1166 0 l 575 0 l 605 231 l 280 231 l 119 0 l -82 0 l 638 987 l 1297 987 l 1273 854 l 848 854 l 811 577 l 1173 577 l 1149 444 l 793 444 l 753 133 l 1190 133 l 1166 0 m 381 376 l 624 376 l 682 806 l 381 376 z "},"×":{"ha":725,"x_min":24,"x_max":708,"o":"m 24 254 l 270 472 l 100 691 l 207 785 l 376 568 l 622 785 l 708 676 l 462 458 l 632 239 l 525 145 l 355 362 l 110 145 l 24 254 z "},"Ø":{"ha":936,"x_min":14,"x_max":971,"o":"m 406 -14 q 217 38 300 -12 l 137 -64 l 14 -64 l 146 99 q 74 372 73 218 l 76 425 q 154 736 89 607 q 325 935 220 866 q 558 1002 429 1003 q 774 932 687 999 l 850 1029 l 971 1029 l 838 863 q 886 694 876 781 q 872 440 897 579 q 779 195 847 300 q 614 36 711 89 q 406 -14 518 -16 m 237 354 q 248 240 235 296 l 680 804 q 551 860 638 857 q 361 777 438 863 q 257 532 285 690 q 237 354 239 431 m 728 615 q 727 711 731 663 l 306 161 q 414 126 349 127 q 610 217 533 123 q 711 481 687 312 l 723 564 l 728 615 z "},"Þ":{"ha":813,"x_min":26,"x_max":783,"o":"m 359 987 l 326 798 l 463 797 q 698 717 614 796 q 772 506 783 637 q 657 286 762 368 q 394 203 553 203 l 223 203 l 187 0 l 26 0 l 198 987 l 359 987 m 303 665 l 245 336 l 398 334 q 543 382 485 336 q 612 505 602 429 q 583 620 621 578 q 473 665 545 662 l 303 665 z "},"ß":{"ha":832,"x_min":18,"x_max":746,"o":"m 179 0 l 18 0 l 146 749 q 252 976 165 892 q 475 1057 339 1059 q 652 990 588 1054 q 708 820 717 926 q 693 757 705 787 q 648 675 681 728 q 606 601 616 623 q 592 553 597 578 q 602 485 587 519 q 664 398 618 450 q 728 309 710 347 q 745 234 746 272 q 654 50 739 117 q 442 -14 570 -17 q 250 31 326 -13 l 296 162 q 439 117 366 117 q 538 148 498 117 q 586 227 578 178 q 574 297 591 262 q 510 382 557 332 q 431 549 425 473 q 450 619 433 587 q 488 681 467 650 q 526 742 508 711 q 548 810 543 773 q 531 893 554 862 q 460 927 507 924 q 359 885 399 929 q 306 749 319 840 l 179 0 z "},"æ":{"ha":1144,"x_min":10,"x_max":1118,"o":"m 766 -13 q 625 15 688 -13 q 525 95 561 43 q 237 -14 408 -16 q 71 47 132 -12 q 16 206 10 106 q 111 376 22 315 q 355 436 199 436 l 485 435 l 494 485 q 495 534 498 511 q 403 615 484 613 q 303 588 344 616 q 254 510 263 559 l 94 523 q 140 641 98 589 q 256 721 182 693 q 414 748 330 749 q 621 658 559 745 q 851 747 726 750 q 1050 652 983 743 q 1100 415 1118 560 l 1086 319 l 632 319 q 663 174 623 227 q 781 119 703 121 q 890 136 839 118 q 991 180 941 154 l 1031 66 q 915 7 987 28 q 766 -13 844 -14 m 273 111 q 444 180 350 111 l 471 322 l 356 323 q 234 289 283 321 q 177 203 185 257 q 197 136 171 161 q 273 111 224 112 m 840 616 q 726 572 775 618 q 645 435 676 526 l 942 435 l 946 457 q 948 516 951 488 q 840 616 939 612 z "},"ð":{"ha":790,"x_min":47,"x_max":745,"o":"m 633 882 q 716 667 694 777 q 723 435 739 557 l 715 377 q 642 170 699 264 q 505 30 585 77 q 332 -14 425 -16 q 179 32 246 -12 q 80 150 113 75 q 56 312 47 224 q 111 491 64 410 q 233 618 157 572 q 399 661 309 663 q 565 597 492 658 q 497 795 562 701 l 345 703 l 302 785 l 427 858 q 254 940 366 907 l 315 1072 q 566 946 466 1035 l 703 1029 l 745 947 l 633 882 m 566 465 q 429 534 529 530 q 285 473 343 535 q 216 312 227 412 q 242 175 207 231 q 345 117 278 119 q 480 184 425 113 q 552 372 535 254 l 566 465 z "},"÷":{"ha":776,"x_min":41,"x_max":734,"o":"m 708 395 l 41 395 l 66 538 l 734 538 l 708 395 m 345 740 q 371 807 345 781 q 437 833 397 832 q 505 809 478 835 q 531 745 531 783 q 506 680 531 707 q 438 652 480 654 q 371 675 398 651 q 345 740 345 700 m 248 186 q 274 252 248 224 q 341 280 300 279 q 407 257 380 281 q 435 191 435 232 q 409 126 435 151 q 342 99 383 100 q 276 122 303 98 q 248 186 248 146 z "},"ø":{"ha":770,"x_min":28,"x_max":729,"o":"m 46 369 q 88 520 56 449 q 173 645 120 592 q 430 749 279 751 q 558 724 494 747 l 624 821 l 729 821 l 630 678 q 711 456 706 589 q 707 361 712 417 q 641 165 693 253 q 505 31 588 78 q 322 -15 422 -16 q 202 7 264 -14 l 134 -93 l 28 -92 l 127 50 q 42 273 47 138 q 45 355 40 314 l 46 369 m 197 271 q 210 186 197 228 l 484 604 q 422 618 458 616 q 303 575 355 618 q 225 449 252 531 q 197 271 198 368 m 556 456 q 545 538 557 497 l 273 126 q 329 115 300 117 q 469 178 411 113 q 547 361 527 242 q 556 456 555 418 z "},"þ":{"ha":780,"x_min":-35,"x_max":708,"o":"m 703 363 q 643 162 689 252 q 527 28 597 73 q 373 -15 458 -17 q 193 67 259 -12 l 127 -282 l -35 -282 l 195 1042 l 356 1042 l 284 666 q 477 747 367 750 q 644 669 584 745 q 707 463 704 594 q 703 363 708 422 m 543 378 l 547 429 q 518 563 549 515 q 425 613 488 610 q 268 530 334 616 l 210 202 q 335 117 242 120 q 470 180 415 115 q 543 378 524 244 z "},"đ":{"ha":836,"x_min":40,"x_max":885,"o":"m 865 830 l 750 830 l 606 0 l 462 0 l 473 76 q 272 -14 387 -16 q 154 23 205 -13 q 74 125 102 58 q 42 274 45 193 q 45 372 40 312 q 107 572 59 481 q 225 706 155 662 q 380 748 295 750 q 555 665 491 745 l 589 830 l 423 830 l 444 945 l 608 945 l 626 1042 l 787 1042 l 770 945 l 885 945 l 865 830 m 205 353 q 201 279 201 319 q 232 164 201 208 q 319 119 262 121 q 481 210 412 117 l 536 526 q 412 612 504 610 q 278 551 332 614 q 205 353 224 488 z "},"Ħ":{"ha":964,"x_min":31,"x_max":1017,"o":"m 932 812 l 1017 812 l 997 703 l 913 703 l 792 0 l 625 0 l 701 439 l 274 439 l 198 0 l 31 0 l 153 703 l 71 703 l 90 812 l 172 812 l 202 987 l 370 987 l 338 812 l 766 812 l 796 987 l 963 987 l 932 812 m 298 576 l 725 576 l 747 703 l 320 703 l 298 576 z "},"ı":{"ha":361,"x_min":23,"x_max":311,"o":"m 184 0 l 23 0 l 151 734 l 311 734 l 184 0 z "},"ĸ":{"ha":781,"x_min":22,"x_max":790,"o":"m 311 290 l 233 290 l 182 0 l 22 0 l 150 734 l 310 734 l 259 441 l 308 441 l 580 734 l 790 734 l 448 370 l 668 0 l 476 0 l 311 290 z "},"Ł":{"ha":746,"x_min":22,"x_max":663,"o":"m 307 594 l 470 642 l 451 536 l 289 488 l 228 137 l 663 137 l 640 0 l 37 0 l 113 435 l 22 410 l 41 515 l 131 541 l 208 987 l 376 987 l 307 594 z "},"ł":{"ha":395,"x_min":21,"x_max":409,"o":"m 305 607 l 409 642 l 390 536 l 287 500 l 200 0 l 39 0 l 116 441 l 21 410 l 40 515 l 134 547 l 220 1042 l 380 1042 l 305 607 z "},"Ŋ":{"ha":945,"x_min":24,"x_max":949,"o":"m 949 987 l 775 -38 q 686 -231 759 -161 q 501 -298 613 -300 q 410 -285 461 -298 l 433 -151 q 498 -160 470 -160 q 608 -27 585 -160 l 613 0 l 315 715 l 191 0 l 24 0 l 195 987 l 357 987 l 657 273 l 781 987 l 949 987 z "},"ŋ":{"ha":770,"x_min":12,"x_max":699,"o":"m 286 734 l 270 631 q 488 747 361 750 q 648 667 597 745 q 684 456 699 589 l 604 -43 q 517 -233 587 -165 q 336 -298 446 -300 q 245 -285 292 -298 l 269 -151 q 334 -161 308 -161 q 443 -35 422 -161 l 523 456 q 525 514 526 486 q 426 612 520 609 q 269 543 337 615 l 173 0 l 12 0 l 139 734 l 286 734 z "},"Œ":{"ha":1304,"x_min":54,"x_max":1309,"o":"m 1142 0 l 581 0 l 448 -12 l 389 -12 q 204 44 282 -9 q 90 189 125 97 q 68 391 54 281 l 102 606 q 182 811 121 720 q 337 952 243 903 q 542 1002 430 1002 l 592 1000 l 732 987 l 1309 987 l 1284 849 l 829 849 l 782 576 l 1176 576 l 1152 441 l 759 441 l 706 137 l 1166 137 l 1142 0 m 395 120 q 532 126 449 118 l 667 861 q 537 871 589 870 q 355 799 429 873 q 260 594 281 726 l 229 390 q 227 294 222 341 q 276 169 232 215 q 395 120 319 123 z "},"œ":{"ha":1224,"x_min":45,"x_max":1191,"o":"m 57 369 q 122 566 71 478 q 254 702 174 654 q 435 748 335 749 q 575 715 513 747 q 670 628 637 683 q 922 747 783 750 q 1123 653 1055 745 q 1173 416 1191 562 l 1158 319 l 713 319 q 741 175 705 229 q 848 119 777 121 q 1057 180 952 116 l 1101 72 q 986 8 1055 30 q 833 -13 917 -14 q 692 20 753 -12 q 597 104 631 51 q 330 -14 485 -16 q 170 36 236 -12 q 75 169 104 84 q 56 355 45 253 l 57 369 m 216 355 l 212 304 l 213 273 q 339 117 222 121 q 478 182 422 115 q 548 361 534 249 l 553 427 l 553 446 q 425 616 547 610 q 294 558 348 618 q 220 387 239 498 l 216 355 m 911 616 q 811 576 856 617 q 729 439 766 534 l 1016 439 l 1019 458 q 1021 517 1024 489 q 987 588 1015 562 q 911 616 959 614 z "},"ſ":{"ha":351,"x_min":20,"x_max":543,"o":"m 20 0 l 157 802 q 246 991 172 922 q 435 1058 320 1059 q 543 1042 476 1057 l 513 917 q 452 926 483 925 q 363 893 398 926 q 317 799 328 859 l 180 0 l 20 0 z "},"Ə":{"ha":939,"x_min":53,"x_max":900,"o":"m 397 -14 q 165 69 254 -11 q 59 292 77 149 l 56 326 q 61 444 53 383 l 76 541 l 715 541 q 719 659 726 602 q 649 801 707 750 q 497 854 591 852 q 244 807 386 857 l 224 943 q 509 1000 315 1000 q 729 939 638 998 q 860 771 819 879 q 883 531 900 664 l 873 460 q 784 212 852 321 q 614 43 715 102 q 397 -14 513 -16 m 406 130 q 578 196 505 127 q 698 407 652 265 l 224 407 l 219 384 q 216 286 210 331 q 276 172 227 212 q 406 130 326 132 z "},"ƒ":{"ha":480,"x_min":-123,"x_max":572,"o":"m 456 612 l 324 612 l 224 -47 q 143 -233 211 -165 q -35 -298 75 -300 q -123 -285 -80 -297 l -102 -156 q -40 -167 -64 -165 q 61 -52 41 -167 l 163 612 l 54 612 l 74 734 l 182 734 l 191 802 q 278 991 205 923 q 467 1057 351 1059 q 572 1042 503 1057 l 544 915 q 480 923 507 923 q 351 789 369 923 l 343 734 l 475 734 l 456 612 z "},"Ơ":{"ha":939,"x_min":62,"x_max":1067,"o":"m 396 -14 q 227 32 299 -12 q 114 160 155 76 q 66 353 72 243 q 83 552 62 438 q 156 759 104 666 q 281 911 208 852 q 548 1001 397 1004 q 695 970 629 1000 q 808 886 762 940 q 898 939 863 896 q 945 1073 932 983 l 1067 1073 q 863 795 1046 844 q 880 657 877 726 q 863 446 884 566 q 787 226 842 326 q 652 67 732 127 q 396 -14 541 -16 m 706 521 l 712 593 q 674 786 719 715 q 539 859 630 857 q 345 770 422 863 q 243 511 267 677 l 237 467 l 232 396 q 246 258 228 322 q 304 162 264 195 q 405 127 345 129 q 593 209 517 122 q 697 460 670 296 l 706 521 z "},"ơ":{"ha":785,"x_min":37,"x_max":871,"o":"m 55 369 q 120 566 67 477 q 255 702 174 655 q 437 748 337 749 q 563 722 504 747 q 665 645 623 697 q 753 757 734 673 l 762 808 l 871 808 q 823 653 862 711 q 709 570 784 596 q 722 473 720 521 q 718 375 723 425 q 587 87 692 191 q 332 -14 482 -18 q 113 95 189 -10 q 53 355 37 199 l 55 369 m 212 277 q 247 162 214 205 q 341 117 281 119 q 481 180 424 115 q 554 361 538 246 l 559 427 q 527 563 561 512 q 427 616 494 613 q 288 552 345 618 q 215 369 232 486 q 212 277 210 314 z "},"Ư":{"ha":957,"x_min":62,"x_max":1159,"o":"m 902 987 l 875 836 q 987 890 947 844 q 1042 1042 1027 937 l 1159 1043 q 1074 821 1146 898 q 863 736 1002 745 l 789 327 q 655 77 766 170 q 382 -14 545 -16 q 206 31 281 -12 q 97 151 132 74 q 73 327 62 229 l 185 987 l 352 987 l 240 326 q 268 179 228 233 q 392 123 307 125 q 544 172 484 120 q 622 323 605 224 l 735 987 l 902 987 z "},"ư":{"ha":840,"x_min":50,"x_max":934,"o":"m 934 795 q 868 620 924 677 q 701 554 812 562 l 601 0 l 450 0 l 465 73 q 256 -14 381 -16 q 137 22 184 -12 q 70 116 90 56 q 58 259 50 177 l 138 734 l 298 734 l 219 257 q 218 208 216 232 q 303 121 223 124 q 475 206 410 117 l 567 734 l 728 734 l 707 640 q 790 680 762 648 q 830 794 818 711 l 934 795 z "},"ȷ":{"ha":369,"x_min":-163,"x_max":323,"o":"m 323 734 l 191 -42 q 105 -232 174 -165 q -75 -298 36 -298 q -163 -287 -116 -298 l -142 -156 q -78 -167 -106 -167 q 31 -35 8 -167 l 162 734 l 323 734 z "},"ə":{"ha":720,"x_min":37,"x_max":688,"o":"m 394 747 q 611 643 534 745 q 673 386 688 542 l 668 347 q 602 159 654 245 q 472 30 549 74 q 306 -13 395 -15 q 104 82 172 -9 q 54 317 37 173 l 69 414 l 514 414 q 486 558 522 503 q 379 614 450 612 q 171 553 277 618 l 127 662 q 241 726 172 704 q 394 747 311 749 m 315 117 q 499 294 429 113 l 212 294 q 207 217 203 245 q 241 145 212 172 q 315 117 270 118 z "},"ˆ":{"ha":663,"x_min":175,"x_max":629,"o":"m 629 856 l 629 844 l 503 846 l 424 951 l 307 847 l 176 844 l 175 857 l 379 1042 l 471 1042 l 629 856 z "},"ˇ":{"ha":628,"x_min":182,"x_max":648,"o":"m 392 938 l 507 1042 l 648 1044 l 648 1034 l 439 846 l 340 846 l 182 1034 l 182 1045 l 315 1042 l 392 938 z "},"ˉ":{"ha":656,"x_min":174,"x_max":645,"o":"m 628 876 l 174 876 l 192 983 l 645 983 l 628 876 z "},"˘":{"ha":593,"x_min":172,"x_max":594,"o":"m 594 1025 q 524 882 587 935 q 370 833 461 830 q 226 886 280 834 q 172 1025 172 938 l 292 1024 q 370 929 288 929 q 441 956 415 929 q 475 1023 467 982 l 594 1025 z "},"˙":{"ha":351,"x_min":175,"x_max":348,"o":"m 175 926 q 199 988 175 964 q 260 1013 223 1012 q 323 991 298 1015 q 348 931 348 968 q 324 869 348 892 q 262 845 300 846 q 200 867 226 844 q 175 926 175 890 z "},"˚":{"ha":460,"x_min":170,"x_max":461,"o":"m 170 924 q 215 1028 170 985 q 323 1071 260 1071 q 420 1031 378 1071 q 461 935 461 991 q 416 832 461 874 q 309 789 372 789 q 210 829 250 789 q 170 924 170 868 m 242 925 q 255 876 238 898 q 301 853 272 853 q 360 878 335 853 q 389 933 385 902 q 376 984 393 962 q 330 1006 359 1006 q 271 981 296 1006 q 242 925 246 956 z "},"˛":{"ha":394,"x_min":-60,"x_max":198,"o":"m 198 -2 l 166 -23 q 73 -140 77 -81 q 107 -180 69 -178 q 167 -165 125 -181 l 175 -263 q 71 -291 128 -292 q -24 -254 12 -291 q -58 -160 -60 -217 q 123 41 -56 -39 l 198 -2 z "},"˜":{"ha":654,"x_min":151,"x_max":657,"o":"m 657 1026 q 605 898 649 945 q 498 850 562 850 q 466 855 481 850 q 415 881 451 860 q 361 908 378 901 q 323 913 343 914 q 252 843 270 911 l 151 848 q 201 977 157 926 q 311 1027 245 1028 q 394 996 343 1026 q 468 963 445 966 l 485 962 q 559 1034 540 964 l 657 1026 z "},"˝":{"ha":532,"x_min":117,"x_max":679,"o":"m 509 1041 l 679 1041 l 468 836 l 326 836 l 509 1041 m 267 1041 l 432 1041 l 250 836 l 117 836 l 267 1041 z "},"˳":{"ha":414,"x_min":-12,"x_max":226,"o":"m -12 -166 q 24 -79 -12 -114 q 111 -44 60 -44 q 193 -77 160 -44 q 226 -157 226 -111 q 190 -241 226 -207 q 106 -276 155 -276 q 22 -244 56 -276 q -12 -166 -12 -212 m 54 -165 q 63 -200 51 -186 q 96 -215 76 -215 q 136 -198 118 -215 q 159 -158 155 -180 q 152 -122 162 -138 q 120 -104 142 -105 q 77 -123 96 -104 q 54 -165 58 -141 z "},"̀":{"ha":0,"x_min":-464,"x_max":-200,"o":"m -200 836 l -322 836 l -464 1042 l -293 1042 l -200 836 z "},"́":{"ha":0,"x_min":-375,"x_max":-16,"o":"m -211 1042 l -16 1042 l -234 836 l -375 836 l -211 1042 z "},"̃":{"ha":0,"x_min":-528,"x_max":-21,"o":"m -21 1026 q -73 898 -29 945 q -180 850 -117 850 q -212 855 -197 850 q -263 881 -227 860 q -317 908 -300 901 q -355 913 -335 914 q -427 843 -408 911 l -528 848 q -477 977 -521 926 q -368 1027 -433 1028 q -284 996 -335 1026 q -210 963 -233 966 l -193 962 q -119 1034 -138 964 l -21 1026 z "},"̉":{"ha":0,"x_min":-376,"x_max":-132,"o":"m -376 850 l -366 949 l -334 953 q -264 1000 -270 960 q -330 1043 -257 1040 l -353 1044 l -341 1128 l -314 1126 q -134 1002 -132 1112 q -245 897 -136 918 l -252 850 l -376 850 z "},"̏":{"ha":0,"x_min":-565,"x_max":-52,"o":"m -249 849 l -399 849 l -565 1029 l -379 1029 l -249 849 m -52 849 l -192 849 l -322 1029 l -146 1029 l -52 849 z "},"̣":{"ha":0,"x_min":-586,"x_max":-404,"o":"m -586 -166 q -561 -105 -586 -130 q -496 -79 -535 -80 q -431 -100 -458 -77 q -404 -161 -404 -123 q -429 -223 -404 -199 q -494 -248 -454 -246 q -560 -225 -534 -249 q -586 -166 -586 -201 z "},"΄":{"ha":405,"x_min":205,"x_max":439,"o":"m 286 1086 l 439 1086 l 307 852 l 205 852 l 286 1086 z "},"΅":{"ha":720,"x_min":157,"x_max":718,"o":"m 454 1160 l 611 1160 l 490 958 l 387 958 l 454 1160 m 157 924 q 180 981 157 957 q 241 1007 203 1006 q 300 986 275 1008 q 325 928 325 964 q 300 870 324 893 q 242 846 277 847 q 183 867 208 844 q 157 924 157 889 m 551 924 q 575 982 551 959 q 633 1006 599 1005 q 693 985 667 1008 q 718 928 718 963 q 695 871 718 895 q 635 845 671 846 q 575 867 600 844 q 551 924 551 890 z "},"·":{"ha":387,"x_min":107,"x_max":294,"o":"m 107 481 q 133 549 107 523 q 199 577 159 576 q 267 552 241 578 q 294 487 294 525 q 267 421 294 447 q 200 393 241 395 q 134 417 160 392 q 107 481 107 442 z "},"Γ":{"ha":758,"x_min":31,"x_max":811,"o":"m 787 849 l 345 849 l 198 0 l 31 0 l 202 987 l 811 987 l 787 849 z "},"Δ":{"ha":975,"x_min":-58,"x_max":874,"o":"m 507 987 l 667 987 l 874 0 l -58 0 l 507 987 m 198 137 l 682 137 l 557 783 l 198 137 z "},"Θ":{"ha":929,"x_min":64,"x_max":883,"o":"m 618 429 l 322 429 l 346 561 l 642 561 l 618 429 m 399 -14 q 229 33 302 -12 q 115 161 157 77 q 68 352 74 245 q 83 544 64 430 q 157 756 103 659 q 290 916 211 854 q 550 1001 404 1004 q 784 900 696 998 q 879 634 871 802 q 864 441 883 550 q 797 241 844 332 q 680 89 750 150 q 399 -14 559 -17 m 709 521 l 715 593 q 675 788 720 720 q 542 859 631 857 q 347 769 423 863 q 247 515 270 676 l 240 467 l 235 396 q 273 201 228 272 q 408 127 317 130 q 596 209 519 122 q 700 460 673 296 l 709 521 z "},"Λ":{"ha":886,"x_min":-53,"x_max":781,"o":"m 498 739 l 132 0 l -53 0 l 454 987 l 616 987 l 781 0 l 607 0 l 498 739 z "},"Ξ":{"ha":775,"x_min":0,"x_max":787,"o":"m 24 137 l 658 137 l 634 0 l 0 0 l 24 137 m 165 573 l 665 573 l 642 439 l 142 439 l 165 573 m 180 987 l 787 987 l 763 849 l 155 849 l 180 987 z "},"Π":{"ha":965,"x_min":31,"x_max":957,"o":"m 785 0 l 618 0 l 766 849 l 345 849 l 198 0 l 31 0 l 202 987 l 957 987 l 785 0 z "},"Σ":{"ha":775,"x_min":-24,"x_max":802,"o":"m 539 489 l 224 137 l 678 137 l 654 0 l -24 0 l -5 110 l 363 503 l 130 892 l 147 987 l 802 987 l 778 849 l 337 849 l 540 503 l 539 489 z "},"Φ":{"ha":1006,"x_min":56,"x_max":984,"o":"m 670 865 q 898 764 811 858 q 981 527 984 670 l 979 494 q 911 300 968 386 q 759 167 853 215 q 549 115 664 119 l 524 0 l 357 0 l 381 116 q 142 226 229 124 q 71 482 56 328 q 139 679 81 592 q 293 815 198 766 q 503 866 389 863 l 528 987 l 696 987 l 670 865 m 235 482 q 264 325 222 383 q 397 258 307 267 l 486 726 q 315 654 381 719 q 235 482 248 590 m 814 494 q 785 655 827 597 q 654 724 744 713 l 566 256 q 737 328 673 264 q 814 494 801 391 z "},"Ψ":{"ha":961,"x_min":79,"x_max":1014,"o":"m 565 390 q 714 475 656 408 q 789 646 772 542 l 846 987 l 1014 987 l 956 642 q 819 371 927 473 q 544 254 711 270 l 495 0 l 328 0 l 377 254 q 154 384 228 275 q 99 650 79 493 l 155 987 l 322 987 l 265 650 q 262 567 260 608 q 299 455 265 500 q 393 393 332 409 l 500 987 l 665 987 l 565 390 z "},"Ω":{"ha":909,"x_min":6,"x_max":862,"o":"m 434 140 q 589 270 531 166 q 669 585 647 374 l 673 639 l 673 673 q 526 863 666 857 q 363 792 428 866 q 278 586 299 718 q 255 374 257 454 q 279 217 252 277 q 361 141 307 158 l 340 0 l 6 0 l 31 138 l 173 139 q 89 508 64 322 l 98 571 q 176 795 115 696 q 330 949 237 895 q 534 1000 423 1003 q 717 942 641 998 q 827 788 793 886 q 848 576 862 690 l 839 517 q 623 135 803 277 l 764 138 l 740 0 l 412 0 l 434 140 z "},"α":{"ha":767,"x_min":42,"x_max":729,"o":"m 729 734 l 642 217 q 639 164 637 182 q 667 127 640 129 l 676 127 l 685 130 l 689 5 q 610 -13 653 -14 q 525 17 557 -12 q 484 96 493 45 q 393 15 444 45 q 275 -14 343 -15 q 110 62 171 -12 q 44 259 49 136 q 46 341 42 300 l 48 355 q 110 565 62 472 q 226 704 157 659 q 382 747 295 749 q 557 644 499 745 l 590 734 l 729 734 m 208 338 q 204 265 203 303 q 236 158 205 197 q 321 117 266 119 q 477 210 411 115 l 532 519 q 414 615 500 612 q 278 547 332 618 q 210 352 224 475 l 208 338 z "},"β":{"ha":810,"x_min":-18,"x_max":767,"o":"m 496 1001 q 694 926 621 998 q 758 739 767 854 q 600 528 749 607 q 695 433 663 496 q 722 291 727 370 q 669 130 715 201 q 550 21 624 59 q 386 -14 475 -16 q 201 44 279 -12 l 142 -267 l -18 -267 l 149 715 q 210 863 160 796 q 336 966 259 929 q 496 1001 412 1003 m 428 583 q 543 623 499 584 q 595 734 587 663 q 571 831 601 793 q 486 871 541 868 q 372 829 421 872 q 311 716 323 785 l 216 172 q 365 117 267 118 q 497 165 441 117 q 563 291 552 214 q 542 407 572 359 q 452 458 512 454 l 363 458 l 380 583 l 428 583 z "},"γ":{"ha":690,"x_min":81,"x_max":727,"o":"m 310 216 l 555 734 l 727 734 l 357 19 l 304 -283 l 144 -283 l 200 41 l 81 734 l 241 734 l 310 216 z "},"δ":{"ha":770,"x_min":38,"x_max":732,"o":"m 218 848 q 302 1007 222 949 q 502 1065 382 1066 q 679 1030 575 1063 l 665 897 q 503 934 575 935 q 415 912 452 934 q 372 852 379 890 q 438 763 362 800 l 468 749 q 706 365 732 633 l 704 351 q 638 160 690 245 q 506 29 587 75 q 327 -14 425 -17 q 167 34 233 -12 q 69 162 100 80 q 47 344 38 243 q 134 559 60 473 q 315 665 208 646 l 315 675 q 240 747 267 701 q 218 848 214 792 m 210 349 q 208 273 205 313 q 243 160 210 203 q 336 116 277 118 q 472 178 416 114 q 547 370 528 242 q 522 519 556 456 q 422 603 487 583 q 283 538 339 601 q 211 359 227 475 l 210 349 z "},"ε":{"ha":743,"x_min":27,"x_max":696,"o":"m 32 201 q 195 382 39 326 q 126 441 153 404 q 101 527 100 478 q 196 690 104 631 q 427 747 287 749 q 622 683 547 743 q 696 525 696 623 l 538 526 q 504 595 538 570 q 416 619 469 619 q 311 593 356 621 q 258 520 265 566 q 366 434 245 438 l 507 433 l 486 316 l 364 317 q 245 288 290 317 q 194 209 200 259 q 223 140 189 166 q 321 111 258 113 q 430 139 382 110 q 488 218 478 168 l 649 218 q 599 92 643 145 q 480 12 555 39 q 319 -14 405 -15 q 107 47 187 -11 q 32 201 27 104 z "},"ζ":{"ha":698,"x_min":69,"x_max":749,"o":"m 749 987 l 730 882 l 397 541 q 249 228 244 375 q 314 140 251 164 l 433 98 q 518 43 494 76 q 541 -39 543 10 q 383 -262 534 -151 l 300 -190 l 330 -158 q 380 -70 372 -109 q 334 -14 387 -33 l 254 11 q 88 255 69 73 q 155 450 98 349 q 333 671 213 551 l 520 855 l 150 855 l 173 987 l 749 987 z "},"η":{"ha":770,"x_min":12,"x_max":699,"o":"m 286 734 l 272 644 q 488 747 366 750 q 648 673 597 745 q 686 471 699 601 l 559 -281 l 398 -281 l 526 470 q 527 526 529 500 q 427 615 517 613 q 266 533 334 618 l 173 0 l 12 0 l 139 734 l 286 734 z "},"θ":{"ha":786,"x_min":73,"x_max":737,"o":"m 331 -14 q 140 78 206 -11 q 75 326 73 166 q 81 425 75 376 l 102 563 q 232 893 135 781 q 480 1001 329 1004 q 671 910 606 998 q 736 665 737 822 q 730 566 736 614 l 707 416 q 576 93 671 203 q 331 -14 481 -17 m 257 559 l 567 559 q 581 703 581 648 q 470 869 578 865 q 272 637 323 875 l 257 559 m 553 429 l 243 429 q 230 290 229 340 q 258 163 230 208 q 340 117 287 119 q 538 351 485 109 l 553 429 z "},"ι":{"ha":456,"x_min":75,"x_max":354,"o":"m 333 734 l 244 205 l 244 175 q 297 130 246 132 q 354 136 323 130 l 343 7 q 242 -7 293 -8 q 116 50 158 -5 q 83 198 75 105 l 172 734 l 333 734 z "},"λ":{"ha":750,"x_min":-60,"x_max":666,"o":"m 277 1037 q 435 922 402 1034 l 592 187 q 608 148 597 166 q 642 126 618 130 l 654 126 l 666 127 l 657 -5 q 600 -11 629 -11 q 497 25 536 -9 q 439 132 458 60 l 368 482 l 122 0 l -60 0 l 321 714 l 290 844 q 268 887 282 871 q 224 903 254 902 l 206 904 l 188 903 l 197 1028 q 277 1037 239 1038 z "},"ξ":{"ha":693,"x_min":42,"x_max":720,"o":"m 682 842 q 539 868 599 868 q 404 837 455 868 q 344 753 352 806 q 509 633 326 635 l 600 633 l 576 498 l 490 499 q 302 447 374 499 q 218 299 231 395 q 244 192 211 236 q 342 128 277 147 l 431 103 l 463 93 q 572 -45 577 52 q 528 -158 568 -101 q 414 -268 487 -216 l 327 -196 l 359 -163 q 410 -73 404 -114 q 372 -22 414 -39 l 343 -12 q 190 47 235 23 q 56 298 42 124 q 125 463 63 394 q 304 570 188 532 q 214 643 247 597 q 184 749 182 690 q 287 935 190 867 q 533 1002 385 1002 q 720 970 628 1002 l 682 842 z "},"π":{"ha":840,"x_min":63,"x_max":842,"o":"m 820 605 l 715 605 l 648 206 q 647 176 646 189 q 701 130 651 132 q 759 136 727 130 l 747 7 q 646 -7 701 -7 q 520 49 562 -6 q 488 198 479 104 l 554 605 l 337 605 l 232 0 l 71 0 l 176 605 l 63 605 l 86 734 l 842 734 l 820 605 z "},"ρ":{"ha":770,"x_min":-36,"x_max":703,"o":"m 79 389 q 121 533 90 465 q 201 650 152 601 q 439 747 298 751 q 627 666 559 745 q 701 452 694 587 q 698 358 703 405 l 689 302 q 575 66 659 151 q 372 -14 492 -18 q 191 68 257 -12 l 125 -282 l -36 -282 l 79 389 m 210 195 q 334 117 245 119 q 467 175 414 115 q 535 344 521 236 q 541 465 543 423 q 506 578 535 541 q 425 616 477 614 q 304 553 352 618 q 239 378 256 488 l 210 195 z "},"ς":{"ha":717,"x_min":40,"x_max":684,"o":"m 425 747 q 615 668 547 745 q 678 470 684 592 l 528 471 q 502 576 531 538 q 416 616 473 613 q 284 553 338 618 q 214 377 229 488 l 212 353 q 354 134 193 193 l 428 107 q 532 -31 536 66 q 488 -144 530 -86 q 373 -254 446 -202 l 291 -182 l 319 -152 q 370 -59 364 -102 q 360 -23 373 -37 q 309 1 348 -9 q 105 132 170 43 q 53 353 40 220 l 54 366 q 177 646 74 541 q 425 747 281 751 z "},"σ":{"ha":775,"x_min":38,"x_max":818,"o":"m 793 601 l 618 599 q 696 348 707 483 l 694 333 q 632 154 683 235 q 500 29 581 74 q 326 -14 419 -16 q 165 37 231 -12 q 68 171 98 85 q 49 357 38 256 l 50 368 q 177 636 73 538 q 431 734 280 734 l 818 734 l 793 601 m 210 355 q 208 277 206 318 q 243 160 210 202 q 334 117 275 118 q 463 173 410 115 q 535 343 516 231 l 540 375 q 543 450 544 410 q 507 559 539 519 q 418 602 475 600 q 282 542 336 604 q 210 355 228 480 z "},"τ":{"ha":710,"x_min":75,"x_max":718,"o":"m 695 603 l 458 603 l 390 201 l 389 174 q 431 123 389 123 q 495 137 454 123 l 509 15 q 389 -13 454 -14 q 264 46 305 -12 q 232 206 222 104 l 298 603 l 75 603 l 98 734 l 718 734 l 695 603 z "},"υ":{"ha":743,"x_min":59,"x_max":693,"o":"m 303 734 l 229 286 l 226 234 q 244 150 224 182 q 303 117 264 118 q 470 239 404 113 q 527 563 536 365 q 500 735 523 650 l 654 734 q 686 474 693 620 q 623 197 675 304 q 486 36 570 91 q 298 -16 402 -18 q 121 59 184 -14 q 66 262 59 132 l 68 288 l 142 734 l 303 734 z "},"φ":{"ha":985,"x_min":34,"x_max":942,"o":"m 343 -8 q 104 131 182 16 q 51 389 34 237 q 116 587 64 497 q 260 739 169 677 l 352 637 q 238 475 275 566 q 209 300 201 385 q 254 187 216 233 q 357 124 292 142 l 434 562 q 500 691 444 641 q 640 739 556 741 q 802 689 731 738 q 907 557 873 640 q 932 378 942 474 q 801 110 915 213 q 504 -10 686 7 l 445 -324 l 284 -324 l 343 -8 m 522 121 q 707 228 639 146 q 774 425 776 309 q 738 562 772 513 q 644 606 703 610 q 600 567 608 604 l 522 121 z "},"ψ":{"ha":981,"x_min":43,"x_max":962,"o":"m 628 734 l 517 122 q 681 207 616 145 q 769 361 746 269 q 784 568 792 452 q 754 735 778 654 l 905 734 q 941 568 934 654 q 800 114 962 267 q 503 -11 685 6 l 444 -324 l 283 -324 l 342 -8 q 116 125 190 15 q 64 402 43 235 l 120 734 l 281 734 l 225 400 q 221 312 219 355 q 258 191 223 239 q 357 124 293 143 l 467 734 l 628 734 z "},"ω":{"ha":1114,"x_min":57,"x_max":1053,"o":"m 374 733 l 319 630 q 241 450 265 529 q 216 283 218 372 q 236 160 214 202 q 300 117 259 119 q 405 167 362 113 q 460 325 447 221 l 496 546 l 662 546 l 627 325 q 623 241 621 274 l 624 222 q 712 117 635 119 q 811 172 770 115 q 871 345 852 229 l 878 388 q 882 564 890 476 q 843 736 873 652 l 996 734 q 1040 564 1031 652 q 1014 271 1053 414 q 897 55 975 127 q 708 -14 819 -17 q 585 28 636 -13 q 517 137 533 68 q 283 -14 427 -19 q 115 67 174 -12 q 58 292 57 146 q 209 733 58 530 l 374 733 z "},"ϑ":{"ha":798,"x_min":54,"x_max":790,"o":"m 783 406 q 693 385 744 393 l 680 306 q 560 68 655 153 q 329 -14 465 -18 q 180 30 243 -12 q 85 143 116 71 q 64 303 54 216 l 96 500 l 253 502 l 220 302 q 245 173 211 221 q 345 123 279 125 q 517 313 481 118 l 530 389 q 337 512 406 418 q 278 733 269 606 q 366 933 291 863 q 548 1002 440 1004 q 706 925 651 999 q 748 734 760 852 l 713 525 l 790 541 l 783 406 m 433 737 q 547 533 420 585 l 585 745 l 587 782 q 530 859 587 858 q 467 832 492 861 q 434 751 441 804 l 433 737 z "},"ϒ":{"ha":762,"x_min":74,"x_max":872,"o":"m 395 527 l 582 857 q 671 972 625 939 q 777 1003 718 1004 q 872 985 817 1002 l 836 852 l 802 857 q 728 808 758 854 l 451 350 l 391 0 l 224 0 l 288 368 l 174 808 q 122 852 160 850 q 85 850 111 853 l 74 983 q 158 999 115 999 q 319 859 277 996 l 395 527 z "},"ϖ":{"ha":1092,"x_min":59,"x_max":1126,"o":"m 1103 610 l 1021 610 l 1023 499 q 1002 306 1022 406 q 941 132 981 207 q 840 21 900 58 q 705 -14 780 -16 q 579 28 632 -13 q 510 140 526 68 q 271 -15 419 -20 q 114 67 168 -12 q 63 297 59 147 q 147 612 66 471 l 70 610 l 93 734 l 1126 734 l 1103 610 m 865 499 q 859 610 864 554 l 315 611 q 245 445 266 518 q 221 288 225 372 q 290 117 214 121 q 394 163 351 113 q 453 321 437 214 l 477 479 l 643 479 l 620 325 q 616 239 614 275 q 711 117 623 119 q 847 315 810 114 q 865 499 865 418 z "},"Ђ":{"ha":1016,"x_min":98,"x_max":958,"o":"m 846 849 l 522 849 l 469 580 q 640 605 565 606 q 875 521 791 604 q 947 302 958 439 q 829 73 935 155 q 551 -10 723 -9 l 564 119 q 713 169 658 122 q 779 298 768 215 q 749 416 787 372 q 628 463 710 460 q 454 443 553 465 l 374 0 l 207 0 l 354 849 l 98 849 l 123 987 l 870 987 l 846 849 z "},"Є":{"ha":907,"x_min":70,"x_max":880,"o":"m 809 322 q 672 76 787 168 q 395 -14 558 -16 q 230 31 301 -12 q 119 155 159 74 q 74 340 79 236 q 93 550 70 417 q 182 790 116 684 q 344 949 248 896 q 555 1001 440 1003 q 787 909 701 998 q 880 660 872 819 l 713 660 q 668 814 710 767 q 547 863 627 861 q 373 795 445 867 q 260 564 301 724 l 599 565 l 574 428 l 244 428 l 238 361 q 277 188 234 250 q 404 122 319 125 q 559 169 498 118 q 646 320 621 220 l 809 322 z "},"Љ":{"ha":1443,"x_min":-37,"x_max":1381,"o":"m 890 630 l 1075 629 q 1240 587 1168 627 q 1347 477 1312 547 q 1374 320 1381 408 q 1256 89 1362 177 q 983 0 1149 0 l 614 0 l 761 849 l 469 849 l 393 494 l 372 395 q 242 96 327 189 q 25 0 157 3 l -37 0 l -22 137 l 3 138 q 144 219 89 144 q 227 463 199 295 l 239 538 l 333 987 l 952 987 l 890 630 m 866 492 l 804 137 l 990 136 q 1136 187 1076 137 q 1208 322 1196 237 q 1180 443 1218 397 q 1070 492 1141 489 l 866 492 z "},"Њ":{"ha":1448,"x_min":31,"x_max":1387,"o":"m 296 568 l 716 568 l 789 987 l 956 987 l 890 609 l 1061 608 q 1301 526 1215 608 q 1377 312 1387 444 q 1259 86 1366 172 q 987 0 1153 0 l 618 0 l 692 430 l 273 430 l 198 0 l 31 0 l 202 987 l 369 987 l 296 568 m 867 472 l 809 141 l 995 140 q 1141 189 1082 141 q 1211 314 1200 236 q 1182 427 1220 385 q 1071 471 1143 469 l 867 472 z "},"Ћ":{"ha":1077,"x_min":109,"x_max":971,"o":"m 847 849 l 522 849 l 474 606 q 653 624 562 625 q 891 538 812 621 q 955 309 971 455 l 904 0 l 736 0 l 788 310 q 789 386 793 353 q 646 486 774 482 q 459 469 578 488 l 374 0 l 208 0 l 355 849 l 109 849 l 133 987 l 871 987 l 847 849 z "},"Џ":{"ha":961,"x_min":25,"x_max":952,"o":"m 197 987 l 364 987 l 216 137 l 637 137 l 785 987 l 952 987 l 781 0 l 494 0 l 451 -244 l 283 -244 l 326 0 l 25 0 l 197 987 z "},"Б":{"ha":854,"x_min":24,"x_max":804,"o":"m 779 849 l 338 849 l 297 610 l 469 609 q 709 527 623 608 q 783 313 795 446 q 666 86 772 172 q 395 0 560 0 l 24 0 l 195 987 l 804 987 l 779 849 m 273 472 l 215 137 l 401 136 q 547 186 488 137 q 616 315 606 235 q 588 428 626 387 q 477 471 550 469 l 273 472 z "},"Д":{"ha":1021,"x_min":-84,"x_max":966,"o":"m 867 -243 l 707 -243 l 749 0 l 120 0 l 77 -243 l -84 -243 l -22 137 l 46 135 q 178 295 124 191 q 269 583 231 399 l 361 987 l 966 987 l 819 137 l 941 137 l 867 -243 m 240 134 l 652 137 l 776 849 l 498 849 l 423 519 l 412 475 q 240 134 354 255 z "},"Ж":{"ha":1292,"x_min":-62,"x_max":1367,"o":"m 849 426 l 739 426 l 664 0 l 497 0 l 572 426 l 465 426 l 157 0 l -62 0 l 345 534 l 140 987 l 332 987 l 490 575 l 597 575 l 669 987 l 836 987 l 764 575 l 857 575 l 1155 987 l 1367 987 l 995 519 l 1206 0 l 1008 0 l 849 426 z "},"З":{"ha":821,"x_min":20,"x_max":808,"o":"m 428 570 q 568 611 513 570 q 631 724 623 652 q 596 825 639 787 q 480 865 554 863 q 355 828 410 866 q 289 724 300 790 l 123 724 q 177 867 129 804 q 309 966 225 930 q 488 1000 393 1002 q 724 924 640 997 q 799 725 808 850 q 612 503 787 585 q 710 414 679 472 q 736 282 741 355 q 628 76 728 155 q 373 -12 528 -4 l 337 -13 q 107 67 195 -12 q 25 275 20 145 l 190 274 q 231 165 187 206 q 345 123 275 124 q 495 164 430 120 q 570 282 561 208 q 447 433 589 416 l 422 435 l 300 435 l 323 571 l 428 570 z "},"И":{"ha":960,"x_min":26,"x_max":952,"o":"m 779 987 l 952 987 l 781 0 l 613 0 l 734 693 l 199 0 l 26 0 l 198 987 l 366 987 l 245 294 l 779 987 z "},"Л":{"ha":960,"x_min":-37,"x_max":952,"o":"m 952 987 l 781 0 l 614 0 l 761 849 l 469 849 l 393 494 l 372 395 q 241 94 326 186 q 23 0 155 1 l -37 0 l -22 137 l 1 138 q 141 215 87 143 q 224 450 196 287 l 239 538 l 333 987 l 952 987 z "},"У":{"ha":855,"x_min":105,"x_max":924,"o":"m 450 472 l 731 987 l 924 987 l 456 177 q 333 27 399 72 q 181 -16 267 -17 q 105 -11 149 -16 l 121 125 q 177 121 156 120 q 297 194 252 121 l 343 278 l 142 987 l 317 987 l 450 472 z "},"Ф":{"ha":1080,"x_min":58,"x_max":1055,"o":"m 703 892 q 891 843 811 892 q 1011 705 970 793 q 1043 495 1055 610 q 973 292 1032 384 q 819 146 913 200 q 590 88 713 86 l 572 89 l 545 -41 l 385 -41 l 412 90 q 217 141 297 90 q 97 284 136 193 q 69 483 58 376 q 143 693 81 598 q 307 842 206 789 q 523 894 407 895 l 542 893 l 570 1028 l 726 1028 l 703 892 m 227 483 q 261 300 214 368 q 407 226 308 231 l 427 225 l 526 758 l 511 758 q 320 681 397 756 q 227 483 243 606 m 688 757 l 589 224 l 601 224 q 762 274 692 224 q 865 412 832 323 q 885 592 897 500 q 827 710 875 667 q 705 756 780 753 l 688 757 z "},"Ц":{"ha":1013,"x_min":25,"x_max":952,"o":"m 197 987 l 364 987 l 216 137 l 637 137 l 785 987 l 952 987 l 805 138 l 921 138 l 842 -238 l 688 -238 l 730 0 l 25 0 l 197 987 z "},"Ч":{"ha":939,"x_min":134,"x_max":940,"o":"m 940 987 l 768 0 l 602 0 l 674 389 q 452 362 570 359 q 215 446 296 363 q 151 677 134 528 l 202 987 l 369 987 l 317 677 q 339 546 307 590 q 460 500 372 502 q 689 526 549 498 l 773 987 l 940 987 z "},"Ш":{"ha":1288,"x_min":29,"x_max":1282,"o":"m 368 987 l 221 137 l 512 137 l 659 987 l 827 987 l 679 137 l 968 137 l 1116 987 l 1282 987 l 1111 0 l 29 0 l 200 987 l 368 987 z "},"Щ":{"ha":1350,"x_min":29,"x_max":1282,"o":"m 368 987 l 221 137 l 512 137 l 659 987 l 827 987 l 679 137 l 968 137 l 1116 987 l 1282 987 l 1134 132 l 1246 132 l 1168 -237 l 1021 -237 l 1063 0 l 29 0 l 200 987 l 368 987 z "},"Ъ":{"ha":1034,"x_min":93,"x_max":975,"o":"m 116 987 l 543 987 l 477 610 l 649 609 q 888 528 802 608 q 964 314 975 448 q 847 86 954 172 q 574 0 741 0 l 205 0 l 353 855 l 93 855 l 116 987 m 454 472 l 395 137 l 581 136 q 727 185 668 136 q 797 315 787 235 q 769 427 806 385 q 658 471 732 469 l 454 472 z "},"Ы":{"ha":1181,"x_min":31,"x_max":1170,"o":"m 304 610 l 477 609 q 716 527 631 608 q 791 313 802 446 q 674 86 780 172 q 402 0 568 0 l 31 0 l 203 987 l 370 987 l 304 610 m 281 472 l 222 137 l 408 136 q 555 186 496 137 q 624 315 614 235 q 595 428 633 387 q 485 471 557 469 l 281 472 m 998 0 l 831 0 l 1003 987 l 1170 987 l 998 0 z "},"Ь":{"ha":853,"x_min":24,"x_max":795,"o":"m 297 610 l 469 609 q 709 527 623 608 q 783 313 795 446 q 666 86 772 172 q 395 0 560 0 l 24 0 l 195 987 l 363 987 l 297 610 m 273 472 l 215 137 l 401 136 q 547 186 488 137 q 616 315 606 235 q 588 428 626 387 q 477 471 550 469 l 273 472 z "},"Э":{"ha":901,"x_min":54,"x_max":862,"o":"m 219 321 q 267 170 224 216 q 393 122 309 124 q 564 191 494 119 q 673 424 633 264 l 329 423 l 353 562 l 688 562 l 694 629 q 651 799 696 737 q 522 863 607 861 q 368 814 428 866 q 285 661 309 762 l 119 661 q 258 910 146 817 q 530 1001 370 1004 q 698 956 626 999 q 811 832 770 913 q 858 647 852 750 q 838 431 862 566 q 750 194 814 296 q 592 38 686 91 q 385 -14 498 -16 q 147 78 235 -11 q 54 321 59 166 l 219 321 z "},"Ю":{"ha":1241,"x_min":34,"x_max":1211,"o":"m 726 -14 q 484 97 572 -10 q 396 384 396 204 l 397 410 l 272 410 l 201 0 l 34 0 l 205 987 l 372 987 l 295 543 l 412 543 q 519 812 438 696 q 718 973 600 927 q 878 1001 793 1003 q 1111 900 1024 998 q 1206 634 1198 802 q 1191 441 1211 550 q 1125 241 1172 332 q 1008 89 1078 150 q 726 -14 887 -17 m 1035 520 l 1041 592 q 1028 729 1045 666 q 971 824 1011 791 q 869 859 930 857 q 717 811 783 862 q 610 656 651 760 q 562 396 569 553 q 600 201 555 272 q 734 127 645 130 q 928 215 852 123 q 1028 473 1004 307 l 1035 520 z "},"Я":{"ha":843,"x_min":-54,"x_max":838,"o":"m 498 0 l 563 369 l 383 369 l 134 0 l -54 0 l 239 422 q 140 533 170 467 q 117 681 110 600 q 175 846 124 777 q 313 952 227 916 q 506 988 399 988 l 838 987 l 666 0 l 498 0 m 282 673 q 308 551 272 597 q 422 503 345 505 l 586 502 l 646 849 l 500 850 q 351 803 410 850 q 282 673 292 756 z "},"б":{"ha":763,"x_min":45,"x_max":760,"o":"m 454 693 q 651 597 581 690 q 709 357 721 503 q 591 86 694 190 q 336 -15 488 -18 q 175 36 242 -12 q 76 169 107 84 q 56 355 45 253 l 58 369 l 58 371 l 64 422 q 196 785 98 650 q 452 954 295 920 l 515 966 q 629 1055 615 985 l 760 1055 q 727 943 755 987 q 647 872 699 900 q 494 824 595 844 q 329 749 393 805 q 220 591 264 694 q 454 693 327 694 m 414 562 q 318 537 360 563 q 249 463 275 511 q 216 354 223 416 q 214 264 211 304 q 252 158 218 197 q 345 117 285 119 q 478 174 424 115 q 547 342 532 234 l 548 357 q 522 505 557 451 q 414 562 487 559 z "},"в":{"ha":774,"x_min":23,"x_max":709,"o":"m 23 0 l 151 734 l 431 733 q 598 701 532 730 q 703 536 709 652 q 555 373 696 428 q 645 315 612 356 q 677 215 678 273 q 594 58 673 115 q 377 0 515 2 l 23 0 m 239 313 l 207 130 l 372 130 q 476 157 438 132 q 519 226 513 182 q 502 287 526 264 q 422 312 478 310 l 239 313 m 258 431 l 382 430 q 541 518 526 430 q 520 579 547 557 q 427 602 494 600 l 289 603 l 258 431 z "},"г":{"ha":571,"x_min":16,"x_max":614,"o":"m 590 601 l 281 601 l 177 0 l 16 0 l 144 734 l 614 734 l 590 601 z "},"д":{"ha":842,"x_min":-83,"x_max":762,"o":"m 33 130 q 149 276 105 195 q 214 473 193 357 l 267 734 l 762 734 l 658 132 l 756 132 l 695 -218 l 535 -218 l 573 0 l 118 0 l 80 -218 l -83 -218 l -22 131 l 33 130 m 222 129 l 497 132 l 577 592 l 399 592 l 362 411 q 222 129 319 229 z "},"ж":{"ha":1095,"x_min":-56,"x_max":1119,"o":"m 694 295 l 605 295 l 553 0 l 393 0 l 444 295 l 366 295 l 151 0 l -56 0 l 253 390 l 94 734 l 280 734 l 391 446 l 470 446 l 520 734 l 681 734 l 631 446 l 701 446 l 913 734 l 1119 734 l 828 376 l 996 0 l 806 0 l 694 295 z "},"з":{"ha":695,"x_min":15,"x_max":648,"o":"m 644 538 q 609 448 641 488 q 508 374 577 408 q 580 309 557 351 q 601 213 604 267 q 555 91 597 142 q 440 12 513 39 q 283 -14 368 -16 q 89 52 163 -12 q 18 218 15 116 l 176 218 q 208 142 174 172 q 295 113 241 113 q 395 142 354 113 q 444 220 436 171 q 346 315 458 311 l 221 315 l 242 434 l 348 433 q 440 459 406 435 q 481 530 475 484 q 459 597 486 573 q 387 621 433 621 q 297 596 336 623 q 248 526 258 570 l 87 526 q 179 687 95 626 q 389 747 264 749 q 526 721 467 746 q 617 649 586 696 q 644 538 648 603 z "},"и":{"ha":781,"x_min":17,"x_max":743,"o":"m 578 734 l 743 734 l 616 0 l 455 0 l 539 479 l 182 0 l 17 0 l 144 734 l 305 734 l 221 255 l 578 734 z "},"к":{"ha":753,"x_min":23,"x_max":782,"o":"m 320 290 l 235 290 l 184 0 l 23 0 l 151 734 l 311 734 l 260 441 l 324 441 l 572 734 l 782 734 l 456 374 l 665 0 l 467 0 l 320 290 z "},"л":{"ha":782,"x_min":-44,"x_max":744,"o":"m 744 734 l 617 0 l 456 0 l 560 601 l 361 601 l 294 294 q 189 69 258 138 q 12 0 119 -1 l -44 0 l -29 136 l -5 138 q 96 195 57 144 q 156 365 135 246 l 166 420 l 231 734 l 744 734 z "},"м":{"ha":1019,"x_min":23,"x_max":972,"o":"m 466 204 l 768 734 l 972 734 l 845 0 l 684 0 l 767 473 l 493 0 l 383 0 l 271 495 l 184 0 l 23 0 l 151 734 l 349 734 l 466 204 z "},"н":{"ha":780,"x_min":17,"x_max":743,"o":"m 615 0 l 454 0 l 505 296 l 230 296 l 178 0 l 17 0 l 144 734 l 306 734 l 252 428 l 528 428 l 581 734 l 743 734 l 615 0 z "},"п":{"ha":781,"x_min":17,"x_max":743,"o":"m 616 0 l 454 0 l 559 601 l 283 601 l 178 0 l 17 0 l 144 734 l 743 734 l 616 0 z "},"т":{"ha":673,"x_min":56,"x_max":700,"o":"m 677 603 l 446 603 l 341 0 l 180 0 l 285 603 l 56 603 l 79 734 l 700 734 l 677 603 z "},"ф":{"ha":987,"x_min":41,"x_max":923,"o":"m 363 749 q 456 728 410 747 l 516 1042 l 677 1042 l 616 725 q 712 746 663 747 q 869 663 815 745 q 922 439 923 581 q 918 358 922 396 l 914 334 q 854 142 899 223 q 745 22 809 60 q 605 -15 682 -17 q 503 7 551 -14 l 447 -282 l 286 -282 l 342 5 q 252 -12 300 -12 q 99 61 153 -12 q 42 260 44 135 q 45 338 41 300 l 50 367 q 111 577 67 489 q 219 708 155 665 q 363 749 284 751 m 757 361 q 762 462 763 423 q 661 614 759 609 q 604 607 637 615 l 515 123 q 568 116 542 116 q 757 361 724 116 m 205 338 q 201 246 199 279 q 300 119 208 124 q 354 124 317 119 l 444 610 q 397 617 419 617 q 211 376 251 620 l 205 338 z "},"ц":{"ha":819,"x_min":17,"x_max":743,"o":"m 144 734 l 306 734 l 201 132 l 477 132 l 582 734 l 743 734 l 638 132 l 736 132 l 662 -218 l 515 -218 l 553 0 l 17 0 l 144 734 z "},"ч":{"ha":747,"x_min":76,"x_max":716,"o":"m 589 0 l 428 0 l 475 246 q 348 231 414 231 q 146 307 216 233 q 89 509 76 382 l 125 734 l 286 734 l 250 509 q 249 450 245 476 q 356 364 257 368 q 490 378 412 362 l 555 734 l 716 734 l 589 0 z "},"ш":{"ha":1111,"x_min":17,"x_max":1070,"o":"m 306 734 l 201 132 l 422 132 l 527 734 l 688 734 l 583 132 l 805 132 l 909 734 l 1070 734 l 943 0 l 17 0 l 144 734 l 306 734 z "},"щ":{"ha":1173,"x_min":12,"x_max":1082,"o":"m 300 734 l 195 132 l 417 132 l 522 734 l 682 734 l 578 132 l 800 132 l 905 734 l 1065 734 l 960 132 l 1082 132 l 1008 -218 l 861 -218 l 900 0 l 12 0 l 139 734 l 300 734 z "},"ъ":{"ha":864,"x_min":54,"x_max":807,"o":"m 402 500 l 547 500 q 737 431 667 497 q 801 256 807 366 q 705 71 793 142 q 479 0 617 0 l 155 0 l 259 601 l 54 601 l 77 734 l 443 734 l 402 500 m 380 368 l 338 132 l 485 131 q 589 164 547 132 q 640 252 631 196 q 622 335 648 304 q 545 368 596 365 l 380 368 z "},"ы":{"ha":1090,"x_min":23,"x_max":1031,"o":"m 271 500 l 416 500 q 605 431 535 497 q 669 256 675 366 q 574 71 662 142 q 348 0 486 0 l 23 0 l 151 734 l 311 734 l 271 500 m 248 368 l 207 132 l 353 131 q 458 164 416 132 q 509 252 500 196 q 490 335 516 304 q 413 368 464 365 l 248 368 m 904 0 l 743 0 l 871 734 l 1031 734 l 904 0 z "},"ь":{"ha":749,"x_min":23,"x_max":675,"o":"m 271 500 l 416 500 q 605 431 535 497 q 669 256 675 366 q 574 71 662 142 q 348 0 486 0 l 23 0 l 151 734 l 311 734 l 271 500 m 248 368 l 207 132 l 353 131 q 458 164 416 132 q 509 252 500 196 q 490 335 516 304 q 413 368 464 365 l 248 368 z "},"э":{"ha":720,"x_min":24,"x_max":665,"o":"m 377 616 q 278 582 320 617 q 224 491 235 546 l 73 490 q 124 623 79 564 q 238 716 168 683 q 385 748 308 749 q 542 698 477 745 q 635 566 606 650 q 654 380 665 482 l 652 362 q 589 167 640 254 q 458 32 538 79 q 281 -14 377 -16 q 94 65 165 -11 q 28 262 24 141 l 179 262 q 205 160 176 200 q 290 117 235 120 q 487 315 425 113 l 258 315 l 278 429 l 497 429 q 471 564 503 514 q 377 616 439 614 z "},"ю":{"ha":1104,"x_min":24,"x_max":1053,"o":"m 261 439 l 388 439 q 534 669 436 587 q 762 748 632 751 q 923 698 857 745 q 1021 565 989 650 q 1042 376 1053 479 l 1040 361 q 964 150 1025 243 q 808 15 903 58 q 657 -14 740 -16 q 505 31 572 -12 q 405 146 438 73 q 376 307 371 219 l 239 307 l 185 0 l 24 0 l 152 734 l 313 734 l 261 439 m 538 355 q 536 277 534 317 q 572 162 538 205 q 666 117 605 119 q 804 179 747 113 q 879 361 862 244 l 884 427 q 851 565 884 516 q 753 616 818 613 q 614 552 671 618 q 541 368 557 487 l 538 355 z "},"я":{"ha":754,"x_min":-50,"x_max":709,"o":"m 709 734 l 582 0 l 422 0 l 469 269 l 326 269 l 126 0 l -50 0 l 176 300 q 96 381 122 330 q 73 494 70 432 q 170 669 80 603 q 393 734 259 734 l 709 734 m 233 490 q 252 420 226 446 q 325 392 279 393 l 490 391 l 526 603 l 389 604 q 283 570 326 602 q 233 490 240 538 z "},"ђ":{"ha":755,"x_min":9,"x_max":690,"o":"m 486 812 l 311 812 l 276 653 q 484 747 368 749 q 638 674 587 745 q 677 472 690 602 l 594 -43 q 510 -232 578 -165 q 330 -299 441 -299 q 239 -287 284 -298 l 260 -156 q 326 -167 296 -167 q 433 -35 412 -167 l 517 474 q 518 528 521 503 q 420 613 509 611 q 261 525 330 614 l 170 0 l 9 0 l 149 812 l 45 812 l 66 928 l 170 928 l 189 1042 l 351 1042 l 330 928 l 507 928 l 486 812 z "},"є":{"ha":720,"x_min":40,"x_max":688,"o":"m 329 117 q 432 151 387 116 q 490 242 476 186 l 641 243 q 589 111 633 170 q 472 18 544 52 q 323 -14 399 -16 q 163 35 228 -12 q 69 166 98 82 q 51 353 40 250 l 52 366 q 175 646 72 541 q 429 747 278 751 q 618 668 548 745 q 686 470 688 592 l 536 470 q 505 574 536 536 q 418 616 474 613 q 297 570 347 618 q 217 418 248 523 l 450 419 l 430 305 l 207 305 q 230 169 198 218 q 329 117 262 119 z "},"љ":{"ha":1155,"x_min":-45,"x_max":1089,"o":"m 727 734 l 683 478 l 828 477 q 1019 412 949 474 q 1083 246 1089 350 q 989 67 1076 134 q 764 0 902 0 l 439 0 l 543 601 l 359 601 l 309 370 q 203 85 271 167 q 22 0 135 3 l -45 0 l -31 136 l -6 138 q 94 195 56 144 q 152 352 132 245 l 164 420 l 229 734 l 727 734 m 660 347 l 623 130 l 769 130 q 872 162 829 131 q 923 247 914 193 q 825 346 935 339 l 660 347 z "},"њ":{"ha":1167,"x_min":17,"x_max":1104,"o":"m 257 455 l 533 455 l 581 734 l 743 734 l 698 478 l 843 477 q 1034 412 964 474 q 1098 246 1104 350 q 1005 67 1092 135 q 779 0 918 0 l 454 0 l 510 323 l 235 323 l 178 0 l 17 0 l 144 734 l 306 734 l 257 455 m 675 347 l 637 130 l 784 130 q 889 163 847 131 q 938 247 930 195 q 920 316 945 290 q 840 346 895 342 l 675 347 z "},"ћ":{"ha":770,"x_min":9,"x_max":690,"o":"m 500 817 l 307 817 l 276 653 q 484 747 368 749 q 639 673 589 745 q 677 472 690 600 l 598 0 l 437 0 l 517 474 q 519 528 521 503 q 421 613 510 611 q 261 525 332 614 l 170 0 l 9 0 l 150 817 l 58 817 l 79 932 l 170 932 l 189 1042 l 351 1042 l 330 932 l 520 932 l 500 817 z "},"џ":{"ha":781,"x_min":17,"x_max":743,"o":"m 306 734 l 201 132 l 477 132 l 582 734 l 743 734 l 616 0 l 398 0 l 356 -243 l 195 -243 l 237 0 l 17 0 l 144 734 l 306 734 z "},"Ѡ":{"ha":1234,"x_min":65,"x_max":1246,"o":"m 1246 987 l 1128 291 q 1016 66 1108 150 q 783 -15 923 -18 q 656 16 710 -14 q 576 97 602 45 q 332 -15 480 -18 q 135 73 205 -12 q 79 290 65 157 l 197 987 l 365 987 l 246 290 q 245 232 243 261 q 274 154 248 183 q 345 122 299 124 q 459 164 412 119 q 519 290 505 208 l 637 987 l 808 987 l 689 290 q 689 230 686 259 q 721 152 694 179 q 795 122 748 124 q 903 163 859 120 q 961 290 947 206 l 1080 987 l 1246 987 z "},"ѡ":{"ha":1069,"x_min":46,"x_max":1062,"o":"m 1062 734 l 984 269 q 883 59 965 136 q 677 -15 801 -18 q 567 12 615 -14 q 496 81 519 37 q 281 -14 408 -17 q 106 66 167 -12 q 59 268 46 144 l 137 734 l 298 734 l 220 267 l 218 219 q 237 146 218 174 q 294 117 256 119 q 389 152 350 113 q 441 267 429 191 l 519 734 l 681 734 l 604 267 q 602 216 601 241 q 626 144 604 170 q 688 117 648 117 q 777 155 742 115 q 823 267 812 195 l 901 734 l 1062 734 z "},"ѣ":{"ha":748,"x_min":22,"x_max":679,"o":"m 501 734 l 311 734 l 274 523 l 409 522 q 607 452 534 522 q 671 269 679 383 q 571 71 662 145 q 349 0 480 -3 l 22 0 l 150 734 l 35 734 l 56 850 l 170 850 l 206 1058 l 367 1058 l 330 850 l 522 850 l 501 734 m 252 391 l 206 132 l 353 130 q 460 170 418 132 q 510 266 503 208 q 493 352 517 317 q 416 390 469 387 l 252 391 z "},"Ѥ":{"ha":1212,"x_min":29,"x_max":1193,"o":"m 296 574 l 408 574 q 581 893 463 781 q 869 1002 699 1005 q 1100 910 1015 999 q 1193 661 1185 821 l 1027 661 q 982 814 1023 767 q 861 863 941 861 q 688 797 760 867 q 576 574 617 726 l 903 574 l 880 442 l 562 442 l 555 374 q 589 193 547 259 q 718 125 631 127 q 960 321 907 117 l 1127 322 q 986 76 1101 168 q 709 -13 871 -16 q 545 32 616 -11 q 433 154 474 75 q 389 332 393 233 q 395 443 386 387 l 273 442 l 196 0 l 29 0 l 200 987 l 368 987 l 296 574 z "},"ѥ":{"ha":1018,"x_min":17,"x_max":979,"o":"m 252 424 l 348 424 q 491 668 395 585 q 720 747 587 751 q 909 669 838 745 q 978 470 979 593 l 828 470 q 798 574 828 534 q 709 616 768 613 q 509 423 568 620 l 765 424 l 745 308 l 499 308 q 499 240 496 274 q 557 134 507 167 q 621 117 582 118 q 725 152 681 116 q 781 242 768 187 l 933 243 q 880 110 926 170 q 762 17 833 50 q 614 -14 690 -16 q 405 81 481 -12 q 340 309 328 174 l 231 308 l 178 0 l 17 0 l 144 734 l 306 734 l 252 424 z "},"Ѧ":{"ha":857,"x_min":-56,"x_max":784,"o":"m 574 289 l 489 289 l 439 0 l 290 0 l 340 289 l 269 289 l 124 0 l -56 0 l 456 987 l 618 987 l 784 0 l 617 0 l 574 289 m 332 418 l 555 418 l 504 758 l 332 418 z "},"ѧ":{"ha":743,"x_min":-68,"x_max":646,"o":"m 455 189 l 388 189 l 355 0 l 227 0 l 260 189 l 204 189 l 102 0 l -68 0 l 339 734 l 492 734 l 646 0 l 492 0 l 455 189 m 267 307 l 429 307 l 393 493 l 389 550 l 358 476 l 267 307 z "},"Ѩ":{"ha":1229,"x_min":42,"x_max":1137,"o":"m 281 417 l 515 417 l 809 987 l 972 987 l 1137 0 l 970 0 l 927 289 l 842 289 l 792 0 l 642 0 l 692 289 l 622 289 l 477 0 l 297 0 l 448 290 l 260 290 l 209 0 l 42 0 l 214 987 l 380 987 l 281 417 m 686 418 l 908 418 l 857 758 l 686 418 z "},"ѩ":{"ha":1053,"x_min":33,"x_max":953,"o":"m 246 307 l 409 307 l 646 734 l 799 734 l 953 0 l 796 0 l 760 189 l 696 189 l 663 0 l 534 0 l 567 189 l 511 189 l 410 0 l 239 0 l 345 189 l 227 189 l 193 0 l 33 0 l 159 734 l 321 734 l 246 307 m 574 307 l 736 307 l 700 493 l 696 550 l 665 476 l 574 307 z "},"Ѫ":{"ha":1173,"x_min":14,"x_max":1109,"o":"m 777 545 q 996 461 924 543 q 1052 239 1067 380 l 1013 0 l 846 0 l 885 239 q 867 364 896 321 q 753 410 838 406 l 683 412 l 675 401 l 602 0 l 435 0 l 506 410 l 433 411 q 289 373 342 412 q 220 243 235 334 l 180 0 l 14 0 l 52 239 q 170 470 74 393 q 440 549 266 547 l 452 548 l 285 987 l 1109 987 l 777 545 m 613 562 l 817 848 l 511 848 l 613 562 z "},"ѫ":{"ha":1000,"x_min":15,"x_max":897,"o":"m 15 0 l 33 119 q 131 330 52 257 q 350 412 209 403 l 230 734 l 897 734 l 650 408 q 815 320 761 397 q 855 115 869 243 l 838 0 l 677 0 l 694 115 q 698 181 699 151 q 589 286 694 277 l 565 287 l 561 281 l 509 0 l 349 0 l 401 286 l 376 287 q 254 248 298 287 q 195 123 209 209 l 176 0 l 15 0 m 499 420 l 631 615 l 435 615 l 499 420 z "},"Ѭ":{"ha":1555,"x_min":36,"x_max":1493,"o":"m 395 0 l 435 238 q 509 418 451 346 l 275 416 l 203 0 l 36 0 l 208 987 l 374 987 l 298 550 l 839 550 l 667 987 l 1493 987 l 1158 545 q 1377 461 1305 543 q 1434 239 1449 380 l 1395 0 l 1228 0 l 1267 239 q 1268 312 1272 281 q 1135 410 1256 406 l 1065 412 l 1058 403 l 985 0 l 818 0 l 889 410 l 814 411 q 671 373 725 412 q 602 243 617 334 l 562 0 l 395 0 m 996 560 l 1199 848 l 893 848 l 996 560 z "},"ѭ":{"ha":1350,"x_min":23,"x_max":1246,"o":"m 363 0 l 382 115 q 452 290 400 222 l 234 288 l 184 0 l 23 0 l 151 734 l 311 734 l 256 413 l 705 413 l 579 734 l 1246 734 l 1000 408 q 1163 321 1109 397 q 1204 115 1217 244 l 1187 0 l 1026 0 l 1044 115 q 1047 181 1048 151 q 938 286 1042 279 l 914 287 l 910 281 l 858 0 l 698 0 l 751 286 l 722 286 q 600 245 644 286 q 543 115 556 205 l 525 0 l 363 0 m 848 420 l 980 615 l 785 615 l 848 420 z "},"Ѯ":{"ha":701,"x_min":-58,"x_max":728,"o":"m 285 573 q 425 612 370 573 q 490 723 481 651 q 464 815 498 781 q 357 852 429 848 l 160 852 l 184 987 l 352 987 q 515 955 444 986 q 622 866 586 924 q 652 730 658 809 q 460 504 641 578 q 565 416 530 474 q 595 282 600 358 q 484 65 585 146 q 234 -15 382 -16 l 198 -14 q 92 -89 103 -18 q 172 -201 81 -159 l 111 -302 q -13 -211 32 -274 q -54 -72 -58 -149 q 16 69 -51 18 q 199 120 83 120 l 234 119 q 369 163 311 119 q 436 280 426 207 q 405 394 446 353 q 277 438 364 435 l 174 439 l 197 574 l 285 573 m 471 1203 l 587 1307 l 728 1310 l 728 1299 l 519 1112 l 420 1112 l 262 1299 l 262 1310 l 395 1308 l 471 1203 z "},"ѯ":{"ha":670,"x_min":-51,"x_max":654,"o":"m 263 422 q 433 524 418 426 q 314 608 446 604 l 117 608 l 140 734 l 302 733 q 520 680 441 732 q 595 532 600 628 q 446 363 588 426 q 560 212 563 316 q 466 45 557 104 q 229 -14 374 -14 l 204 -14 q 93 -90 104 -18 q 168 -200 82 -155 l 108 -297 q -7 -206 37 -266 q -48 -72 -51 -146 q 20 63 -45 14 q 194 111 85 111 l 227 111 q 345 138 297 111 q 401 212 393 165 q 259 308 415 303 l 150 308 l 170 422 l 263 422 m 397 956 l 513 1060 l 654 1063 l 654 1051 l 446 865 l 346 865 l 188 1052 l 188 1063 l 320 1061 l 397 956 z "},"Ѳ":{"ha":929,"x_min":66,"x_max":886,"o":"m 401 -14 q 232 33 304 -12 q 118 161 159 77 q 71 352 77 245 q 85 539 66 430 q 151 741 104 649 q 320 936 216 867 q 553 1001 425 1004 q 786 900 699 998 q 882 634 873 802 q 866 441 886 550 q 800 241 847 332 q 683 89 753 150 q 401 -14 562 -17 m 545 859 q 367 787 441 863 q 251 548 293 712 l 712 549 q 718 617 717 581 q 675 793 720 730 q 545 859 630 857 m 410 127 q 587 198 515 123 q 701 434 659 272 l 240 433 q 236 366 236 401 q 281 191 236 253 q 410 127 327 130 z "},"ѳ":{"ha":770,"x_min":37,"x_max":720,"o":"m 47 369 q 112 565 60 476 q 247 702 165 653 q 429 747 330 750 q 591 696 524 745 q 689 563 659 648 q 709 376 720 477 l 708 361 q 642 165 694 253 q 506 31 589 78 q 325 -14 424 -17 q 113 84 189 -11 q 43 328 37 180 l 45 355 l 47 369 m 332 117 q 541 311 475 113 l 203 310 q 232 170 197 221 q 332 117 266 119 m 421 616 q 214 425 282 621 l 551 426 q 522 562 557 511 q 421 616 486 614 z "},"Ѵ":{"ha":866,"x_min":114,"x_max":932,"o":"m 376 260 l 378 193 l 412 273 l 645 781 q 757 952 696 902 q 898 1001 818 1002 l 932 1000 l 915 854 l 903 855 q 800 768 842 855 l 432 0 l 271 0 l 114 987 l 286 987 l 376 260 z "},"ѵ":{"ha":690,"x_min":81,"x_max":741,"o":"m 288 248 l 290 183 l 314 248 l 444 553 q 665 750 524 750 q 741 734 703 750 l 714 603 q 686 608 698 610 q 597 533 635 608 l 334 0 l 194 0 l 81 734 l 237 734 l 288 248 z "},"Ѻ":{"ha":929,"x_min":69,"x_max":882,"o":"m 458 -8 l 439 -94 l 309 -94 l 328 -7 q 140 115 208 18 q 69 365 72 212 l 70 416 q 195 818 82 665 q 492 996 308 970 l 509 1074 l 640 1073 l 623 994 q 809 872 742 970 q 880 619 877 775 q 863 436 882 538 q 721 130 827 245 q 458 -8 614 14 m 715 644 q 606 850 712 806 l 592 783 l 460 784 l 475 852 q 303 703 363 816 q 233 376 243 589 l 233 331 q 344 136 241 177 l 358 202 l 490 201 l 475 135 q 701 468 659 194 q 715 644 717 591 z "},"ѻ":{"ha":770,"x_min":38,"x_max":730,"o":"m 383 742 l 400 817 l 522 817 l 505 741 q 674 615 618 715 q 716 376 730 516 l 715 361 q 607 110 696 209 q 382 -9 518 10 l 366 -82 l 244 -81 l 260 -7 q 93 118 149 20 q 52 355 38 217 l 57 388 q 167 629 81 536 q 383 742 254 722 m 397 126 q 515 237 473 157 q 562 438 557 317 q 490 604 564 563 l 475 538 l 353 538 l 368 606 q 253 495 294 573 q 208 296 212 416 q 276 130 203 173 l 292 201 l 414 201 l 397 126 z "},"Ѽ":{"ha":1231,"x_min":66,"x_max":1191,"o":"m 928 988 q 1123 893 1056 982 q 1175 666 1191 805 l 1118 306 q 1005 70 1097 157 q 776 -15 912 -18 q 651 15 706 -14 q 568 92 595 43 q 328 -14 469 -18 q 183 28 243 -13 q 94 143 122 69 q 77 306 66 217 l 134 666 q 248 901 155 817 q 485 989 340 986 l 469 850 q 360 802 404 849 q 302 666 317 754 l 245 305 q 242 245 241 277 q 268 157 243 189 q 339 122 293 125 q 455 164 408 119 q 515 293 501 210 l 557 553 l 720 553 l 677 290 q 677 228 673 258 q 711 151 682 178 q 788 121 740 123 q 894 166 852 119 q 951 305 936 213 l 1009 667 q 1013 728 1013 697 q 917 848 1010 841 l 928 988 m 1037 1177 l 1031 1085 l 1010 1085 q 932 1100 970 1086 q 856 1129 894 1113 q 780 1157 817 1145 q 706 1169 743 1169 q 650 1150 671 1169 q 622 1098 628 1131 l 621 1085 l 532 1086 l 533 1112 q 583 1223 538 1185 q 700 1260 627 1261 q 763 1252 732 1259 q 855 1219 793 1244 q 949 1186 916 1194 q 1037 1177 983 1177 m 623 924 q 665 978 652 957 q 684 1024 678 999 l 696 1088 l 808 1087 l 799 1018 q 680 881 787 943 l 623 924 z "},"ѽ":{"ha":1062,"x_min":51,"x_max":1000,"o":"m 767 743 q 897 702 844 739 q 976 597 951 664 q 991 447 1000 531 l 969 286 q 869 62 949 142 q 669 -15 789 -18 q 561 12 608 -14 q 489 83 513 37 q 283 -14 402 -17 q 110 70 169 -12 q 64 281 51 152 l 89 456 q 206 678 111 603 q 406 744 287 742 l 391 612 q 250 452 277 607 l 226 280 l 223 231 q 239 150 220 182 q 294 117 258 118 q 386 154 349 113 q 435 267 424 194 l 456 402 l 612 402 l 593 267 q 592 216 590 241 q 617 144 594 171 q 681 116 641 117 q 762 155 729 114 q 807 276 795 197 l 833 458 l 836 500 q 817 576 837 547 q 758 609 797 605 l 767 743 m 933 941 l 927 849 l 905 849 q 828 863 865 850 q 751 892 791 876 q 674 921 710 909 q 600 933 637 933 q 545 914 566 933 q 517 862 523 895 l 515 849 l 426 850 l 427 876 q 477 987 433 949 q 594 1024 521 1025 q 657 1016 627 1023 q 752 982 688 1008 q 847 948 817 956 q 933 941 878 941 m 519 686 q 581 787 570 744 l 592 850 l 705 850 l 696 781 q 576 644 685 706 l 519 686 z "},"Ѿ":{"ha":1234,"x_min":65,"x_max":1246,"o":"m 1246 987 l 1127 291 q 1015 65 1107 150 q 783 -16 922 -19 q 656 15 711 -15 q 576 97 602 44 q 332 -16 479 -18 q 134 74 202 -12 q 79 290 65 159 l 197 987 l 364 987 l 245 290 q 244 232 242 261 q 273 153 248 182 q 344 122 298 124 q 458 164 412 119 q 518 290 505 208 l 637 987 l 807 987 l 688 290 q 688 230 685 259 q 720 152 693 179 q 794 122 747 124 q 902 163 857 120 q 960 290 946 205 l 1079 987 l 1246 987 m 469 1144 l 484 1227 l 1046 1227 l 1032 1144 l 805 1144 l 789 1058 l 669 1058 l 685 1144 l 469 1144 z "},"ѿ":{"ha":1069,"x_min":46,"x_max":1062,"o":"m 1062 734 l 984 269 q 883 58 965 134 q 677 -15 800 -18 q 567 12 615 -14 q 496 81 519 37 q 281 -15 407 -18 q 106 67 167 -12 q 59 268 46 146 l 137 734 l 298 734 l 220 267 l 218 219 q 237 146 218 174 q 294 117 256 119 q 389 153 350 115 q 441 263 428 191 l 519 734 l 681 734 l 604 267 q 602 216 601 241 q 626 144 604 170 q 688 117 648 117 q 777 155 742 115 q 823 267 812 195 l 901 734 l 1062 734 m 360 905 l 375 988 l 918 988 l 905 905 l 687 905 l 671 819 l 551 819 l 566 905 l 360 905 z "},"Ҁ":{"ha":866,"x_min":58,"x_max":853,"o":"m 430 -252 l 264 -252 l 311 -8 q 167 67 226 9 q 83 212 109 124 q 71 398 58 299 l 100 580 q 249 890 130 774 q 531 1002 367 1005 q 769 909 686 999 q 845 663 853 819 l 678 664 q 522 864 690 859 q 356 789 425 866 q 266 577 288 713 l 235 382 l 233 339 q 271 183 231 241 q 382 123 310 126 l 495 123 l 430 -252 z "},"ҁ":{"ha":729,"x_min":47,"x_max":692,"o":"m 372 -254 l 211 -254 l 258 -7 q 100 117 153 19 q 62 353 47 214 l 62 360 q 186 645 82 538 q 435 747 290 751 q 622 668 551 745 q 688 470 692 591 l 536 471 q 511 573 540 532 q 426 616 481 613 q 294 553 349 619 q 224 377 239 488 l 217 305 q 241 171 212 221 q 330 119 271 121 l 437 117 l 372 -254 z "},"҂":{"ha":848,"x_min":38,"x_max":821,"o":"m 380 298 l 550 182 l 493 102 l 321 218 l 163 0 l 38 0 l 237 276 l 67 392 l 124 471 l 296 355 l 477 607 l 306 723 l 364 804 l 536 688 l 696 909 l 821 910 l 618 629 l 791 513 l 731 435 l 562 549 l 380 298 z "},"҃":{"ha":0,"x_min":-538,"x_max":-20,"o":"m -406 890 l -420 804 l -538 805 l -509 966 l -151 966 l -138 1040 l -20 1039 l -47 890 l -406 890 z "},"҄":{"ha":0,"x_min":-511,"x_max":-9,"o":"m -155 1055 q -48 1017 -87 1053 q -12 910 -9 980 l -14 883 l -102 884 l -100 897 q -155 963 -96 960 q -211 959 -183 964 q -331 920 -239 954 q -466 884 -422 887 l -511 883 l -504 975 q -424 981 -454 975 q -324 1014 -395 987 q -220 1047 -253 1040 q -155 1055 -187 1055 z "},"҅":{"ha":0,"x_min":-318,"x_max":-172,"o":"m -318 1025 l -303 1107 l -178 1107 l -198 996 l -172 922 l -227 882 l -318 1025 z "},"҆":{"ha":0,"x_min":-307,"x_max":-112,"o":"m -254 884 l -307 937 l -253 1014 l -237 1107 l -112 1107 l -129 1010 l -254 884 z "},"҈":{"ha":0,"x_min":-998,"x_max":281,"o":"m -414 859 q -371 954 -409 919 q -272 987 -334 988 q -176 952 -213 987 q -139 858 -139 916 l -212 859 q -262 928 -208 928 q -338 860 -320 929 l -414 859 m -58 671 q -15 765 -53 730 q 83 800 22 800 q 180 764 144 799 q 218 670 216 730 l 144 671 q 94 740 148 740 q 18 672 38 740 l -58 671 m 6 330 q 49 424 12 389 q 148 458 86 458 q 243 422 208 457 q 281 329 279 388 l 208 330 q 157 399 212 399 q 81 331 101 400 l 6 330 m -184 -22 q -140 73 -178 38 q -43 106 -102 107 q 53 71 17 105 q 90 -23 89 36 l 18 -22 q -33 47 21 47 q -109 -21 -89 48 l -184 -22 m -597 -214 q -554 -120 -592 -154 q -454 -86 -516 -85 q -359 -122 -395 -87 q -321 -216 -323 -157 l -394 -215 q -445 -146 -391 -146 q -522 -214 -501 -144 l -597 -214 m -824 671 q -781 766 -819 732 q -681 800 -743 800 q -585 764 -622 800 q -548 670 -548 728 l -621 671 q -671 740 -617 740 q -747 672 -728 740 l -824 671 m -998 330 q -955 424 -992 389 q -856 458 -918 458 q -760 422 -796 457 q -723 329 -724 388 l -795 330 q -846 399 -792 399 q -923 331 -903 400 l -998 330 m -949 -22 q -906 72 -944 37 q -808 106 -869 106 q -712 71 -748 105 q -674 -23 -675 36 l -747 -22 q -798 47 -744 47 q -874 -21 -854 48 l -949 -22 z "},"҉":{"ha":0,"x_min":-966,"x_max":252,"o":"m -366 -39 l -357 -52 l -473 -280 l -542 -280 l -457 -41 l -366 -39 m -346 762 l -355 774 l -240 1002 l -171 1002 l -256 764 l -346 762 m 33 429 l 39 435 l 252 349 l 241 288 l 24 334 l 33 429 m -747 293 l -754 286 l -966 373 l -955 434 l -739 388 l -747 293 m -78 680 l -76 692 l 148 795 l 191 742 l -16 613 l -78 680 m -641 14 l -643 1 l -867 -102 l -910 -48 l -703 81 l -641 14 m -629 583 l -640 584 l -705 814 l -661 854 l -559 648 l -629 583 m -92 109 l -80 109 l -16 -121 l -61 -162 l -161 44 l -92 109 z "},"Ҋ":{"ha":1045,"x_min":26,"x_max":952,"o":"m 779 987 l 952 987 l 781 0 l 613 0 l 734 693 l 199 0 l 26 0 l 198 987 l 366 987 l 245 294 l 779 987 m 818 1240 q 748 1098 811 1150 q 593 1048 685 1046 q 450 1102 504 1050 q 396 1240 396 1154 l 515 1240 q 593 1145 512 1145 q 665 1171 639 1145 q 699 1239 690 1198 l 818 1240 m 756 -262 l 670 -208 q 768 -20 750 -100 l 793 120 l 938 120 l 920 11 q 756 -262 893 -157 z "},"ҋ":{"ha":867,"x_min":17,"x_max":774,"o":"m 578 734 l 743 734 l 616 0 l 455 0 l 539 479 l 182 0 l 17 0 l 144 734 l 305 734 l 221 255 l 578 734 m 692 1016 q 622 873 685 926 q 467 824 559 821 q 324 877 378 825 q 270 1016 270 929 l 389 1015 q 467 920 386 920 q 538 947 513 920 q 572 1015 564 973 l 692 1016 m 593 -262 l 507 -208 q 605 -20 587 -100 l 630 120 l 774 120 l 757 11 q 593 -262 730 -157 z "},"ҍ":{"ha":748,"x_min":22,"x_max":679,"o":"m 525 871 l 334 871 l 274 523 l 409 522 q 607 452 534 522 q 671 269 679 383 q 571 71 662 145 q 349 0 480 -3 l 22 0 l 174 871 l 59 871 l 79 987 l 193 987 l 215 1108 l 376 1108 l 355 987 l 545 987 l 525 871 m 252 391 l 206 132 l 353 130 q 460 170 418 132 q 510 266 503 208 q 493 352 517 317 q 416 390 469 387 l 252 391 z "},"Ҏ":{"ha":861,"x_min":26,"x_max":871,"o":"m 258 367 l 194 0 l 26 0 l 198 987 l 539 987 q 783 902 695 987 q 859 678 871 817 q 745 458 846 546 l 810 363 l 733 302 l 663 404 q 459 367 575 367 l 258 367 m 651 586 q 688 677 681 632 q 662 799 701 752 q 550 848 624 846 l 341 849 l 281 505 l 472 505 q 573 522 520 506 l 513 614 l 591 674 l 651 586 z "},"ҏ":{"ha":768,"x_min":-39,"x_max":705,"o":"m 578 88 l 633 1 l 556 -59 l 503 22 q 367 -13 436 -14 q 189 66 255 -12 l 123 -282 l -39 -282 l 138 734 l 285 734 l 273 659 q 473 747 357 750 q 639 670 579 745 q 703 463 699 595 q 700 378 705 419 l 696 353 q 578 88 673 191 m 542 454 q 509 569 541 526 q 420 613 478 612 q 264 530 330 616 l 206 202 q 327 119 237 121 q 416 142 367 119 l 361 231 l 439 292 l 486 221 q 536 363 524 287 q 542 454 543 413 z "},"Ґ":{"ha":750,"x_min":23,"x_max":846,"o":"m 791 855 l 786 855 l 785 849 l 338 849 l 191 0 l 23 0 l 195 987 l 648 987 l 690 1226 l 846 1226 l 791 855 z "},"ґ":{"ha":618,"x_min":12,"x_max":659,"o":"m 600 601 l 277 601 l 173 0 l 12 0 l 139 734 l 462 734 l 499 946 l 659 946 l 600 601 z "},"Ҕ":{"ha":840,"x_min":31,"x_max":811,"o":"m 787 849 l 345 849 l 296 566 l 399 566 q 594 514 513 563 q 711 378 675 466 q 736 176 747 290 q 614 -106 718 -1 q 339 -214 510 -210 l 351 -87 q 562 106 513 -83 q 574 269 583 193 q 520 385 566 344 q 394 429 475 426 l 272 429 l 198 0 l 31 0 l 202 987 l 811 987 l 787 849 z "},"ҕ":{"ha":701,"x_min":12,"x_max":609,"o":"m 585 601 l 277 601 l 250 446 l 294 445 q 464 402 391 443 q 573 288 538 361 q 600 123 609 216 q 508 -75 590 13 q 303 -196 425 -163 l 258 -75 q 438 124 418 -20 q 408 255 448 206 q 289 307 368 304 l 227 308 l 173 0 l 12 0 l 139 734 l 609 734 l 585 601 z "},"Җ":{"ha":1373,"x_min":-62,"x_max":1367,"o":"m 849 426 l 739 426 l 664 0 l 497 0 l 572 426 l 465 426 l 157 0 l -62 0 l 345 534 l 140 987 l 332 987 l 490 575 l 597 575 l 669 987 l 836 987 l 764 575 l 857 575 l 1155 987 l 1367 987 l 995 519 l 1206 0 l 1008 0 l 849 426 m 1238 -243 l 1077 -243 l 1141 123 l 1302 123 l 1238 -243 z "},"җ":{"ha":1156,"x_min":-56,"x_max":1119,"o":"m 694 295 l 605 295 l 553 0 l 393 0 l 444 295 l 366 295 l 151 0 l -56 0 l 253 390 l 94 734 l 280 734 l 391 446 l 470 446 l 520 734 l 681 734 l 631 446 l 701 446 l 913 734 l 1119 734 l 828 376 l 996 0 l 806 0 l 694 295 m 1017 -243 l 856 -243 l 920 123 l 1081 123 l 1017 -243 z "},"Қ":{"ha":983,"x_min":31,"x_max":951,"o":"m 389 423 l 271 423 l 198 0 l 31 0 l 202 987 l 369 987 l 297 572 l 382 572 l 736 987 l 951 987 l 534 507 l 798 0 l 608 0 l 389 423 m 814 -243 l 652 -243 l 716 123 l 878 123 l 814 -243 z "},"қ":{"ha":845,"x_min":23,"x_max":782,"o":"m 320 290 l 235 290 l 184 0 l 23 0 l 151 734 l 311 734 l 260 441 l 324 441 l 572 734 l 782 734 l 456 374 l 665 0 l 467 0 l 320 290 m 690 -243 l 528 -243 l 592 123 l 753 123 l 690 -243 z "},"Ҝ":{"ha":878,"x_min":24,"x_max":957,"o":"m 957 987 l 615 519 l 803 0 l 601 0 l 477 421 l 433 422 l 402 263 l 294 263 l 322 421 l 264 421 l 191 0 l 24 0 l 195 987 l 363 987 l 290 571 l 347 571 l 378 743 l 486 743 l 452 570 l 486 570 l 745 987 l 957 987 z "},"ҝ":{"ha":793,"x_min":22,"x_max":833,"o":"m 833 734 l 558 376 l 713 0 l 518 0 l 427 290 l 395 291 l 371 170 l 268 170 l 290 290 l 233 290 l 182 0 l 22 0 l 150 734 l 310 734 l 259 441 l 315 441 l 339 576 l 442 576 l 414 439 l 437 439 l 626 734 l 833 734 z "},"Ҡ":{"ha":1115,"x_min":111,"x_max":1196,"o":"m 633 423 l 515 423 l 441 0 l 275 0 l 422 854 l 111 854 l 135 987 l 612 987 l 541 572 l 625 572 l 980 987 l 1196 987 l 777 507 l 1042 0 l 852 0 l 633 423 z "},"ҡ":{"ha":957,"x_min":73,"x_max":995,"o":"m 532 290 l 447 290 l 397 0 l 236 0 l 340 601 l 73 601 l 96 734 l 524 734 l 473 441 l 537 441 l 785 734 l 995 734 l 668 374 l 877 0 l 680 0 l 532 290 z "},"Ң":{"ha":1044,"x_min":26,"x_max":960,"o":"m 788 0 l 621 0 l 697 439 l 270 439 l 194 0 l 26 0 l 198 987 l 366 987 l 294 576 l 721 576 l 792 987 l 960 987 l 788 0 m 874 -243 l 713 -243 l 777 123 l 938 123 l 874 -243 z "},"ң":{"ha":857,"x_min":17,"x_max":766,"o":"m 615 0 l 454 0 l 505 296 l 230 296 l 178 0 l 17 0 l 144 734 l 306 734 l 252 428 l 528 428 l 581 734 l 743 734 l 615 0 m 702 -243 l 541 -243 l 604 123 l 766 123 l 702 -243 z "},"Ҥ":{"ha":1322,"x_min":26,"x_max":1367,"o":"m 294 576 l 721 576 l 792 987 l 1367 987 l 1343 855 l 937 855 l 788 0 l 621 0 l 697 439 l 270 439 l 194 0 l 26 0 l 198 987 l 366 987 l 294 576 z "},"ҥ":{"ha":961,"x_min":12,"x_max":967,"o":"m 247 428 l 523 428 l 576 734 l 967 734 l 943 601 l 714 601 l 610 0 l 449 0 l 500 296 l 224 296 l 173 0 l 12 0 l 139 734 l 300 734 l 247 428 z "},"Ҧ":{"ha":1400,"x_min":31,"x_max":1306,"o":"m 883 564 l 958 564 q 1153 513 1072 562 q 1270 377 1234 465 q 1295 174 1306 289 q 1173 -107 1276 -3 q 898 -216 1069 -212 l 910 -89 q 1120 104 1072 -85 q 1133 268 1142 191 q 1079 384 1124 342 q 953 427 1034 425 l 859 427 l 785 0 l 618 0 l 766 849 l 345 849 l 198 0 l 31 0 l 202 987 l 957 987 l 883 564 z "},"ҧ":{"ha":1179,"x_min":12,"x_max":1097,"o":"m 688 448 l 753 447 q 1006 357 915 446 q 1084 125 1097 269 q 991 -74 1074 13 q 787 -193 909 -161 l 743 -73 q 869 7 825 -44 q 922 126 914 59 q 889 257 932 208 q 760 310 846 307 l 665 311 l 610 0 l 450 0 l 553 601 l 277 601 l 173 0 l 12 0 l 139 734 l 738 734 l 688 448 z "},"Ҩ":{"ha":1045,"x_min":68,"x_max":1015,"o":"m 918 -16 q 665 33 776 -11 q 439 -14 549 -16 q 262 31 341 -12 q 134 153 183 74 q 75 334 85 233 q 77 452 68 393 l 94 568 q 231 885 125 770 q 489 1003 337 1000 l 473 859 q 345 788 397 858 q 272 591 293 718 q 247 422 250 463 q 248 341 244 382 q 308 188 256 245 q 446 130 360 132 q 513 135 479 130 q 427 486 401 298 l 448 628 q 514 829 465 739 q 631 961 564 918 q 778 1001 698 1003 q 938 927 876 998 q 1012 734 999 857 l 1015 696 q 1010 610 1015 652 l 987 463 q 806 132 954 263 q 930 121 859 122 l 918 -16 m 583 406 q 609 292 585 345 q 674 201 632 240 q 821 471 791 297 l 844 624 q 851 714 851 680 q 765 859 851 854 q 612 651 649 864 l 588 489 q 583 406 582 448 z "},"ҩ":{"ha":848,"x_min":51,"x_max":793,"o":"m 747 -14 q 534 24 625 -11 q 353 -14 441 -15 q 186 40 257 -12 q 83 182 116 92 q 62 374 51 271 l 67 414 q 167 654 85 564 q 378 749 250 745 l 363 612 q 235 427 260 599 l 225 345 l 225 293 q 263 173 229 218 q 360 125 298 127 l 376 125 l 391 127 q 341 376 326 241 l 354 472 q 403 621 366 555 q 492 719 440 688 q 606 748 545 750 q 739 680 689 745 q 792 507 788 614 q 790 440 793 472 l 779 355 q 649 109 756 210 q 753 100 688 101 l 747 -14 m 477 370 q 530 180 466 256 q 618 360 603 249 l 629 448 l 633 507 q 582 612 633 610 q 487 450 507 616 l 477 370 z "},"Ҳ":{"ha":886,"x_min":-41,"x_max":916,"o":"m 458 631 l 714 987 l 916 987 l 544 490 l 760 0 l 574 0 l 425 361 l 161 0 l -41 0 l 339 505 l 128 987 l 313 987 l 458 631 m 753 -243 l 591 -243 l 655 123 l 817 123 l 753 -243 z "},"ҳ":{"ha":726,"x_min":-48,"x_max":707,"o":"m 347 494 l 519 734 l 707 734 l 427 365 l 590 0 l 422 0 l 319 250 l 139 0 l -48 0 l 241 380 l 83 734 l 252 734 l 347 494 m 587 -243 l 426 -243 l 490 123 l 651 123 l 587 -243 z "},"Ҵ":{"ha":1218,"x_min":106,"x_max":1116,"o":"m 338 854 l 106 854 l 130 987 l 762 987 l 738 854 l 506 854 l 381 137 l 802 137 l 949 987 l 1116 987 l 969 138 l 1085 138 l 1007 -238 l 853 -238 l 895 0 l 190 0 l 338 854 z "},"ҵ":{"ha":922,"x_min":58,"x_max":841,"o":"m 220 602 l 58 602 l 81 734 l 548 734 l 524 602 l 380 602 l 299 132 l 575 132 l 680 734 l 841 734 l 736 132 l 833 132 l 760 -218 l 613 -218 l 651 0 l 115 0 l 220 602 z "},"Ҷ":{"ha":1013,"x_min":134,"x_max":940,"o":"m 940 987 l 768 0 l 602 0 l 674 389 q 452 362 570 359 q 215 446 296 363 q 151 677 134 528 l 202 987 l 369 987 l 317 677 q 339 546 307 590 q 460 500 372 502 q 689 526 549 498 l 773 987 l 940 987 m 844 -243 l 682 -243 l 746 123 l 907 123 l 844 -243 z "},"ҷ":{"ha":825,"x_min":76,"x_max":733,"o":"m 589 0 l 428 0 l 475 246 q 348 231 414 231 q 146 307 216 233 q 89 509 76 382 l 125 734 l 286 734 l 250 509 q 249 450 245 476 q 356 364 257 368 q 490 378 412 362 l 555 734 l 716 734 l 589 0 m 669 -243 l 508 -243 l 572 123 l 733 123 l 669 -243 z "},"Ҹ":{"ha":925,"x_min":125,"x_max":930,"o":"m 359 987 l 309 676 q 307 606 304 637 q 430 498 315 510 l 470 701 l 578 701 l 540 503 q 680 526 604 510 l 763 987 l 930 987 l 759 0 l 591 0 l 664 389 q 523 366 609 374 l 492 205 l 383 205 l 415 362 q 197 454 269 370 q 141 677 125 537 l 192 987 l 359 987 z "},"ҹ":{"ha":756,"x_min":90,"x_max":730,"o":"m 603 0 l 441 0 l 488 245 l 409 233 l 389 138 l 281 138 l 302 234 q 143 324 195 250 q 102 509 90 398 l 139 734 l 299 734 l 261 508 l 258 465 q 317 369 256 392 l 353 550 l 461 550 l 425 364 l 504 378 l 569 734 l 730 734 l 603 0 z "},"Һ":{"ha":937,"x_min":16,"x_max":823,"o":"m 16 0 l 187 987 l 355 987 l 282 597 q 504 625 385 627 q 741 540 660 623 q 806 309 823 457 l 754 0 l 587 0 l 638 310 q 617 440 649 396 q 496 487 585 485 q 267 460 401 489 l 183 0 l 16 0 z "},"Ҽ":{"ha":1041,"x_min":66,"x_max":999,"o":"m 591 -15 q 382 41 472 -14 q 253 195 292 97 q 234 412 214 293 l 243 460 q 110 551 154 479 q 73 734 66 623 l 192 734 l 191 688 q 254 582 191 609 q 343 802 279 704 q 497 952 407 900 q 696 1001 588 1004 q 916 904 837 998 q 998 651 995 810 q 991 541 999 595 l 977 448 l 408 448 l 400 410 q 397 304 390 354 q 459 178 406 224 q 598 130 511 132 q 837 177 705 128 l 857 41 q 591 -15 778 -15 m 420 574 l 829 578 l 834 600 q 840 690 842 645 q 796 809 836 766 q 686 855 756 853 q 528 791 594 859 q 424 584 461 724 l 420 574 z "},"ҽ":{"ha":808,"x_min":-8,"x_max":783,"o":"m 421 -14 q 256 35 327 -12 q 153 161 186 81 q 134 334 120 241 q 27 419 62 356 q -3 583 -8 483 l 108 583 l 105 545 q 148 450 103 480 q 293 672 197 593 q 510 747 389 751 q 715 644 647 744 q 763 385 783 544 l 753 315 l 291 315 q 301 216 286 260 q 352 146 317 172 q 437 119 387 120 q 628 208 541 115 l 709 123 q 587 21 664 58 q 421 -14 511 -15 m 500 616 q 389 575 437 618 q 305 435 341 533 l 610 434 l 613 449 q 614 510 618 480 q 578 586 608 558 q 500 616 548 614 z "},"Ӄ":{"ha":871,"x_min":24,"x_max":930,"o":"m 275 425 l 269 425 l 191 0 l 24 0 l 195 987 l 363 987 l 291 578 l 359 578 l 715 987 l 930 987 l 533 557 q 736 432 669 536 q 788 174 804 328 q 664 -111 770 -6 q 387 -219 557 -216 l 399 -87 q 529 -38 476 -84 q 606 96 582 9 q 622 264 631 183 q 568 379 613 338 q 446 422 524 420 l 275 424 l 275 425 z "},"ӄ":{"ha":760,"x_min":22,"x_max":781,"o":"m 471 410 q 619 303 568 381 q 661 119 670 225 q 568 -76 650 8 q 366 -191 486 -159 l 321 -70 q 446 4 400 -45 q 499 120 491 54 q 470 240 509 194 q 357 290 431 286 l 233 290 l 182 0 l 22 0 l 150 734 l 310 734 l 259 441 l 308 441 l 570 734 l 781 734 l 471 410 z "},"Ӆ":{"ha":1044,"x_min":-37,"x_max":952,"o":"m 952 987 l 781 0 l 614 0 l 761 849 l 469 849 l 393 494 l 372 395 q 241 94 326 186 q 23 0 155 1 l -37 0 l -22 137 l 1 138 q 141 215 87 143 q 224 450 196 287 l 239 538 l 333 987 l 952 987 m 755 -262 l 669 -208 q 767 -20 749 -100 l 792 120 l 937 120 l 919 11 q 755 -262 892 -157 z "},"ӆ":{"ha":868,"x_min":-44,"x_max":775,"o":"m 744 734 l 617 0 l 456 0 l 560 601 l 361 601 l 294 294 q 189 69 258 138 q 12 0 119 -1 l -44 0 l -29 136 l -5 138 q 96 195 57 144 q 156 365 135 246 l 166 420 l 231 734 l 744 734 m 593 -262 l 507 -208 q 606 -20 587 -100 l 631 120 l 775 120 l 758 11 q 593 -262 730 -157 z "},"Ӈ":{"ha":964,"x_min":31,"x_max":956,"o":"m 369 987 l 294 555 l 713 555 l 789 987 l 956 987 l 781 -39 q 692 -232 765 -163 q 507 -298 620 -300 q 417 -286 470 -298 l 441 -151 q 505 -160 477 -160 q 614 -27 592 -160 l 690 418 l 271 418 l 198 0 l 31 0 l 202 987 l 369 987 z "},"ӈ":{"ha":770,"x_min":12,"x_max":737,"o":"m 300 734 l 247 428 l 523 428 l 576 734 l 737 734 l 605 -43 q 519 -232 589 -165 q 339 -299 450 -299 q 250 -287 299 -299 l 271 -156 q 336 -167 312 -167 q 445 -35 422 -167 l 500 296 l 224 296 l 173 0 l 12 0 l 139 734 l 300 734 z "},"Ӊ":{"ha":1052,"x_min":26,"x_max":960,"o":"m 788 0 l 621 0 l 697 439 l 270 439 l 194 0 l 26 0 l 198 987 l 366 987 l 294 576 l 721 576 l 792 987 l 960 987 l 788 0 m 764 -262 l 677 -208 q 776 -20 758 -100 l 801 120 l 945 120 l 928 11 q 764 -262 901 -157 z "},"ӊ":{"ha":866,"x_min":17,"x_max":773,"o":"m 615 0 l 454 0 l 505 296 l 230 296 l 178 0 l 17 0 l 144 734 l 306 734 l 252 428 l 528 428 l 581 734 l 743 734 l 615 0 m 591 -262 l 505 -208 q 604 -20 585 -100 l 629 120 l 773 120 l 755 11 q 591 -262 728 -157 z "},"Ӎ":{"ha":1268,"x_min":26,"x_max":1181,"o":"m 411 987 l 555 232 l 962 987 l 1181 987 l 1010 0 l 844 0 l 901 334 l 989 746 l 582 0 l 461 0 l 310 768 l 248 317 l 193 0 l 26 0 l 198 987 l 411 987 m 980 -262 l 894 -208 q 992 -20 974 -100 l 1017 120 l 1162 120 l 1144 11 q 980 -262 1117 -157 z "},"ӎ":{"ha":1096,"x_min":23,"x_max":1004,"o":"m 466 204 l 768 734 l 972 734 l 845 0 l 684 0 l 767 473 l 493 0 l 383 0 l 271 495 l 184 0 l 23 0 l 151 734 l 349 734 l 466 204 m 822 -262 l 736 -208 q 834 -20 816 -100 l 859 120 l 1004 120 l 986 11 q 822 -262 959 -157 z "},"Ә":{"ha":939,"x_min":49,"x_max":905,"o":"m 509 1000 q 729 940 637 999 q 863 777 821 881 q 888 531 905 668 l 878 456 q 789 212 858 322 q 620 43 721 102 q 402 -14 519 -16 q 199 47 281 -11 q 83 208 117 104 q 66 444 49 311 l 81 541 l 721 541 q 724 659 731 602 q 654 801 712 750 q 503 854 597 852 q 250 807 391 857 l 229 943 q 338 986 273 971 q 509 1000 404 1000 m 412 130 q 584 196 510 127 q 703 407 658 265 l 229 407 l 224 384 q 222 286 215 331 q 282 172 233 212 q 412 130 331 132 z "},"Ӡ":{"ha":789,"x_min":32,"x_max":800,"o":"m 577 849 l 174 849 l 199 987 l 800 987 l 781 869 l 480 580 q 654 482 594 563 q 704 282 713 401 q 646 123 696 191 q 510 19 595 55 q 325 -15 425 -18 q 111 68 189 -12 q 37 275 32 148 l 203 275 q 237 166 200 207 q 335 123 274 125 q 469 164 410 121 q 538 282 528 207 q 511 417 550 370 q 384 467 471 464 l 281 467 l 303 591 l 577 849 z "},"ӡ":{"ha":789,"x_min":-11,"x_max":751,"o":"m 527 601 l 130 601 l 153 734 l 751 734 l 732 621 l 432 324 q 605 228 544 307 q 656 28 667 148 q 598 -130 649 -62 q 463 -234 547 -197 q 280 -268 379 -270 q 67 -185 146 -265 q -5 20 -11 -106 l 155 20 q 188 -91 152 -48 q 289 -135 224 -134 q 426 -93 366 -138 q 497 27 486 -49 q 469 163 509 116 q 340 212 429 210 l 236 213 l 258 336 l 527 601 z "},"Ӻ":{"ha":811,"x_min":35,"x_max":865,"o":"m 841 849 l 399 849 l 252 0 l 85 0 l 256 987 l 865 987 l 841 849 m 486 467 l 44 467 l 64 582 l 506 582 l 486 467 m 420 139 l 391 -43 q 304 -232 375 -165 q 124 -298 234 -300 q 35 -285 78 -297 l 58 -151 q 122 -161 96 -161 q 229 -43 208 -161 l 258 139 l 420 139 z "},"ӻ":{"ha":627,"x_min":6,"x_max":669,"o":"m 646 601 l 337 601 l 233 0 l 72 0 l 199 734 l 669 734 l 646 601 m 460 348 l 19 348 l 39 463 l 481 463 l 460 348 m 391 138 l 363 -44 q 276 -234 347 -166 q 96 -300 205 -301 q 6 -286 50 -298 l 29 -153 q 94 -163 68 -163 q 201 -44 179 -163 l 230 138 l 391 138 z "},"Ӽ":{"ha":917,"x_min":-41,"x_max":916,"o":"m 458 631 l 714 987 l 916 987 l 544 490 l 760 0 l 574 0 l 425 361 l 161 0 l -41 0 l 339 505 l 128 987 l 313 987 l 458 631 m 850 139 l 821 -43 q 734 -232 805 -165 q 554 -298 664 -300 q 465 -285 508 -297 l 488 -151 q 552 -161 526 -161 q 659 -43 637 -161 l 688 139 l 850 139 z "},"ӽ":{"ha":757,"x_min":-48,"x_max":707,"o":"m 347 494 l 519 734 l 707 734 l 427 365 l 590 0 l 422 0 l 319 250 l 139 0 l -48 0 l 241 380 l 83 734 l 252 734 l 347 494 m 684 139 l 656 -43 q 569 -232 640 -165 q 389 -298 498 -300 q 299 -285 342 -297 l 322 -151 q 387 -161 361 -161 q 494 -43 472 -161 l 523 139 l 684 139 z "},"Ԁ":{"ha":853,"x_min":33,"x_max":863,"o":"m 632 626 l 695 987 l 863 987 l 691 0 l 339 1 q 174 42 245 3 q 67 151 102 81 q 40 309 33 220 q 99 476 47 404 q 238 588 151 549 q 428 627 324 627 l 632 626 m 547 137 l 608 488 l 422 490 q 277 440 336 488 q 208 311 218 391 q 234 188 197 235 q 343 138 272 140 l 547 137 z "},"Ԃ":{"ha":1176,"x_min":47,"x_max":1128,"o":"m 353 1 q 187 43 258 3 q 81 151 116 82 q 54 309 47 220 q 114 477 62 404 q 252 588 166 549 q 441 627 338 627 l 646 626 l 709 987 l 876 987 l 729 137 l 769 136 q 907 215 855 137 q 960 444 960 293 q 945 567 960 507 l 1101 566 q 1118 444 1114 506 q 1030 121 1128 242 q 764 0 932 0 l 353 1 m 562 137 l 623 488 l 436 490 q 292 440 351 488 q 222 311 233 393 q 249 188 212 235 q 357 138 286 140 l 562 137 z "},"ԃ":{"ha":1162,"x_min":48,"x_max":1097,"o":"m 54 352 q 115 565 68 471 q 230 705 161 659 q 387 748 299 750 q 553 665 492 745 l 627 1058 l 787 1058 l 648 243 q 648 201 646 222 q 669 142 650 164 q 720 119 688 121 q 875 214 816 113 q 939 498 935 315 q 928 633 941 566 l 1080 633 q 1092 498 1089 565 q 1049 231 1097 349 q 912 48 1002 112 q 707 -14 821 -16 q 573 16 627 -14 q 500 107 519 47 q 279 -15 409 -18 q 115 59 176 -12 q 50 256 55 131 q 54 352 48 296 m 537 544 q 419 614 500 611 q 282 545 335 615 q 214 355 229 475 l 212 341 q 209 269 208 307 q 241 160 210 199 q 327 120 271 121 q 481 197 412 117 l 485 243 l 537 544 z "},"Ԅ":{"ha":1072,"x_min":115,"x_max":994,"o":"m 415 257 q 392 367 421 326 q 304 412 363 409 l 152 414 l 176 553 l 273 552 q 430 593 374 552 q 495 712 486 633 q 356 848 512 842 l 115 848 l 140 987 l 345 987 q 590 913 507 986 q 663 711 673 841 q 609 577 658 635 q 456 477 559 519 q 554 399 522 454 q 581 258 587 343 l 576 210 q 588 149 572 174 q 633 123 603 125 q 774 220 722 117 q 831 498 826 323 q 821 633 832 566 l 978 633 q 989 498 987 565 q 948 230 994 348 q 815 48 901 112 q 615 -15 728 -16 q 459 46 513 -14 q 411 211 406 106 l 415 257 z "},"ԅ":{"ha":875,"x_min":66,"x_max":833,"o":"m 465 158 l 465 136 q 505 99 467 101 q 593 132 554 96 q 652 241 631 169 q 669 395 673 313 q 653 502 667 449 l 804 501 q 821 395 815 448 q 795 190 833 291 q 680 35 758 89 q 501 -19 602 -20 q 350 25 399 -17 q 304 146 300 67 l 310 197 q 229 279 317 274 l 66 280 l 87 408 l 199 408 q 352 505 338 412 q 250 601 366 594 l 68 602 l 87 734 l 254 733 q 452 673 382 730 q 515 520 521 617 q 478 427 512 467 q 372 355 445 387 q 450 297 426 338 q 469 201 473 256 l 465 158 z "},"Ԇ":{"ha":762,"x_min":99,"x_max":668,"o":"m 99 410 l 122 542 l 245 541 q 398 582 341 541 q 464 701 454 623 q 436 813 473 775 q 326 854 399 852 l 127 855 l 148 987 l 316 987 q 553 911 471 986 q 625 705 635 836 q 436 475 614 555 q 513 414 484 455 q 547 317 541 374 q 545 246 549 282 l 530 165 l 528 157 l 668 160 l 650 52 q 488 -222 623 -116 l 399 -167 q 497 0 467 -75 l 396 -1 q 368 79 371 31 q 373 160 366 109 l 385 245 q 363 362 395 319 q 268 408 332 406 l 99 410 z "},"ԇ":{"ha":721,"x_min":95,"x_max":646,"o":"m 95 279 l 116 400 l 258 399 q 419 501 404 404 q 397 574 426 547 q 312 602 369 601 l 113 603 l 133 734 l 315 733 q 516 670 444 730 q 581 513 588 610 q 544 417 578 458 q 439 342 509 375 q 523 223 514 307 q 522 170 526 197 l 517 148 l 646 149 l 629 39 q 468 -233 604 -124 l 379 -178 q 479 0 452 -77 l 375 -1 q 355 83 351 30 l 366 170 q 346 249 372 222 q 268 277 319 275 l 95 279 z "},"Ԉ":{"ha":1311,"x_min":-23,"x_max":1265,"o":"m 755 848 l 483 848 l 385 389 q 255 95 340 186 q 41 0 171 3 l -23 0 l -7 137 l 27 139 q 158 220 106 147 q 239 450 211 292 l 252 528 l 347 987 l 947 987 l 821 245 q 821 204 819 225 q 841 147 823 169 q 890 123 859 125 q 1040 217 983 117 q 1101 498 1098 316 q 1090 633 1103 566 l 1249 633 q 1261 498 1258 565 q 1217 228 1265 347 q 1080 46 1169 110 q 877 -16 990 -18 q 700 57 760 -13 q 653 245 641 127 l 755 848 z "},"ԉ":{"ha":1120,"x_min":-23,"x_max":1067,"o":"m 553 600 l 381 600 l 315 295 q 208 67 277 136 q 29 0 138 -3 l -23 0 l -9 136 l 16 138 q 117 196 78 144 q 177 368 156 248 l 186 420 l 252 734 l 737 734 l 655 243 q 670 154 650 188 q 732 118 690 119 q 852 194 807 115 q 907 422 898 273 l 908 463 q 897 591 909 527 l 1048 590 q 1061 463 1057 526 q 1026 218 1067 330 q 905 45 985 106 q 721 -15 825 -17 q 544 56 604 -14 q 495 243 483 125 l 553 600 z "},"Ԋ":{"ha":1352,"x_min":26,"x_max":1270,"o":"m 949 987 l 825 243 q 825 203 823 224 q 845 145 828 167 q 893 123 863 124 q 1044 216 986 118 q 1105 498 1102 315 q 1095 633 1107 566 l 1253 633 q 1265 498 1262 565 q 1221 228 1270 346 q 1084 46 1173 109 q 880 -16 995 -18 q 708 56 767 -14 q 658 245 648 125 l 684 418 l 266 418 l 193 0 l 26 0 l 198 987 l 365 987 l 290 555 l 708 555 l 783 987 l 949 987 z "},"ԋ":{"ha":1121,"x_min":7,"x_max":1069,"o":"m 504 300 l 220 300 l 168 0 l 7 0 l 135 734 l 296 734 l 243 432 l 526 432 l 578 734 l 739 734 l 657 243 q 657 200 655 222 q 681 141 661 163 q 733 119 701 119 q 862 208 814 115 q 911 463 909 301 q 899 591 911 527 l 1050 590 q 1063 463 1059 526 q 1029 220 1069 334 q 907 45 988 107 q 723 -16 827 -18 q 548 54 608 -14 q 496 243 488 123 l 504 300 z "},"Ԍ":{"ha":851,"x_min":52,"x_max":795,"o":"m 403 -14 q 210 44 292 -12 q 90 196 128 100 q 66 405 52 292 l 94 583 q 178 801 113 704 q 341 950 243 898 q 556 1002 439 1003 q 791 940 694 1000 l 737 817 q 549 865 654 863 q 360 785 439 866 q 260 576 281 705 l 233 404 q 233 307 227 357 q 289 175 241 224 q 412 123 337 125 q 571 192 512 121 q 629 416 630 262 q 620 534 629 475 l 779 534 l 788 416 q 748 178 795 271 q 609 35 701 85 q 403 -14 517 -16 z "},"ԍ":{"ha":709,"x_min":41,"x_max":636,"o":"m 351 119 q 444 153 411 117 q 479 290 477 189 l 475 365 l 627 365 l 632 291 q 600 118 636 184 q 494 17 563 52 q 339 -15 425 -17 q 175 36 243 -12 q 74 167 106 84 q 51 351 41 250 l 54 379 q 118 569 66 483 q 252 702 170 654 q 433 749 334 749 q 621 701 547 747 l 576 574 q 426 616 513 616 q 287 551 345 616 q 214 380 229 486 q 210 273 206 315 q 253 161 216 202 q 351 119 290 119 z "},"Ԏ":{"ha":961,"x_min":98,"x_max":903,"o":"m 394 848 l 98 848 l 122 987 l 881 987 l 857 848 l 561 848 l 459 244 l 458 204 q 478 147 460 169 q 528 123 496 125 q 676 212 619 119 q 740 477 732 304 l 741 498 q 730 633 742 566 l 887 633 q 899 498 897 565 q 857 232 903 351 q 721 47 810 113 q 515 -16 631 -18 q 342 56 401 -14 q 292 245 283 125 l 394 848 z "},"ԏ":{"ha":868,"x_min":78,"x_max":797,"o":"m 292 602 l 78 602 l 101 734 l 699 734 l 675 602 l 453 602 l 393 243 q 393 200 391 222 q 417 141 397 163 q 470 119 437 119 q 597 196 551 116 q 636 395 643 276 q 619 496 633 446 l 769 496 q 787 293 797 374 q 681 69 770 154 q 459 -15 591 -16 q 284 56 345 -14 q 233 243 224 125 l 292 602 z "},"Ԑ":{"ha":905,"x_min":58,"x_max":891,"o":"m 479 436 q 308 394 371 436 q 234 271 244 352 q 278 164 225 204 q 422 121 330 123 q 575 163 510 120 q 651 274 640 205 l 817 275 q 755 119 810 184 q 610 18 701 53 q 414 -14 519 -16 q 224 24 309 -13 q 99 125 139 62 q 65 271 58 189 q 283 511 77 441 q 195 587 229 541 q 157 713 153 644 q 217 871 163 806 q 363 970 271 936 q 568 1002 455 1004 q 802 922 712 998 q 888 723 891 846 l 723 724 q 680 824 726 787 q 560 863 635 862 q 399 824 465 865 q 323 713 334 783 q 358 609 314 645 q 492 572 403 572 l 621 571 l 596 435 l 479 436 z "},"Ԓ":{"ha":1065,"x_min":-37,"x_max":962,"o":"m 952 987 l 781 0 l 614 0 l 761 849 l 469 849 l 393 494 l 372 395 q 241 94 326 186 q 23 0 155 1 l -37 0 l -22 137 l 1 138 q 141 215 87 143 q 224 450 196 287 l 239 538 l 333 987 l 952 987 m 962 139 l 934 -43 q 847 -232 918 -165 q 667 -298 777 -300 q 577 -285 621 -297 l 600 -151 q 665 -161 639 -161 q 772 -43 750 -161 l 801 139 l 962 139 z "},"ԓ":{"ha":890,"x_min":-44,"x_max":800,"o":"m 744 734 l 617 0 l 456 0 l 560 601 l 361 601 l 294 294 q 189 69 258 138 q 12 0 119 -1 l -44 0 l -29 136 l -5 138 q 96 195 57 144 q 156 365 135 246 l 166 420 l 231 734 l 744 734 m 800 139 l 772 -43 q 685 -232 755 -165 q 505 -298 614 -300 q 415 -285 458 -297 l 438 -151 q 503 -161 477 -161 q 610 -43 588 -161 l 639 139 l 800 139 z "}," ":{"ha":694,"x_min":0,"x_max":0,"o":""}," ":{"ha":1381,"x_min":0,"x_max":0,"o":""}," ":{"ha":694,"x_min":0,"x_max":0,"o":""}," ":{"ha":1381,"x_min":0,"x_max":0,"o":""}," ":{"ha":465,"x_min":0,"x_max":0,"o":""}," ":{"ha":350,"x_min":0,"x_max":0,"o":""}," ":{"ha":236,"x_min":0,"x_max":0,"o":""}," ":{"ha":764,"x_min":0,"x_max":0,"o":""}," ":{"ha":375,"x_min":0,"x_max":0,"o":""}," ":{"ha":281,"x_min":0,"x_max":0,"o":""}," ":{"ha":144,"x_min":0,"x_max":0,"o":""},"​":{"ha":0,"x_min":0,"x_max":0,"o":""},"‐":{"ha":450,"x_min":37,"x_max":407,"o":"m 383 353 l 37 353 l 60 486 l 407 486 l 383 353 z "},"‑":{"ha":450,"x_min":37,"x_max":407,"o":"m 383 353 l 37 353 l 60 486 l 407 486 l 383 353 z "},"–":{"ha":876,"x_min":106,"x_max":806,"o":"m 777 421 l 106 421 l 134 554 l 806 554 l 777 421 z "},"—":{"ha":1048,"x_min":89,"x_max":1022,"o":"m 984 421 l 89 421 l 127 554 l 1022 554 l 984 421 z "},"‗":{"ha":614,"x_min":-118,"x_max":536,"o":"m 487 -282 l -118 -282 l -99 -176 l 506 -176 l 487 -282 m 517 -106 l -87 -106 l -68 0 l 536 0 l 517 -106 z "},"‘":{"ha":302,"x_min":118,"x_max":370,"o":"m 290 1059 l 370 1006 q 279 824 298 910 l 259 716 l 118 716 l 132 800 q 290 1059 157 957 z "},"’":{"ha":299,"x_min":94,"x_max":346,"o":"m 174 694 l 94 748 q 184 930 165 842 l 205 1042 l 346 1042 l 331 949 q 174 694 306 796 z "},"‚":{"ha":311,"x_min":-62,"x_max":188,"o":"m 18 -202 l -62 -148 q 25 33 7 -55 l 44 137 l 188 137 l 175 54 q 18 -202 151 -98 z "},"‛":{"ha":286,"x_min":139,"x_max":316,"o":"m 304 1042 l 287 943 q 286 842 279 890 q 316 745 292 792 l 233 695 q 162 811 186 743 q 147 945 139 879 l 162 1042 l 304 1042 z "},"“":{"ha":525,"x_min":124,"x_max":597,"o":"m 296 1059 l 376 1006 q 285 824 304 910 l 265 716 l 124 716 l 138 800 q 296 1059 163 957 m 517 1059 l 597 1006 q 506 824 525 910 l 486 716 l 345 716 l 359 800 q 517 1059 385 957 z "},"”":{"ha":530,"x_min":102,"x_max":574,"o":"m 183 694 l 102 748 q 193 930 174 842 l 214 1042 l 355 1042 l 340 949 q 183 694 315 796 m 403 694 l 322 748 q 413 930 394 842 l 433 1042 l 574 1042 l 559 949 q 403 694 534 796 z "},"„":{"ha":517,"x_min":-64,"x_max":409,"o":"m 18 -216 l -64 -161 q 28 47 11 -53 l 50 173 l 194 173 l 174 50 q 120 -97 162 -27 q 18 -216 79 -168 m 230 -216 l 147 -161 q 243 47 226 -51 l 264 173 l 409 173 l 389 49 q 334 -98 376 -30 q 230 -216 291 -166 z "},"†":{"ha":741,"x_min":71,"x_max":745,"o":"m 724 598 l 477 598 l 383 0 l 222 0 l 316 598 l 71 598 l 93 734 l 336 734 l 376 987 l 538 987 l 498 734 l 745 734 l 724 598 z "},"‡":{"ha":781,"x_min":-3,"x_max":763,"o":"m 648 0 l 401 0 l 357 -282 l 196 -282 l 240 0 l -3 0 l 18 132 l 260 132 l 334 601 l 90 601 l 111 734 l 355 734 l 394 987 l 555 987 l 515 734 l 763 734 l 742 601 l 495 601 l 421 132 l 669 132 l 648 0 z "},"•":{"ha":477,"x_min":107,"x_max":399,"o":"m 108 518 q 154 628 112 586 q 262 670 197 670 q 361 629 323 669 q 399 525 399 589 l 398 496 q 351 389 393 428 q 244 350 309 350 q 145 389 183 350 q 107 490 107 429 l 108 518 z "},"‥":{"ha":676,"x_min":35,"x_max":522,"o":"m 35 79 q 61 147 35 121 q 127 174 87 173 q 194 150 168 176 q 221 85 221 125 q 195 19 221 45 q 128 -8 170 -7 q 61 16 88 -9 q 35 79 35 41 m 336 79 q 362 147 336 121 q 429 174 388 173 q 495 150 469 176 q 522 85 522 125 q 496 19 522 45 q 429 -8 471 -7 q 362 16 389 -9 q 336 79 336 41 z "},"…":{"ha":958,"x_min":35,"x_max":812,"o":"m 35 79 q 61 147 35 121 q 127 174 87 173 q 194 150 168 176 q 221 85 221 125 q 195 19 221 45 q 128 -8 170 -7 q 61 16 88 -9 q 35 79 35 41 m 336 79 q 362 147 336 121 q 429 174 388 173 q 495 150 469 176 q 522 85 522 125 q 496 19 522 45 q 429 -8 471 -7 q 362 16 389 -9 q 336 79 336 41 m 626 79 q 652 147 626 121 q 719 174 678 173 q 786 150 759 176 q 812 85 812 125 q 787 19 812 45 q 720 -8 761 -7 q 653 16 680 -9 q 626 79 626 41 z "},"‧":{"ha":307,"x_min":62,"x_max":243,"o":"m 62 417 q 68 453 62 437 q 86 482 75 470 q 115 501 98 494 q 151 509 132 508 q 187 503 170 509 q 216 486 204 497 q 236 458 229 474 q 243 422 243 442 q 236 387 243 403 q 217 358 229 370 q 188 340 205 347 q 153 332 172 333 q 117 338 134 332 q 88 355 100 344 q 69 382 76 366 q 62 417 62 397 z "},"‰":{"ha":1295,"x_min":106,"x_max":1219,"o":"m 507 241 q 581 390 516 332 q 734 447 645 448 q 876 371 835 444 q 1034 446 945 447 q 1169 387 1118 444 q 1214 242 1219 329 l 1210 196 q 1138 42 1201 101 q 983 -15 1075 -16 q 902 4 940 -14 q 842 60 863 22 q 684 -14 772 -15 q 549 45 600 -12 q 503 189 498 103 l 507 241 m 336 1002 q 473 941 422 999 q 519 797 524 884 l 514 747 q 441 597 505 654 q 290 542 378 539 q 157 601 208 543 q 112 745 106 659 l 115 789 q 184 943 123 884 q 336 1002 245 1003 m 247 75 l 165 129 l 762 893 l 844 840 l 247 75 m 615 188 q 631 113 612 141 q 688 83 651 85 q 761 112 732 82 q 797 189 789 142 l 803 243 q 788 317 808 288 q 730 347 768 346 q 658 319 688 349 q 621 242 629 289 l 615 188 m 914 188 q 930 113 911 141 q 988 83 950 85 q 1060 112 1031 82 q 1096 189 1088 141 l 1103 243 q 1088 317 1107 288 q 1029 347 1068 346 q 957 318 987 349 q 920 237 926 288 l 914 188 m 220 744 q 236 668 216 695 q 293 640 256 641 q 363 667 334 638 q 401 745 393 696 l 408 798 q 392 873 411 844 q 334 903 373 902 q 263 876 292 905 q 226 797 234 846 l 220 744 z "},"‹":{"ha":418,"x_min":63,"x_max":416,"o":"m 199 355 l 312 94 l 212 94 l 63 357 l 64 371 l 294 635 l 416 635 l 199 355 z "},"›":{"ha":412,"x_min":-5,"x_max":349,"o":"m 199 635 l 349 372 l 347 358 l 117 94 l -5 94 l 212 372 l 100 635 l 199 635 z "},"⁄":{"ha":614,"x_min":-21,"x_max":657,"o":"m 61 75 l -21 129 l 576 893 l 657 840 l 61 75 z "},"⁴":{"ha":505,"x_min":68,"x_max":508,"o":"m 440 665 l 508 665 l 489 563 l 427 563 l 408 452 l 283 452 l 303 563 l 68 563 l 77 653 l 370 987 l 496 988 l 440 665 m 205 665 l 320 665 l 355 831 l 342 815 l 205 665 z "},"ⁿ":{"ha":572,"x_min":75,"x_max":577,"o":"m 267 985 l 269 903 q 340 973 304 951 q 421 994 377 994 q 538 938 498 994 q 567 786 577 881 l 511 442 l 380 442 l 431 753 l 434 794 q 372 882 437 880 q 271 821 314 883 l 205 442 l 75 442 l 169 985 l 267 985 z "},"₤":{"ha":800,"x_min":-7,"x_max":806,"o":"m 523 317 l 328 317 l 323 287 q 248 135 310 199 l 709 137 l 685 0 l -7 0 l 18 136 l 64 136 q 153 280 132 160 l 160 318 l 46 317 l 64 416 l 169 416 l 181 498 l 78 498 l 95 595 l 195 595 l 208 704 q 318 921 224 838 q 547 1000 412 1004 q 738 924 669 998 q 801 727 806 850 l 639 728 q 530 864 645 861 q 426 820 469 865 q 374 704 383 775 l 361 595 l 572 595 l 554 498 l 348 498 l 336 416 l 541 416 l 523 317 z "},"₦":{"ha":1091,"x_min":9,"x_max":1106,"o":"m 964 654 l 1106 654 l 1087 546 l 945 546 l 927 444 l 1069 444 l 1050 335 l 909 335 l 850 0 l 688 0 l 542 335 l 315 335 l 256 0 l 90 0 l 148 335 l 9 335 l 28 444 l 166 444 l 184 546 l 45 546 l 64 654 l 203 654 l 261 987 l 422 987 l 568 654 l 798 654 l 856 987 l 1022 987 l 964 654 m 660 444 l 761 444 l 779 546 l 615 546 l 660 444 m 333 444 l 494 444 l 450 546 l 351 546 l 333 444 m 731 283 l 744 336 l 712 334 l 731 283 m 370 652 l 398 654 l 380 702 l 370 652 z "},"₧":{"ha":1138,"x_min":29,"x_max":1101,"o":"m 1080 612 l 955 612 l 885 201 q 884 170 883 184 q 939 124 888 126 q 996 130 964 124 l 985 1 q 884 -12 934 -13 q 759 44 800 -11 q 726 193 717 100 l 794 612 l 723 612 q 363 365 635 365 l 258 366 l 195 0 l 29 0 l 200 987 l 452 987 q 601 954 536 985 q 701 865 665 922 q 733 733 736 808 l 815 734 l 846 912 l 1007 912 l 976 734 l 1101 734 l 1080 612 m 282 504 l 370 503 q 552 621 507 505 q 568 747 576 684 q 447 848 555 843 l 342 849 l 282 504 z "},"₨":{"ha":1451,"x_min":26,"x_max":1402,"o":"m 449 380 l 260 380 l 194 0 l 26 0 l 198 987 l 509 987 q 755 909 670 987 q 829 694 841 832 q 766 529 822 599 q 608 418 709 458 l 753 10 l 753 0 l 575 0 l 449 380 m 283 518 l 446 517 q 592 563 533 517 q 661 687 650 608 q 633 805 671 764 q 520 848 596 846 l 341 849 l 283 518 m 1198 203 q 1111 297 1210 271 q 977 338 1013 323 q 842 520 837 398 q 931 684 845 619 q 1139 747 1018 749 q 1329 682 1255 746 q 1401 513 1402 617 l 1242 513 q 1214 593 1243 564 q 1134 623 1185 622 q 1042 597 1080 623 q 998 528 1004 570 q 1084 442 988 466 q 1227 397 1181 418 q 1356 213 1361 338 q 1311 91 1353 143 q 1197 12 1268 39 q 1046 -14 1126 -16 q 847 56 926 -12 q 769 232 768 125 l 924 231 q 960 142 926 172 q 1053 111 994 111 q 1152 135 1112 111 q 1198 203 1192 160 z "},"₩":{"ha":1044,"x_min":19,"x_max":1082,"o":"m 686 723 l 825 723 l 911 987 l 1082 987 l 983 723 l 1071 723 l 1052 614 l 943 614 l 902 505 l 1033 505 l 1014 396 l 862 396 l 715 0 l 550 0 l 557 396 l 477 396 l 345 0 l 180 0 l 171 396 l 19 396 l 39 505 l 168 505 l 166 614 l 57 614 l 76 723 l 163 723 l 157 987 l 319 987 l 315 723 l 456 723 l 543 987 l 692 987 l 686 723 m 311 505 l 385 505 l 422 614 l 314 614 l 311 505 m 682 505 l 753 505 l 789 614 l 685 614 l 682 505 m 509 503 l 555 503 l 563 616 l 551 616 l 509 503 m 307 266 l 354 397 l 313 397 l 307 266 m 677 273 l 722 397 l 683 397 l 677 273 z "},"₪":{"ha":1109,"x_min":11,"x_max":1078,"o":"m 559 733 q 722 661 671 730 q 759 458 773 591 l 724 241 l 563 241 l 599 460 q 601 515 602 490 q 505 600 594 596 l 276 601 l 172 0 l 11 0 l 138 734 l 559 733 m 279 0 l 366 492 l 526 492 l 463 132 l 675 131 q 838 262 811 130 l 917 734 l 1078 734 l 1002 275 q 893 70 983 142 q 663 0 802 -3 l 279 0 z "},"€":{"ha":772,"x_min":53,"x_max":802,"o":"m 567 357 l 336 357 q 335 270 330 311 q 384 164 342 203 q 496 124 425 126 q 636 146 558 123 l 641 5 q 480 -12 558 -13 q 301 37 376 -9 q 192 169 227 84 q 172 358 158 253 l 53 357 l 70 453 l 182 453 l 198 540 l 84 540 l 101 635 l 210 635 q 366 908 254 814 q 640 1001 477 1002 q 802 979 707 1000 l 768 840 q 640 865 704 864 q 473 808 539 867 q 376 635 408 749 l 616 635 l 599 540 l 365 540 l 349 453 l 584 453 l 567 357 z "},"₱":{"ha":1010,"x_min":45,"x_max":1052,"o":"m 303 367 l 239 0 l 72 0 l 166 542 l 45 542 l 64 650 l 182 649 l 196 701 l 71 699 l 91 808 l 212 808 l 243 987 l 588 987 q 789 939 710 987 q 894 808 869 892 l 1052 808 l 1032 699 l 912 701 q 897 648 907 673 l 1025 650 l 1005 542 l 865 541 q 723 409 810 452 q 512 366 635 366 l 303 367 m 738 673 l 744 701 l 363 701 l 349 649 l 729 649 l 738 673 m 376 806 l 704 809 q 592 848 672 848 l 389 850 l 376 806 m 663 544 l 336 543 l 324 503 l 516 505 q 663 544 597 505 z "},"₹":{"ha":715,"x_min":40,"x_max":786,"o":"m 730 863 l 585 863 q 601 743 604 805 l 743 744 l 688 621 l 593 621 q 475 449 555 507 q 254 377 395 391 l 496 10 l 496 0 l 311 0 l 40 410 l 56 506 l 214 505 q 420 622 352 505 l 60 621 l 115 744 l 433 744 q 292 848 423 845 l 100 849 l 160 987 l 786 987 l 730 863 z "},"₺":{"ha":787,"x_min":11,"x_max":743,"o":"m 743 520 l 737 469 q 652 213 719 326 q 486 42 585 101 q 267 -16 387 -17 q 100 0 189 -14 l 166 406 l 11 348 l 36 490 l 191 549 l 205 634 l 50 576 l 75 718 l 230 777 l 267 987 l 434 987 l 409 846 l 568 906 l 543 764 l 385 703 l 369 617 l 528 677 l 503 535 l 345 475 l 281 126 q 475 219 399 130 q 571 468 550 308 l 576 520 l 743 520 z "},"₼":{"ha":911,"x_min":-19,"x_max":811,"o":"m 560 591 q 730 479 667 564 q 805 267 793 395 q 802 119 811 192 l 782 0 l 621 0 l 644 140 l 649 211 q 626 360 652 298 q 544 450 600 422 l 462 0 l 300 0 l 383 450 q 168 150 215 385 l 142 0 l -19 0 l 5 138 q 142 446 40 328 q 391 591 243 563 l 399 592 l 429 734 l 589 734 l 560 591 z "},"₽":{"ha":931,"x_min":-18,"x_max":933,"o":"m 496 157 l 285 157 l 257 0 l 90 0 l 117 157 l -18 157 l 7 294 l 141 294 l 154 367 l 19 367 l 43 505 l 178 505 l 262 987 l 603 987 q 846 903 759 987 q 922 682 933 819 q 803 450 909 534 q 530 366 696 366 l 321 367 l 308 294 l 520 294 l 496 157 m 345 505 l 534 503 q 684 549 624 503 q 755 681 743 595 q 725 801 764 755 q 614 848 686 846 l 404 849 l 345 505 z "},"℅":{"ha":999,"x_min":132,"x_max":910,"o":"m 507 720 q 446 589 500 638 q 308 542 391 541 q 179 601 227 543 q 137 745 132 659 l 141 791 q 208 946 150 887 q 353 1003 267 1004 q 482 950 435 1000 q 530 822 530 900 l 418 823 q 402 882 419 861 q 351 904 385 904 q 288 874 314 904 q 256 798 262 844 l 250 745 l 250 711 q 266 661 251 680 q 308 641 281 642 q 363 661 340 641 q 395 719 386 682 l 507 720 m 722 445 q 859 387 808 444 q 905 242 910 330 l 901 196 q 830 42 892 101 q 676 -14 768 -17 q 539 45 591 -13 q 492 189 487 102 l 496 234 q 566 388 503 330 q 722 445 629 446 m 605 188 q 622 112 602 140 q 679 83 642 84 q 749 110 721 81 q 786 189 778 139 l 793 243 q 777 319 796 292 q 720 347 757 346 q 647 318 677 349 q 611 237 617 287 l 605 188 m 249 75 l 167 129 l 763 893 l 846 840 l 249 75 z "},"ℓ":{"ha":661,"x_min":33,"x_max":674,"o":"m 416 -15 q 264 29 328 -10 q 174 136 201 68 q 161 291 146 205 l 164 302 q 33 287 113 290 l 47 414 q 178 430 109 416 l 235 755 q 321 966 252 890 q 491 1038 390 1041 q 626 972 578 1035 q 667 814 674 909 l 664 785 q 562 547 650 661 q 339 363 473 433 l 329 311 q 323 245 323 276 q 430 134 323 142 l 416 -15 m 357 524 q 512 789 492 646 l 515 814 l 517 840 q 480 901 517 897 q 406 800 424 904 l 401 770 l 357 524 z "},"№":{"ha":1384,"x_min":24,"x_max":1373,"o":"m 1257 279 l 854 279 l 873 380 l 1274 380 l 1257 279 m 908 759 q 991 934 920 867 q 1165 999 1063 1002 q 1317 930 1261 996 q 1366 760 1373 864 l 1361 709 q 1278 529 1350 595 q 1105 465 1206 462 q 952 534 1008 467 q 903 703 897 600 l 908 759 m 1020 701 q 1038 601 1015 636 q 1109 564 1061 565 q 1198 598 1162 562 q 1244 703 1234 635 l 1251 760 q 1233 861 1256 825 q 1161 899 1210 897 q 1071 862 1107 900 q 1026 760 1036 823 l 1020 701 m 690 0 l 517 0 l 309 708 l 185 0 l 24 0 l 195 987 l 368 987 l 577 277 l 701 987 l 861 987 l 690 0 z "},"™":{"ha":854,"x_min":161,"x_max":832,"o":"m 736 861 l 618 622 l 578 621 l 537 880 l 492 621 l 417 621 l 481 987 l 570 987 l 608 731 l 741 987 l 832 987 l 768 621 l 694 621 l 736 861 m 422 923 l 332 923 l 279 623 l 201 623 l 254 923 l 161 923 l 172 987 l 434 987 l 422 923 z "},"℮":{"ha":862,"x_min":85,"x_max":775,"o":"m 637 62 q 385 -13 517 -16 q 225 40 296 -12 q 120 178 155 91 q 94 361 85 266 q 164 553 104 459 q 312 698 224 646 q 492 747 399 750 q 646 696 581 745 q 743 564 711 648 q 768 382 775 480 l 765 349 l 257 349 l 216 125 q 376 52 279 55 q 496 69 433 50 q 638 134 559 87 l 637 62 m 501 684 q 303 602 408 686 l 268 413 l 622 413 l 658 608 q 501 684 595 681 z "},"⅛":{"ha":1052,"x_min":123,"x_max":961,"o":"m 317 438 l 195 438 l 262 822 l 123 790 l 142 894 l 390 972 l 406 972 l 317 438 m 226 75 l 144 129 l 741 893 l 822 840 l 226 75 m 959 397 q 935 328 957 358 q 866 271 913 298 q 932 153 935 229 q 870 34 930 77 q 720 -8 811 -9 q 583 34 634 -7 q 534 142 532 74 q 641 279 536 226 q 585 387 583 319 q 645 502 588 459 q 784 543 701 545 q 912 503 864 542 q 959 397 961 463 m 810 163 q 797 206 814 190 q 747 222 779 222 q 687 203 713 222 q 656 155 661 184 q 670 111 652 127 q 720 94 688 94 q 778 111 751 94 q 810 163 805 129 m 837 387 q 826 427 840 413 q 785 441 811 441 q 735 425 757 441 q 708 380 713 408 q 719 339 704 353 q 760 324 734 324 q 810 341 789 324 q 837 387 832 358 z "},"⅜":{"ha":1162,"x_min":88,"x_max":1064,"o":"m 252 764 l 309 764 q 376 784 350 765 q 407 834 402 803 q 363 888 413 880 l 347 890 q 265 840 284 891 l 139 839 q 201 951 145 910 q 342 991 258 993 q 482 949 430 989 q 530 842 534 909 q 504 773 528 802 q 423 718 479 743 q 500 602 503 690 q 435 483 498 527 q 277 440 371 439 q 140 486 192 441 q 88 604 88 530 l 208 604 q 283 542 211 543 q 348 561 319 542 q 380 612 376 580 q 308 675 389 672 l 245 675 l 252 764 m 340 75 l 258 129 l 854 893 l 936 840 l 340 75 m 1062 397 q 1038 328 1060 358 q 969 271 1017 298 q 1036 153 1038 229 q 974 34 1033 77 q 823 -8 914 -9 q 686 34 737 -7 q 637 142 635 74 q 744 279 640 226 q 688 387 686 319 q 748 502 691 459 q 887 543 804 545 q 1016 503 967 542 q 1062 397 1064 463 m 913 163 q 900 206 917 190 q 850 222 882 222 q 790 203 816 222 q 760 155 764 184 q 773 111 755 127 q 823 94 791 94 q 881 111 854 94 q 913 163 908 129 m 940 387 q 929 427 943 413 q 888 441 914 441 q 838 425 860 441 q 811 380 816 408 q 822 339 807 353 q 863 324 838 324 q 913 341 892 324 q 940 387 935 358 z "},"⅝":{"ha":1155,"x_min":92,"x_max":1057,"o":"m 123 709 l 205 982 l 531 982 l 513 880 l 291 881 l 254 779 q 337 797 292 795 q 455 753 411 798 q 497 630 500 709 q 432 491 494 545 q 281 439 370 437 q 148 484 200 440 q 92 597 95 528 l 212 597 q 232 553 214 565 q 281 541 249 541 q 346 567 321 542 q 376 630 370 591 q 362 687 380 666 q 308 709 344 709 q 228 683 264 709 l 123 709 m 321 75 l 239 129 l 836 893 l 918 840 l 321 75 m 1055 397 q 1031 328 1053 358 q 962 271 1009 298 q 1028 153 1031 229 q 966 34 1025 77 q 816 -8 907 -9 q 679 34 730 -7 q 630 142 628 74 q 736 279 632 226 q 681 387 678 319 q 740 502 684 459 q 880 543 797 545 q 1008 503 960 542 q 1055 397 1057 463 m 906 163 q 892 206 909 190 q 842 222 875 222 q 783 203 808 222 q 752 155 757 184 q 766 111 747 127 q 815 94 784 94 q 874 111 847 94 q 906 163 901 129 m 932 387 q 921 427 936 413 q 881 441 907 441 q 830 425 852 441 q 804 380 808 408 q 815 339 800 353 q 856 324 830 324 q 906 341 884 324 q 932 387 928 358 z "},"⅞":{"ha":1124,"x_min":123,"x_max":1013,"o":"m 559 899 l 262 444 l 123 444 l 421 877 l 138 877 l 157 979 l 573 979 l 559 899 m 263 75 l 181 129 l 778 893 l 859 840 l 263 75 m 1011 397 q 987 328 1009 358 q 918 271 966 298 q 985 153 987 229 q 923 34 982 77 q 772 -8 863 -9 q 635 34 686 -7 q 587 142 585 74 q 693 279 589 226 q 637 387 635 319 q 697 502 640 459 q 836 543 753 545 q 965 503 916 542 q 1011 397 1013 463 m 863 163 q 849 206 866 190 q 799 222 831 222 q 739 203 765 222 q 709 155 713 184 q 722 111 704 127 q 772 94 741 94 q 830 111 804 94 q 863 163 857 129 m 889 387 q 878 427 892 413 q 838 441 863 441 q 787 425 809 441 q 760 380 765 408 q 771 339 756 353 q 812 324 787 324 q 863 341 841 324 q 889 387 884 358 z "},"∂":{"ha":776,"x_min":47,"x_max":743,"o":"m 415 698 q 599 612 526 695 q 600 673 601 640 q 548 834 593 774 q 429 897 503 895 q 337 888 382 899 q 248 863 293 878 l 240 989 q 448 1034 338 1034 q 664 930 589 1031 q 743 641 739 829 l 743 593 q 681 259 734 392 q 538 54 627 125 q 334 -14 449 -17 q 175 34 241 -13 q 78 162 109 81 q 58 344 47 244 l 59 359 q 120 536 71 457 q 245 658 169 616 q 415 698 322 701 m 426 566 q 290 511 346 568 q 219 354 233 454 l 217 340 q 216 264 213 303 q 252 158 219 197 q 344 117 285 119 q 483 183 427 113 q 560 393 538 253 l 569 450 q 520 534 559 503 q 426 566 481 565 z "},"∏":{"ha":947,"x_min":21,"x_max":926,"o":"m 747 -155 l 585 -155 l 743 857 l 340 857 l 182 -155 l 21 -155 l 199 987 l 926 987 l 747 -155 z "},"∑":{"ha":823,"x_min":-60,"x_max":864,"o":"m 599 394 l 178 -50 l 722 -50 l 699 -182 l -60 -182 l -41 -73 l 431 410 l 125 892 l 142 987 l 864 987 l 841 855 l 323 855 l 600 414 l 599 394 z "},"−":{"ha":766,"x_min":106,"x_max":689,"o":"m 665 421 l 106 421 l 130 554 l 689 554 l 665 421 z "},"√":{"ha":798,"x_min":35,"x_max":874,"o":"m 341 204 l 724 987 l 874 987 l 381 0 l 251 0 l 176 391 l 35 391 l 59 525 l 293 525 l 341 204 z "},"∞":{"ha":1399,"x_min":50,"x_max":1333,"o":"m 1323 363 q 1257 170 1311 258 q 1120 33 1203 82 q 941 -14 1038 -16 q 776 50 848 -11 q 673 211 704 110 q 509 36 590 89 q 337 -14 427 -16 q 181 37 248 -12 q 82 171 115 85 q 60 357 50 256 l 61 372 q 127 563 73 475 q 263 701 181 652 q 442 747 346 750 q 609 684 536 745 q 712 525 682 624 q 875 697 793 646 q 1048 747 957 749 q 1210 692 1141 746 q 1308 547 1278 639 q 1324 378 1333 467 l 1323 363 m 1166 379 q 1168 456 1171 415 l 1164 481 q 1034 614 1141 610 q 880 543 955 615 q 777 379 805 470 l 772 355 q 791 248 768 304 q 857 157 815 192 q 945 120 898 121 q 1089 185 1029 117 q 1165 364 1149 254 l 1166 379 m 218 353 q 217 276 214 317 q 256 163 222 205 q 351 119 291 121 q 453 149 401 117 q 547 240 504 181 q 608 359 590 299 l 612 383 q 602 461 615 420 q 564 536 589 502 q 437 612 509 610 q 294 547 354 616 q 218 353 235 478 z "},"∫":{"ha":373,"x_min":-158,"x_max":544,"o":"m 195 -54 q 112 -236 180 -172 q -67 -298 43 -300 q -158 -283 -106 -298 l -134 -156 q -81 -166 -96 -166 q 34 -50 16 -169 l 163 804 q 250 991 177 924 q 438 1057 323 1059 q 544 1042 474 1057 l 516 917 q 456 926 484 926 q 367 893 401 926 q 324 804 333 861 l 195 -54 z "},"≈":{"ha":774,"x_min":33,"x_max":730,"o":"m 96 618 q 266 690 170 690 q 402 649 329 690 q 502 600 476 608 q 559 592 528 592 q 730 677 642 592 l 715 530 q 557 458 642 457 q 483 472 517 458 q 413 507 449 486 q 342 542 376 528 q 264 556 307 556 q 81 471 174 555 l 96 618 m 47 334 q 214 405 121 405 q 351 364 277 405 q 451 315 425 323 q 507 307 477 307 q 682 392 590 307 l 665 245 q 506 174 593 172 q 444 183 473 174 q 358 224 414 193 q 273 263 302 255 q 213 271 244 271 q 33 186 121 270 l 47 334 z "},"≠":{"ha":761,"x_min":66,"x_max":708,"o":"m 634 241 l 283 241 l 172 88 l 100 135 l 178 241 l 66 241 l 90 378 l 275 378 l 385 529 l 116 529 l 140 666 l 482 666 l 598 825 l 670 779 l 588 666 l 708 666 l 684 529 l 490 529 l 381 378 l 659 378 l 634 241 z "},"≤":{"ha":692,"x_min":-29,"x_max":669,"o":"m 224 476 l 586 340 l 558 198 l 50 426 l 73 543 l 669 771 l 639 616 l 224 476 m 530 14 l -29 14 l -5 146 l 554 146 l 530 14 z "},"≥":{"ha":708,"x_min":16,"x_max":686,"o":"m 513 494 l 133 633 l 160 773 l 686 545 l 663 427 l 50 200 l 79 353 l 513 494 m 575 13 l 16 13 l 39 146 l 599 146 l 575 13 z "},"◊":{"ha":688,"x_min":39,"x_max":674,"o":"m 372 987 l 502 987 l 674 484 l 342 0 l 212 0 l 39 502 l 372 987 m 415 810 l 198 484 l 298 174 l 515 502 l 415 810 z "},"":{"ha":404,"x_min":71,"x_max":357,"o":"m 71 203 q 97 270 71 244 q 164 298 123 296 q 231 274 204 299 q 258 208 258 248 q 232 143 258 169 q 165 115 206 117 q 98 139 125 114 q 71 203 71 164 m 170 779 q 196 846 170 820 q 263 873 222 872 q 330 849 303 875 q 357 784 357 824 q 331 719 357 745 q 264 691 305 692 q 197 715 224 690 q 170 779 170 740 z "},"":{"ha":444,"x_min":69,"x_max":435,"o":"m 174 433 l 69 433 l 121 733 l 226 733 l 174 433 m 382 433 l 278 433 l 331 733 l 435 733 l 382 433 z "},"":{"ha":334,"x_min":-33,"x_max":189,"o":"m 50 -104 l -33 -50 q 45 121 31 40 l 56 178 l 189 178 l 180 119 q 50 -104 155 -14 z "},"ﬁ":{"ha":791,"x_min":51,"x_max":746,"o":"m 54 0 l 159 612 l 51 612 l 73 734 l 176 733 l 185 788 q 294 988 209 917 q 512 1057 380 1059 q 615 1043 565 1056 q 716 1015 666 1030 l 677 879 q 516 913 592 913 q 345 778 372 915 l 336 733 l 482 734 l 460 612 l 321 612 l 214 0 l 54 0 m 619 0 l 458 0 l 585 734 l 746 734 l 619 0 z "},"ﬂ":{"ha":804,"x_min":64,"x_max":806,"o":"m 629 913 q 519 923 555 924 q 415 891 456 923 q 364 795 374 859 l 355 734 l 500 734 l 479 612 l 334 612 l 228 0 l 67 0 l 174 612 l 64 612 l 86 734 l 194 734 l 203 803 q 302 992 221 926 q 510 1057 383 1059 q 658 1045 584 1056 l 806 1023 l 633 0 l 473 0 l 629 913 z "},"ﬃ":{"ha":1208,"x_min":64,"x_max":1164,"o":"m 67 0 l 174 612 l 64 612 l 86 734 l 195 734 l 203 799 q 296 991 220 923 q 490 1058 372 1059 q 585 1044 530 1057 l 567 916 q 507 922 537 922 q 412 891 449 923 q 366 803 376 859 l 355 734 l 594 733 l 606 799 q 715 990 631 922 q 930 1057 800 1059 q 1034 1043 983 1056 q 1135 1015 1084 1030 l 1095 879 q 934 913 1013 912 q 764 778 791 915 l 755 733 l 901 734 l 879 612 l 739 612 l 633 0 l 472 0 l 578 612 l 334 612 l 228 0 l 67 0 m 1037 0 l 876 0 l 1004 734 l 1164 734 l 1037 0 z "},"ﬄ":{"ha":1208,"x_min":64,"x_max":1211,"o":"m 67 0 l 174 612 l 64 612 l 86 734 l 195 734 l 203 798 q 297 991 220 923 q 491 1057 374 1060 q 585 1044 525 1057 l 567 916 q 507 922 530 922 q 413 891 450 923 q 366 803 376 859 l 355 734 l 599 734 l 608 803 q 706 992 625 926 q 914 1057 787 1059 q 1051 1047 983 1057 l 1211 1023 l 1037 0 l 876 0 l 1037 912 q 924 923 946 923 q 821 892 862 923 q 769 799 780 861 l 760 734 l 905 734 l 884 612 l 739 612 l 633 0 l 472 0 l 578 612 l 334 612 l 228 0 l 67 0 z "},"﻿":{"ha":0,"x_min":0,"x_max":0,"o":""},"￼":{"ha":1385,"x_min":-59,"x_max":1436,"o":"m 531 317 q 478 207 524 248 q 367 168 432 166 q 262 211 301 169 q 225 317 222 254 l 231 393 q 281 501 236 458 q 395 543 326 544 q 497 500 458 541 q 536 393 537 460 l 531 317 m 544 171 l 609 543 l 723 543 q 850 446 852 538 q 836 400 849 419 q 785 359 823 381 q 839 280 839 340 q 802 201 839 231 q 700 170 765 172 l 544 171 m 475 395 q 461 466 480 439 q 404 494 443 493 q 332 467 361 496 q 296 393 303 439 l 286 317 q 300 246 281 273 q 359 217 319 218 q 430 243 401 216 q 466 317 458 271 l 475 395 m 1128 545 l 1195 545 l 1155 288 q 1114 204 1149 235 q 1025 172 1078 172 q 933 200 968 172 q 897 286 899 228 l 957 284 q 1013 221 954 220 q 1063 240 1043 221 q 1088 288 1082 260 l 1128 545 m -59 -270 l -22 -56 l 54 -56 l 29 -193 l 159 -193 l 145 -270 l -59 -270 m 1013 -270 l 1026 -193 l 1156 -193 l 1181 -56 l 1255 -56 l 1217 -270 l 1013 -270 m 125 793 l 159 986 l 363 986 l 349 907 l 220 907 l 200 793 l 125 793 m 1217 907 l 1230 986 l 1436 986 l 1401 793 l 1327 793 l 1348 907 l 1217 907 m 637 336 l 616 222 l 690 222 q 777 283 765 225 q 731 336 786 331 l 637 336 m 954 907 l 968 986 l 1152 986 l 1138 907 l 954 907 m 691 907 l 705 986 l 889 986 l 875 907 l 691 907 m 429 907 l 443 986 l 626 986 l 612 907 l 429 907 m 750 -270 l 764 -193 l 947 -193 l 934 -270 l 750 -270 m 488 -270 l 501 -193 l 684 -193 l 671 -270 l 488 -270 m 225 -270 l 239 -193 l 421 -193 l 408 -270 l 225 -270 m 640 382 l 699 383 q 792 442 781 387 q 755 484 799 479 l 732 486 l 667 488 l 640 382 m 112 282 l 36 282 l 66 453 l 142 453 l 112 282 m 156 538 l 81 538 l 111 708 l 186 708 l 156 538 m 68 28 l -8 28 l 22 197 l 98 197 l 68 28 m 1313 282 l 1239 282 l 1269 453 l 1343 453 l 1313 282 m 1357 538 l 1283 538 l 1313 708 l 1388 708 l 1357 538 m 1269 28 l 1194 28 l 1225 197 l 1299 197 l 1269 28 z "},"�":{"ha":1425,"x_min":62,"x_max":1361,"o":"m 711 1097 l 1361 436 l 711 -225 l 62 436 l 711 1097 m 767 273 q 777 332 767 312 q 812 368 787 351 q 893 440 862 394 q 924 536 924 486 q 868 674 924 623 q 710 725 811 725 q 558 678 612 725 q 503 545 504 631 l 640 545 q 661 597 642 579 q 710 614 681 614 q 768 593 749 614 q 787 536 787 571 q 724 431 787 471 q 646 355 662 387 q 630 273 630 324 l 767 273 m 767 211 l 630 211 l 630 96 l 767 96 l 767 211 m 716 -374 l 719 -374 l 719 -376 l 716 -376 l 716 -374 m 715 1467 l 718 1467 l 718 1464 l 715 1464 l 715 1467 z "}," ":{"ha":342,"x_min":0,"x_max":0,"o":""},"­":{"ha":449,"x_min":37,"x_max":407,"o":"m 383 353 l 37 353 l 60 486 l 407 486 l 383 353 z "},"Đ":{"ha":907,"x_min":-1,"x_max":867,"o":"m 47 0 l 123 442 l -1 442 l 20 557 l 143 557 l 218 987 l 485 987 q 697 925 608 987 q 827 756 787 864 q 851 517 867 648 l 844 464 q 754 222 823 328 q 574 58 684 117 q 333 0 465 0 l 47 0 m 441 442 l 291 442 l 238 137 l 337 136 q 560 221 471 136 q 673 456 648 307 q 686 636 691 559 q 629 790 680 734 q 487 848 578 846 l 361 849 l 311 557 l 461 557 l 441 442 z "},"Ð":{"ha":907,"x_min":-1,"x_max":867,"o":"m 47 0 l 123 442 l -1 442 l 20 557 l 143 557 l 218 987 l 485 987 q 697 925 608 987 q 827 756 787 864 q 851 517 867 648 l 844 464 q 754 222 823 328 q 574 58 684 117 q 333 0 465 0 l 47 0 m 441 442 l 291 442 l 238 137 l 337 136 q 560 221 471 136 q 673 456 648 307 q 686 636 691 559 q 629 790 680 734 q 487 848 578 846 l 361 849 l 311 557 l 461 557 l 441 442 z "},"ħ":{"ha":775,"x_min":29,"x_max":710,"o":"m 485 829 l 330 829 l 296 653 q 505 747 388 749 q 660 673 609 745 q 697 472 710 600 l 618 0 l 458 0 l 538 474 q 539 528 541 503 q 441 613 530 611 q 281 525 352 614 l 190 0 l 29 0 l 173 829 l 43 829 l 64 945 l 193 945 l 210 1042 l 371 1042 l 352 945 l 505 945 l 485 829 z "},"Ŧ":{"ha":825,"x_min":106,"x_max":891,"o":"m 650 533 l 513 533 l 421 0 l 254 0 l 347 533 l 208 533 l 229 648 l 367 648 l 402 849 l 106 849 l 130 987 l 891 987 l 867 849 l 568 849 l 533 648 l 670 648 l 650 533 z "},"ŧ":{"ha":455,"x_min":-20,"x_max":465,"o":"m 421 385 l 279 385 l 249 201 q 248 170 247 184 q 302 124 252 126 q 359 130 328 124 l 349 1 q 248 -13 298 -13 q 122 44 163 -12 q 89 193 80 100 l 120 385 l -20 385 l 0 500 l 139 500 l 157 612 l 40 612 l 62 734 l 178 734 l 210 912 l 371 912 l 340 734 l 465 734 l 444 612 l 318 612 l 299 500 l 441 500 l 421 385 z "},"À":{"ha":903,"x_min":-62,"x_max":812,"o":"m 606 230 l 236 230 l 118 0 l -62 0 l 471 987 l 621 987 l 812 0 l 644 0 l 606 230 m 307 368 l 583 368 l 516 777 l 307 368 m 641 1046 l 518 1046 l 372 1252 l 545 1252 l 641 1046 z "},"Á":{"ha":903,"x_min":-62,"x_max":830,"o":"m 606 230 l 236 230 l 118 0 l -62 0 l 471 987 l 621 987 l 812 0 l 644 0 l 606 230 m 307 368 l 583 368 l 516 777 l 307 368 m 637 1252 l 830 1252 l 616 1046 l 476 1046 l 637 1252 z "},"Â":{"ha":903,"x_min":-62,"x_max":812,"o":"m 606 230 l 236 230 l 118 0 l -62 0 l 471 987 l 621 987 l 812 0 l 644 0 l 606 230 m 307 368 l 583 368 l 516 777 l 307 368 m 793 1066 l 793 1055 l 667 1057 l 588 1162 l 471 1057 l 340 1055 l 339 1067 l 543 1253 l 635 1253 l 793 1066 z "},"Ã":{"ha":903,"x_min":-62,"x_max":831,"o":"m 606 230 l 236 230 l 118 0 l -62 0 l 471 987 l 621 987 l 812 0 l 644 0 l 606 230 m 307 368 l 583 368 l 516 777 l 307 368 m 831 1237 q 779 1109 823 1156 q 671 1061 735 1061 q 640 1066 655 1061 q 588 1092 625 1071 q 534 1119 552 1112 q 497 1124 517 1125 q 425 1054 444 1122 l 324 1059 q 375 1188 331 1137 q 484 1238 419 1239 q 568 1207 517 1237 q 642 1174 618 1177 l 659 1173 q 732 1244 713 1175 l 831 1237 z "},"Ä":{"ha":903,"x_min":-62,"x_max":812,"o":"m 606 230 l 236 230 l 118 0 l -62 0 l 471 987 l 621 987 l 812 0 l 644 0 l 606 230 m 307 368 l 583 368 l 516 777 l 307 368 m 426 1217 q 486 1195 463 1217 q 510 1139 510 1172 q 486 1081 510 1104 q 427 1056 463 1057 q 366 1079 389 1056 q 342 1135 342 1102 q 366 1192 342 1167 q 426 1217 389 1216 m 644 1134 q 668 1193 644 1170 q 726 1217 692 1215 q 787 1194 764 1217 q 810 1138 810 1171 q 787 1080 810 1103 q 727 1055 763 1057 q 666 1078 689 1055 q 644 1134 644 1101 z "},"Å":{"ha":903,"x_min":-62,"x_max":812,"o":"m 606 230 l 236 230 l 118 0 l -62 0 l 471 987 l 621 987 l 812 0 l 644 0 l 606 230 m 307 368 l 583 368 l 516 777 l 307 368 m 438 1169 q 483 1273 438 1230 q 591 1316 528 1316 q 688 1277 647 1316 q 730 1180 730 1237 q 685 1077 730 1120 q 577 1035 640 1035 q 478 1074 518 1035 q 438 1169 438 1114 m 511 1171 q 524 1121 507 1143 q 570 1099 541 1099 q 628 1123 604 1099 q 657 1179 653 1147 q 645 1230 661 1208 q 599 1251 628 1251 q 540 1226 565 1251 q 511 1171 515 1202 z "},"Ǻ":{"ha":903,"x_min":-62,"x_max":842,"o":"m 606 230 l 236 230 l 118 0 l -62 0 l 471 987 l 621 987 l 812 0 l 644 0 l 606 230 m 307 368 l 583 368 l 516 777 l 307 368 m 676 1335 l 842 1335 l 658 1204 l 545 1204 l 676 1335 m 441 1048 q 478 1138 441 1102 q 568 1175 515 1175 q 652 1139 619 1175 q 686 1058 686 1104 q 649 970 686 1006 q 561 935 612 935 q 475 968 509 935 q 441 1048 441 1002 m 507 1050 q 552 995 509 995 q 596 1014 576 995 q 620 1057 616 1032 q 610 1098 623 1081 q 578 1114 598 1114 q 533 1097 552 1114 q 507 1050 515 1079 z "},"Ç":{"ha":886,"x_min":68,"x_max":877,"o":"m 810 322 q 671 76 785 168 q 393 -14 557 -16 q 228 31 299 -12 q 117 156 157 74 q 73 340 77 237 q 92 551 68 418 q 180 790 115 684 q 341 949 245 896 q 553 1001 436 1003 q 786 908 700 998 q 877 661 871 819 l 711 661 q 666 813 707 766 q 545 863 625 861 q 359 783 434 866 q 259 543 285 701 l 245 452 l 239 383 q 249 252 234 313 q 303 158 264 191 q 401 124 342 126 q 644 321 591 117 l 810 322 m 433 -1 l 420 -41 q 484 -79 463 -50 q 505 -151 505 -108 q 443 -265 503 -224 q 269 -309 382 -305 l 271 -214 q 374 -149 363 -210 q 325 -99 380 -108 l 287 -95 l 317 -2 l 433 -1 z "},"È":{"ha":768,"x_min":26,"x_max":821,"o":"m 664 441 l 271 441 l 218 137 l 677 137 l 654 0 l 26 0 l 197 987 l 821 987 l 796 849 l 341 849 l 294 576 l 688 576 l 664 441 m 603 1051 l 480 1051 l 334 1257 l 507 1257 l 603 1051 z "},"É":{"ha":768,"x_min":26,"x_max":821,"o":"m 664 441 l 271 441 l 218 137 l 677 137 l 654 0 l 26 0 l 197 987 l 821 987 l 796 849 l 341 849 l 294 576 l 688 576 l 664 441 m 599 1257 l 792 1257 l 578 1051 l 438 1051 l 599 1257 z "},"Ê":{"ha":768,"x_min":26,"x_max":821,"o":"m 664 441 l 271 441 l 218 137 l 677 137 l 654 0 l 26 0 l 197 987 l 821 987 l 796 849 l 341 849 l 294 576 l 688 576 l 664 441 m 755 1071 l 755 1059 l 629 1061 l 550 1166 l 433 1062 l 302 1059 l 301 1072 l 505 1257 l 597 1257 l 755 1071 z "},"Ë":{"ha":768,"x_min":26,"x_max":821,"o":"m 664 441 l 271 441 l 218 137 l 677 137 l 654 0 l 26 0 l 197 987 l 821 987 l 796 849 l 341 849 l 294 576 l 688 576 l 664 441 m 388 1222 q 448 1199 425 1222 q 472 1143 472 1177 q 448 1085 472 1109 q 389 1061 425 1062 q 328 1084 351 1061 q 304 1139 304 1107 q 328 1196 304 1172 q 388 1222 351 1221 m 606 1139 q 630 1197 606 1175 q 688 1221 654 1220 q 749 1198 726 1221 q 772 1143 772 1175 q 749 1085 772 1108 q 689 1060 725 1061 q 628 1083 651 1060 q 606 1139 606 1105 z "},"Ì":{"ha":387,"x_min":36,"x_max":381,"o":"m 203 0 l 36 0 l 208 987 l 374 987 l 203 0 m 381 1051 l 258 1051 l 113 1257 l 285 1257 l 381 1051 z "},"Í":{"ha":387,"x_min":36,"x_max":570,"o":"m 203 0 l 36 0 l 208 987 l 374 987 l 203 0 m 376 1257 l 570 1257 l 355 1051 l 216 1051 l 376 1257 z "},"Î":{"ha":387,"x_min":36,"x_max":533,"o":"m 203 0 l 36 0 l 208 987 l 374 987 l 203 0 m 533 1071 l 533 1059 l 408 1061 l 328 1166 l 211 1062 l 80 1059 l 79 1072 l 283 1257 l 376 1257 l 533 1071 z "},"Ï":{"ha":387,"x_min":36,"x_max":551,"o":"m 203 0 l 36 0 l 208 987 l 374 987 l 203 0 m 166 1222 q 227 1199 203 1222 q 250 1143 250 1177 q 227 1085 250 1109 q 167 1061 203 1062 q 106 1084 129 1061 q 83 1139 83 1107 q 106 1196 83 1172 q 166 1222 129 1221 m 384 1139 q 408 1197 384 1175 q 467 1221 432 1220 q 528 1198 505 1221 q 551 1143 551 1175 q 527 1085 551 1108 q 467 1060 503 1061 q 407 1083 429 1060 q 384 1139 384 1105 z "},"Ñ":{"ha":963,"x_min":26,"x_max":959,"o":"m 787 0 l 625 0 l 317 707 l 194 0 l 26 0 l 198 987 l 360 987 l 669 277 l 792 987 l 959 987 l 787 0 m 858 1237 q 806 1109 850 1156 q 699 1061 762 1061 q 667 1066 682 1061 q 615 1092 652 1071 q 562 1119 579 1112 q 524 1124 544 1125 q 452 1054 471 1122 l 351 1059 q 402 1188 358 1137 q 511 1238 446 1239 q 595 1207 544 1237 q 669 1174 646 1177 l 686 1173 q 760 1244 741 1175 l 858 1237 z "},"Ò":{"ha":937,"x_min":73,"x_max":890,"o":"m 406 -14 q 237 33 310 -12 q 123 160 164 77 q 77 351 83 244 q 93 549 73 435 q 164 755 113 662 q 286 907 215 848 q 557 1001 404 1004 q 791 900 704 998 q 886 634 878 802 q 871 441 890 550 q 805 241 852 332 q 688 89 758 150 q 406 -14 567 -17 m 715 520 l 721 592 q 708 729 725 666 q 651 824 691 791 q 549 859 610 857 q 397 811 463 862 q 290 656 331 760 q 242 396 249 553 q 280 201 235 272 q 414 127 325 130 q 608 215 532 123 q 708 473 684 307 l 715 520 m 656 1046 l 534 1046 l 388 1252 l 560 1252 l 656 1046 z "},"Ó":{"ha":937,"x_min":73,"x_max":890,"o":"m 406 -14 q 237 33 310 -12 q 123 160 164 77 q 77 351 83 244 q 93 549 73 435 q 164 755 113 662 q 286 907 215 848 q 557 1001 404 1004 q 791 900 704 998 q 886 634 878 802 q 871 441 890 550 q 805 241 852 332 q 688 89 758 150 q 406 -14 567 -17 m 715 520 l 721 592 q 708 729 725 666 q 651 824 691 791 q 549 859 610 857 q 397 811 463 862 q 290 656 331 760 q 242 396 249 553 q 280 201 235 272 q 414 127 325 130 q 608 215 532 123 q 708 473 684 307 l 715 520 m 652 1252 l 846 1252 l 631 1046 l 492 1046 l 652 1252 z "},"Ô":{"ha":937,"x_min":73,"x_max":890,"o":"m 406 -14 q 237 33 310 -12 q 123 160 164 77 q 77 351 83 244 q 93 549 73 435 q 164 755 113 662 q 286 907 215 848 q 557 1001 404 1004 q 791 900 704 998 q 886 634 878 802 q 871 441 890 550 q 805 241 852 332 q 688 89 758 150 q 406 -14 567 -17 m 715 520 l 721 592 q 708 729 725 666 q 651 824 691 791 q 549 859 610 857 q 397 811 463 862 q 290 656 331 760 q 242 396 249 553 q 280 201 235 272 q 414 127 325 130 q 608 215 532 123 q 708 473 684 307 l 715 520 m 808 1066 l 808 1055 l 683 1057 l 604 1162 l 486 1057 l 355 1055 l 355 1067 l 559 1253 l 651 1253 l 808 1066 z "},"Õ":{"ha":937,"x_min":73,"x_max":890,"o":"m 406 -14 q 237 33 310 -12 q 123 160 164 77 q 77 351 83 244 q 93 549 73 435 q 164 755 113 662 q 286 907 215 848 q 557 1001 404 1004 q 791 900 704 998 q 886 634 878 802 q 871 441 890 550 q 805 241 852 332 q 688 89 758 150 q 406 -14 567 -17 m 715 520 l 721 592 q 708 729 725 666 q 651 824 691 791 q 549 859 610 857 q 397 811 463 862 q 290 656 331 760 q 242 396 249 553 q 280 201 235 272 q 414 127 325 130 q 608 215 532 123 q 708 473 684 307 l 715 520 m 846 1237 q 794 1109 838 1156 q 687 1061 751 1061 q 655 1066 671 1061 q 604 1092 640 1071 q 550 1119 568 1112 q 513 1124 532 1125 q 441 1054 459 1122 l 340 1059 q 391 1188 347 1137 q 500 1238 435 1239 q 583 1207 532 1237 q 657 1174 634 1177 l 674 1173 q 748 1244 729 1175 l 846 1237 z "},"Ö":{"ha":937,"x_min":73,"x_max":890,"o":"m 406 -14 q 237 33 310 -12 q 123 160 164 77 q 77 351 83 244 q 93 549 73 435 q 164 755 113 662 q 286 907 215 848 q 557 1001 404 1004 q 791 900 704 998 q 886 634 878 802 q 871 441 890 550 q 805 241 852 332 q 688 89 758 150 q 406 -14 567 -17 m 715 520 l 721 592 q 708 729 725 666 q 651 824 691 791 q 549 859 610 857 q 397 811 463 862 q 290 656 331 760 q 242 396 249 553 q 280 201 235 272 q 414 127 325 130 q 608 215 532 123 q 708 473 684 307 l 715 520 m 441 1217 q 502 1195 478 1217 q 526 1139 526 1172 q 502 1081 526 1104 q 442 1056 478 1057 q 381 1079 404 1056 q 358 1135 358 1102 q 381 1192 358 1167 q 441 1217 404 1216 m 659 1134 q 683 1193 659 1170 q 742 1217 707 1215 q 803 1194 780 1217 q 826 1138 826 1171 q 802 1080 826 1103 q 743 1055 779 1057 q 682 1078 705 1055 q 659 1134 659 1101 z "},"Ù":{"ha":885,"x_min":62,"x_max":900,"o":"m 900 987 l 788 328 q 653 76 765 170 q 381 -15 541 -18 q 148 75 233 -12 q 69 301 62 161 l 71 327 l 183 987 l 350 987 l 238 326 q 266 179 226 232 q 389 123 306 126 q 542 173 481 121 q 620 323 603 225 l 733 987 l 900 987 m 629 1046 l 507 1046 l 361 1252 l 533 1252 l 629 1046 z "},"Ú":{"ha":885,"x_min":62,"x_max":900,"o":"m 900 987 l 788 328 q 653 76 765 170 q 381 -15 541 -18 q 148 75 233 -12 q 69 301 62 161 l 71 327 l 183 987 l 350 987 l 238 326 q 266 179 226 232 q 389 123 306 126 q 542 173 481 121 q 620 323 603 225 l 733 987 l 900 987 m 625 1252 l 819 1252 l 604 1046 l 465 1046 l 625 1252 z "},"Û":{"ha":885,"x_min":62,"x_max":900,"o":"m 900 987 l 788 328 q 653 76 765 170 q 381 -15 541 -18 q 148 75 233 -12 q 69 301 62 161 l 71 327 l 183 987 l 350 987 l 238 326 q 266 179 226 232 q 389 123 306 126 q 542 173 481 121 q 620 323 603 225 l 733 987 l 900 987 m 781 1066 l 781 1055 l 656 1057 l 576 1162 l 459 1057 l 328 1055 l 328 1067 l 532 1253 l 624 1253 l 781 1066 z "},"Ü":{"ha":885,"x_min":62,"x_max":900,"o":"m 900 987 l 788 328 q 653 76 765 170 q 381 -15 541 -18 q 148 75 233 -12 q 69 301 62 161 l 71 327 l 183 987 l 350 987 l 238 326 q 266 179 226 232 q 389 123 306 126 q 542 173 481 121 q 620 323 603 225 l 733 987 l 900 987 m 414 1217 q 475 1195 451 1217 q 498 1139 498 1172 q 475 1081 498 1104 q 415 1056 451 1057 q 354 1079 377 1056 q 331 1135 331 1102 q 354 1192 331 1167 q 414 1217 377 1216 m 632 1134 q 656 1193 632 1170 q 715 1217 680 1215 q 776 1194 753 1217 q 799 1138 799 1171 q 775 1080 799 1103 q 715 1055 751 1057 q 655 1078 677 1055 q 632 1134 632 1101 z "},"Ý":{"ha":828,"x_min":109,"x_max":920,"o":"m 425 521 l 726 987 l 920 987 l 485 355 l 423 0 l 255 0 l 320 372 l 109 987 l 286 987 l 425 521 m 598 1252 l 791 1252 l 577 1046 l 437 1046 l 598 1252 z "},"à":{"ha":736,"x_min":23,"x_max":670,"o":"m 447 0 q 440 68 439 27 q 244 -14 349 -16 q 86 48 149 -12 q 27 200 23 108 q 127 382 33 316 q 382 449 222 449 l 487 448 l 496 498 q 496 547 500 524 q 399 623 483 621 q 309 596 348 624 q 261 523 270 569 l 100 522 q 149 641 105 589 q 264 720 192 692 q 416 747 336 749 q 603 675 536 745 q 659 495 670 606 l 602 151 l 597 90 q 607 12 595 50 l 606 0 l 447 0 m 281 118 q 376 141 332 117 q 450 205 419 166 l 475 345 l 398 345 q 253 311 307 345 q 191 217 199 277 q 211 145 186 172 q 281 118 237 119 m 527 836 l 404 836 l 258 1042 l 431 1042 l 527 836 z "},"á":{"ha":736,"x_min":23,"x_max":716,"o":"m 447 0 q 440 68 439 27 q 244 -14 349 -16 q 86 48 149 -12 q 27 200 23 108 q 127 382 33 316 q 382 449 222 449 l 487 448 l 496 498 q 496 547 500 524 q 399 623 483 621 q 309 596 348 624 q 261 523 270 569 l 100 522 q 149 641 105 589 q 264 720 192 692 q 416 747 336 749 q 603 675 536 745 q 659 495 670 606 l 602 151 l 597 90 q 607 12 595 50 l 606 0 l 447 0 m 281 118 q 376 141 332 117 q 450 205 419 166 l 475 345 l 398 345 q 253 311 307 345 q 191 217 199 277 q 211 145 186 172 q 281 118 237 119 m 523 1042 l 716 1042 l 502 836 l 362 836 l 523 1042 z "},"â":{"ha":736,"x_min":23,"x_max":679,"o":"m 447 0 q 440 68 439 27 q 244 -14 349 -16 q 86 48 149 -12 q 27 200 23 108 q 127 382 33 316 q 382 449 222 449 l 487 448 l 496 498 q 496 547 500 524 q 399 623 483 621 q 309 596 348 624 q 261 523 270 569 l 100 522 q 149 641 105 589 q 264 720 192 692 q 416 747 336 749 q 603 675 536 745 q 659 495 670 606 l 602 151 l 597 90 q 607 12 595 50 l 606 0 l 447 0 m 281 118 q 376 141 332 117 q 450 205 419 166 l 475 345 l 398 345 q 253 311 307 345 q 191 217 199 277 q 211 145 186 172 q 281 118 237 119 m 679 856 l 679 844 l 553 846 l 474 951 l 357 847 l 226 844 l 225 857 l 429 1042 l 522 1042 l 679 856 z "},"ã":{"ha":736,"x_min":23,"x_max":717,"o":"m 447 0 q 440 68 439 27 q 244 -14 349 -16 q 86 48 149 -12 q 27 200 23 108 q 127 382 33 316 q 382 449 222 449 l 487 448 l 496 498 q 496 547 500 524 q 399 623 483 621 q 309 596 348 624 q 261 523 270 569 l 100 522 q 149 641 105 589 q 264 720 192 692 q 416 747 336 749 q 603 675 536 745 q 659 495 670 606 l 602 151 l 597 90 q 607 12 595 50 l 606 0 l 447 0 m 281 118 q 376 141 332 117 q 450 205 419 166 l 475 345 l 398 345 q 253 311 307 345 q 191 217 199 277 q 211 145 186 172 q 281 118 237 119 m 717 1027 q 665 899 709 946 q 557 851 621 851 q 526 856 541 851 q 474 881 511 861 q 420 908 438 902 q 383 914 403 915 q 311 844 330 912 l 210 849 q 261 978 217 926 q 370 1027 305 1029 q 454 997 403 1027 q 528 964 505 966 l 545 963 q 618 1034 600 965 l 717 1027 z "},"ä":{"ha":736,"x_min":23,"x_max":696,"o":"m 447 0 q 440 68 439 27 q 244 -14 349 -16 q 86 48 149 -12 q 27 200 23 108 q 127 382 33 316 q 382 449 222 449 l 487 448 l 496 498 q 496 547 500 524 q 399 623 483 621 q 309 596 348 624 q 261 523 270 569 l 100 522 q 149 641 105 589 q 264 720 192 692 q 416 747 336 749 q 603 675 536 745 q 659 495 670 606 l 602 151 l 597 90 q 607 12 595 50 l 606 0 l 447 0 m 281 118 q 376 141 332 117 q 450 205 419 166 l 475 345 l 398 345 q 253 311 307 345 q 191 217 199 277 q 211 145 186 172 q 281 118 237 119 m 312 1007 q 372 984 349 1007 q 396 928 396 962 q 372 870 396 894 q 313 846 349 847 q 252 869 275 846 q 229 924 229 892 q 252 981 229 957 q 312 1007 275 1006 m 530 924 q 554 982 530 960 q 612 1006 578 1005 q 673 983 650 1006 q 696 928 696 960 q 673 870 696 893 q 613 845 649 846 q 552 868 575 845 q 530 924 530 890 z "},"å":{"ha":736,"x_min":23,"x_max":670,"o":"m 447 0 q 440 68 439 27 q 244 -14 349 -16 q 86 48 149 -12 q 27 200 23 108 q 127 382 33 316 q 382 449 222 449 l 487 448 l 496 498 q 496 547 500 524 q 399 623 483 621 q 309 596 348 624 q 261 523 270 569 l 100 522 q 149 641 105 589 q 264 720 192 692 q 416 747 336 749 q 603 675 536 745 q 659 495 670 606 l 602 151 l 597 90 q 607 12 595 50 l 606 0 l 447 0 m 281 118 q 376 141 332 117 q 450 205 419 166 l 475 345 l 398 345 q 253 311 307 345 q 191 217 199 277 q 211 145 186 172 q 281 118 237 119 m 324 959 q 369 1063 324 1020 q 477 1106 414 1106 q 574 1066 533 1106 q 616 970 616 1027 q 571 867 616 909 q 463 825 526 825 q 364 864 404 825 q 324 959 324 903 m 397 960 q 410 911 393 933 q 456 888 427 888 q 514 913 490 888 q 543 968 539 937 q 531 1019 547 998 q 485 1041 514 1041 q 426 1016 451 1041 q 397 960 401 991 z "},"ǻ":{"ha":736,"x_min":23,"x_max":728,"o":"m 447 0 q 440 68 439 27 q 244 -14 349 -16 q 86 48 149 -12 q 27 200 23 108 q 127 382 33 316 q 382 449 222 449 l 487 448 l 496 498 q 496 547 500 524 q 399 623 483 621 q 309 596 348 624 q 261 523 270 569 l 100 522 q 149 641 105 589 q 264 720 192 692 q 416 747 336 749 q 603 675 536 745 q 659 495 670 606 l 602 151 l 597 90 q 607 12 595 50 l 606 0 l 447 0 m 281 118 q 376 141 332 117 q 450 205 419 166 l 475 345 l 398 345 q 253 311 307 345 q 191 217 199 277 q 211 145 186 172 q 281 118 237 119 m 562 1126 l 728 1125 l 544 994 l 431 995 l 562 1126 m 327 839 q 364 929 327 892 q 454 965 401 965 q 538 930 505 965 q 572 848 572 895 q 535 761 572 796 q 447 726 498 726 q 361 759 395 726 q 327 839 327 792 m 393 840 q 438 785 395 785 q 482 804 463 785 q 506 847 502 823 q 496 888 509 871 q 464 905 484 905 q 419 887 438 905 q 393 840 401 869 z "},"ç":{"ha":712,"x_min":38,"x_max":682,"o":"m 331 117 q 433 151 389 116 q 490 242 477 186 l 642 243 q 589 111 634 170 q 473 18 544 51 q 326 -14 403 -16 q 165 35 232 -12 q 68 166 99 83 q 48 353 38 250 l 50 377 q 112 570 62 484 q 243 703 163 656 q 420 747 323 750 q 611 668 540 745 q 682 470 682 592 l 532 470 q 501 573 532 533 q 412 616 470 613 q 263 536 317 618 q 205 302 209 453 q 331 117 200 120 m 348 -1 l 335 -41 q 398 -79 377 -50 q 419 -151 420 -108 q 357 -265 418 -224 q 184 -309 297 -305 l 185 -214 q 289 -149 278 -210 q 239 -99 295 -108 l 201 -95 l 232 -2 l 348 -1 z "},"è":{"ha":730,"x_min":40,"x_max":696,"o":"m 343 -14 q 177 35 248 -12 q 74 161 107 81 q 48 339 40 241 l 50 367 q 116 568 62 479 q 248 703 169 657 q 420 747 328 749 q 627 645 558 745 q 679 385 696 545 l 669 315 l 208 315 q 243 174 201 227 q 357 119 284 120 q 548 209 460 115 l 629 123 q 508 21 583 58 q 343 -14 433 -15 m 412 616 q 220 435 284 620 l 525 435 l 528 449 q 528 510 532 480 q 490 586 521 558 q 412 616 460 614 m 511 836 l 389 836 l 243 1042 l 415 1042 l 511 836 z "},"é":{"ha":730,"x_min":40,"x_max":701,"o":"m 343 -14 q 177 35 248 -12 q 74 161 107 81 q 48 339 40 241 l 50 367 q 116 568 62 479 q 248 703 169 657 q 420 747 328 749 q 627 645 558 745 q 679 385 696 545 l 669 315 l 208 315 q 243 174 201 227 q 357 119 284 120 q 548 209 460 115 l 629 123 q 508 21 583 58 q 343 -14 433 -15 m 412 616 q 220 435 284 620 l 525 435 l 528 449 q 528 510 532 480 q 490 586 521 558 q 412 616 460 614 m 507 1042 l 701 1042 l 486 836 l 347 836 l 507 1042 z "},"ê":{"ha":730,"x_min":40,"x_max":696,"o":"m 343 -14 q 177 35 248 -12 q 74 161 107 81 q 48 339 40 241 l 50 367 q 116 568 62 479 q 248 703 169 657 q 420 747 328 749 q 627 645 558 745 q 679 385 696 545 l 669 315 l 208 315 q 243 174 201 227 q 357 119 284 120 q 548 209 460 115 l 629 123 q 508 21 583 58 q 343 -14 433 -15 m 412 616 q 220 435 284 620 l 525 435 l 528 449 q 528 510 532 480 q 490 586 521 558 q 412 616 460 614 m 663 856 l 663 844 l 538 846 l 458 951 l 341 847 l 210 844 l 210 857 l 414 1042 l 506 1042 l 663 856 z "},"ë":{"ha":730,"x_min":40,"x_max":696,"o":"m 343 -14 q 177 35 248 -12 q 74 161 107 81 q 48 339 40 241 l 50 367 q 116 568 62 479 q 248 703 169 657 q 420 747 328 749 q 627 645 558 745 q 679 385 696 545 l 669 315 l 208 315 q 243 174 201 227 q 357 119 284 120 q 548 209 460 115 l 629 123 q 508 21 583 58 q 343 -14 433 -15 m 412 616 q 220 435 284 620 l 525 435 l 528 449 q 528 510 532 480 q 490 586 521 558 q 412 616 460 614 m 296 1007 q 357 984 333 1007 q 380 928 380 962 q 357 870 380 894 q 297 846 333 847 q 236 869 259 846 q 213 924 213 892 q 236 981 213 957 q 296 1007 259 1006 m 514 924 q 538 982 514 960 q 597 1006 562 1005 q 658 983 635 1006 q 681 928 681 960 q 657 870 681 893 q 597 845 633 846 q 537 868 559 845 q 514 924 514 890 z "},"ì":{"ha":361,"x_min":23,"x_max":330,"o":"m 184 0 l 23 0 l 151 734 l 311 734 l 184 0 m 330 831 l 208 831 l 62 1037 l 234 1037 l 330 831 z "},"í":{"ha":361,"x_min":23,"x_max":519,"o":"m 184 0 l 23 0 l 151 734 l 311 734 l 184 0 m 326 1037 l 519 1037 l 304 831 l 165 831 l 326 1037 z "},"î":{"ha":361,"x_min":23,"x_max":482,"o":"m 184 0 l 23 0 l 151 734 l 311 734 l 184 0 m 482 851 l 482 840 l 357 842 l 277 947 l 160 842 l 29 840 l 28 852 l 233 1038 l 325 1038 l 482 851 z "},"ï":{"ha":361,"x_min":23,"x_max":500,"o":"m 184 0 l 23 0 l 151 734 l 311 734 l 184 0 m 115 1002 q 176 980 152 1002 q 199 924 199 957 q 176 866 199 889 q 116 841 152 842 q 55 864 78 841 q 32 920 32 887 q 55 977 32 952 q 115 1002 78 1001 m 333 919 q 357 978 333 955 q 416 1002 381 1000 q 477 979 454 1002 q 500 923 500 956 q 476 865 500 888 q 416 840 452 842 q 356 863 378 840 q 333 919 333 886 z "},"ñ":{"ha":756,"x_min":9,"x_max":721,"o":"m 287 734 l 271 648 q 488 747 365 750 q 641 674 591 745 q 677 474 690 602 l 598 0 l 437 0 l 517 476 q 518 530 521 505 q 422 613 509 611 q 261 523 330 614 l 170 0 l 9 0 l 136 734 l 287 734 m 721 1027 q 669 899 713 946 q 562 851 625 851 q 530 856 545 851 q 478 881 515 861 q 425 908 442 902 q 387 914 407 915 q 315 844 334 912 l 214 849 q 265 978 221 926 q 374 1027 309 1029 q 458 997 407 1027 q 532 964 509 966 l 549 963 q 623 1034 604 965 l 721 1027 z "},"ò":{"ha":774,"x_min":39,"x_max":721,"o":"m 50 370 q 113 566 61 477 q 246 702 165 654 q 427 747 328 750 q 589 697 521 746 q 689 564 658 648 q 711 375 721 479 q 648 169 701 258 q 514 32 595 79 q 332 -14 432 -16 q 171 36 239 -12 q 71 169 102 85 q 47 355 39 254 l 50 370 m 208 277 q 245 162 211 205 q 340 117 279 119 q 479 181 423 115 q 549 361 535 247 l 553 427 q 519 564 553 514 q 418 616 484 613 q 256 515 315 618 q 210 370 220 452 q 208 277 205 313 m 525 836 l 402 836 l 256 1042 l 429 1042 l 525 836 z "},"ó":{"ha":774,"x_min":39,"x_max":721,"o":"m 50 370 q 113 566 61 477 q 246 702 165 654 q 427 747 328 750 q 589 697 521 746 q 689 564 658 648 q 711 375 721 479 q 648 169 701 258 q 514 32 595 79 q 332 -14 432 -16 q 171 36 239 -12 q 71 169 102 85 q 47 355 39 254 l 50 370 m 208 277 q 245 162 211 205 q 340 117 279 119 q 479 181 423 115 q 549 361 535 247 l 553 427 q 519 564 553 514 q 418 616 484 613 q 256 515 315 618 q 210 370 220 452 q 208 277 205 313 m 521 1042 l 714 1042 l 500 836 l 360 836 l 521 1042 z "},"ô":{"ha":774,"x_min":39,"x_max":721,"o":"m 50 370 q 113 566 61 477 q 246 702 165 654 q 427 747 328 750 q 589 697 521 746 q 689 564 658 648 q 711 375 721 479 q 648 169 701 258 q 514 32 595 79 q 332 -14 432 -16 q 171 36 239 -12 q 71 169 102 85 q 47 355 39 254 l 50 370 m 208 277 q 245 162 211 205 q 340 117 279 119 q 479 181 423 115 q 549 361 535 247 l 553 427 q 519 564 553 514 q 418 616 484 613 q 256 515 315 618 q 210 370 220 452 q 208 277 205 313 m 677 856 l 677 844 l 551 846 l 472 951 l 355 847 l 224 844 l 223 857 l 427 1042 l 519 1042 l 677 856 z "},"õ":{"ha":774,"x_min":39,"x_max":721,"o":"m 50 370 q 113 566 61 477 q 246 702 165 654 q 427 747 328 750 q 589 697 521 746 q 689 564 658 648 q 711 375 721 479 q 648 169 701 258 q 514 32 595 79 q 332 -14 432 -16 q 171 36 239 -12 q 71 169 102 85 q 47 355 39 254 l 50 370 m 208 277 q 245 162 211 205 q 340 117 279 119 q 479 181 423 115 q 549 361 535 247 l 553 427 q 519 564 553 514 q 418 616 484 613 q 256 515 315 618 q 210 370 220 452 q 208 277 205 313 m 715 1027 q 663 899 707 946 q 555 851 619 851 q 524 856 539 851 q 472 881 509 861 q 418 908 436 902 q 381 914 401 915 q 309 844 328 912 l 208 849 q 259 978 215 926 q 368 1027 303 1029 q 452 997 401 1027 q 526 964 503 966 l 543 963 q 616 1034 597 965 l 715 1027 z "},"ö":{"ha":774,"x_min":39,"x_max":721,"o":"m 50 370 q 113 566 61 477 q 246 702 165 654 q 427 747 328 750 q 589 697 521 746 q 689 564 658 648 q 711 375 721 479 q 648 169 701 258 q 514 32 595 79 q 332 -14 432 -16 q 171 36 239 -12 q 71 169 102 85 q 47 355 39 254 l 50 370 m 208 277 q 245 162 211 205 q 340 117 279 119 q 479 181 423 115 q 549 361 535 247 l 553 427 q 519 564 553 514 q 418 616 484 613 q 256 515 315 618 q 210 370 220 452 q 208 277 205 313 m 310 1007 q 370 984 347 1007 q 394 928 394 962 q 370 870 394 894 q 311 846 347 847 q 250 869 273 846 q 227 924 227 892 q 250 981 227 957 q 310 1007 273 1006 m 528 924 q 552 982 528 960 q 610 1006 576 1005 q 671 983 648 1006 q 694 928 694 960 q 671 870 694 893 q 611 845 647 846 q 550 868 573 845 q 528 924 528 890 z "},"ù":{"ha":755,"x_min":50,"x_max":728,"o":"m 465 73 q 256 -14 381 -16 q 137 22 184 -12 q 70 116 90 56 q 58 259 50 177 l 138 734 l 298 734 l 218 257 q 218 208 216 232 q 302 121 224 124 q 475 206 409 117 l 567 734 l 728 734 l 601 0 l 450 0 l 465 73 m 528 836 l 406 836 l 260 1042 l 432 1042 l 528 836 z "},"ú":{"ha":755,"x_min":50,"x_max":728,"o":"m 465 73 q 256 -14 381 -16 q 137 22 184 -12 q 70 116 90 56 q 58 259 50 177 l 138 734 l 298 734 l 218 257 q 218 208 216 232 q 302 121 224 124 q 475 206 409 117 l 567 734 l 728 734 l 601 0 l 450 0 l 465 73 m 524 1042 l 718 1042 l 503 836 l 363 836 l 524 1042 z "},"û":{"ha":755,"x_min":50,"x_max":728,"o":"m 465 73 q 256 -14 381 -16 q 137 22 184 -12 q 70 116 90 56 q 58 259 50 177 l 138 734 l 298 734 l 218 257 q 218 208 216 232 q 302 121 224 124 q 475 206 409 117 l 567 734 l 728 734 l 601 0 l 450 0 l 465 73 m 680 856 l 680 844 l 555 846 l 475 951 l 358 847 l 227 844 l 227 857 l 431 1042 l 523 1042 l 680 856 z "},"ü":{"ha":755,"x_min":50,"x_max":728,"o":"m 465 73 q 256 -14 381 -16 q 137 22 184 -12 q 70 116 90 56 q 58 259 50 177 l 138 734 l 298 734 l 218 257 q 218 208 216 232 q 302 121 224 124 q 475 206 409 117 l 567 734 l 728 734 l 601 0 l 450 0 l 465 73 m 313 1007 q 374 984 350 1007 q 397 928 397 962 q 374 870 397 894 q 314 846 350 847 q 253 869 276 846 q 230 924 230 892 q 253 981 230 957 q 313 1007 276 1006 m 531 924 q 555 982 531 960 q 614 1006 579 1005 q 675 983 652 1006 q 698 928 698 960 q 674 870 698 893 q 614 845 650 846 q 554 868 576 845 q 531 924 531 890 z "},"ý":{"ha":663,"x_min":-51,"x_max":707,"o":"m 298 237 l 529 734 l 707 734 l 272 -127 q 33 -298 181 -300 q -51 -285 -4 -297 l -37 -157 l -8 -160 q 88 -138 50 -162 q 152 -63 126 -114 l 191 13 l 68 734 l 235 734 l 298 237 m 488 1042 l 681 1042 l 467 836 l 327 836 l 488 1042 z "},"ÿ":{"ha":663,"x_min":-51,"x_max":707,"o":"m 298 237 l 529 734 l 707 734 l 272 -127 q 33 -298 181 -300 q -51 -285 -4 -297 l -37 -157 l -8 -160 q 88 -138 50 -162 q 152 -63 126 -114 l 191 13 l 68 734 l 235 734 l 298 237 m 277 1007 q 337 984 313 1007 q 361 928 361 962 q 337 870 361 894 q 277 846 313 847 q 216 869 239 846 q 193 924 193 892 q 216 981 193 957 q 277 1007 239 1006 m 494 924 q 518 982 494 960 q 577 1006 543 1005 q 638 983 615 1006 q 661 928 661 960 q 637 870 661 893 q 578 845 614 846 q 517 868 540 845 q 494 924 494 890 z "},"Ā":{"ha":903,"x_min":-62,"x_max":814,"o":"m 606 230 l 236 230 l 118 0 l -62 0 l 471 987 l 621 987 l 812 0 l 644 0 l 606 230 m 307 368 l 583 368 l 516 777 l 307 368 m 798 1089 l 344 1089 l 361 1196 l 814 1196 l 798 1089 z "},"ā":{"ha":736,"x_min":23,"x_max":701,"o":"m 447 0 q 440 68 439 27 q 244 -14 349 -16 q 86 48 149 -12 q 27 200 23 108 q 127 382 33 316 q 382 449 222 449 l 487 448 l 496 498 q 496 547 500 524 q 399 623 483 621 q 309 596 348 624 q 261 523 270 569 l 100 522 q 149 641 105 589 q 264 720 192 692 q 416 747 336 749 q 603 675 536 745 q 659 495 670 606 l 602 151 l 597 90 q 607 12 595 50 l 606 0 l 447 0 m 281 118 q 376 141 332 117 q 450 205 419 166 l 475 345 l 398 345 q 253 311 307 345 q 191 217 199 277 q 211 145 186 172 q 281 118 237 119 m 684 879 l 230 879 l 248 986 l 701 986 l 684 879 z "},"Ă":{"ha":903,"x_min":-62,"x_max":812,"o":"m 606 230 l 236 230 l 118 0 l -62 0 l 471 987 l 621 987 l 812 0 l 644 0 l 606 230 m 307 368 l 583 368 l 516 777 l 307 368 m 800 1235 q 730 1093 793 1145 q 576 1043 667 1040 q 432 1096 486 1044 q 378 1235 378 1148 l 498 1234 q 576 1139 494 1139 q 647 1166 621 1139 q 681 1234 673 1192 l 800 1235 z "},"ă":{"ha":736,"x_min":23,"x_max":686,"o":"m 447 0 q 440 68 439 27 q 244 -14 349 -16 q 86 48 149 -12 q 27 200 23 108 q 127 382 33 316 q 382 449 222 449 l 487 448 l 496 498 q 496 547 500 524 q 399 623 483 621 q 309 596 348 624 q 261 523 270 569 l 100 522 q 149 641 105 589 q 264 720 192 692 q 416 747 336 749 q 603 675 536 745 q 659 495 670 606 l 602 151 l 597 90 q 607 12 595 50 l 606 0 l 447 0 m 281 118 q 376 141 332 117 q 450 205 419 166 l 475 345 l 398 345 q 253 311 307 345 q 191 217 199 277 q 211 145 186 172 q 281 118 237 119 m 686 1025 q 616 882 680 935 q 462 833 553 830 q 318 886 372 834 q 264 1025 264 938 l 384 1024 q 462 929 380 929 q 533 956 507 929 q 567 1023 559 982 l 686 1025 z "},"Ą":{"ha":903,"x_min":-62,"x_max":812,"o":"m 771 0 l 774 -2 l 743 -23 q 649 -140 654 -81 q 684 -180 646 -178 q 743 -165 702 -181 l 751 -263 q 647 -291 705 -292 q 552 -254 588 -291 q 518 -160 517 -217 q 642 12 520 -59 l 606 230 l 236 230 l 118 0 l -62 0 l 471 987 l 621 987 l 812 0 l 771 0 m 307 368 l 583 368 l 516 777 l 307 368 z "},"ą":{"ha":736,"x_min":23,"x_max":670,"o":"m 571 0 l 574 -2 l 543 -23 q 449 -140 454 -81 q 484 -180 446 -178 q 543 -165 502 -181 l 551 -263 q 447 -291 505 -292 q 352 -254 388 -291 q 318 -160 317 -217 q 443 13 320 -58 l 440 41 l 440 68 q 244 -14 349 -16 q 86 48 149 -12 q 27 200 23 108 q 127 382 33 316 q 382 449 222 449 l 487 448 l 496 498 q 496 547 500 524 q 399 623 483 621 q 309 596 348 624 q 261 523 270 569 l 100 522 q 149 641 105 589 q 264 720 192 692 q 416 747 336 749 q 603 675 536 745 q 659 495 670 606 l 602 151 l 597 90 q 607 12 595 50 l 606 0 l 571 0 m 281 118 q 376 141 332 117 q 450 205 419 166 l 475 345 l 398 345 q 253 311 307 345 q 191 217 199 277 q 211 145 186 172 q 281 118 237 119 z "},"Ć":{"ha":886,"x_min":68,"x_max":877,"o":"m 810 322 q 671 76 785 168 q 393 -14 557 -16 q 228 31 299 -12 q 117 156 157 74 q 73 340 77 237 q 92 551 68 418 q 180 790 115 684 q 341 949 245 896 q 553 1001 436 1003 q 786 908 700 998 q 877 661 871 819 l 711 661 q 666 813 707 766 q 545 863 625 861 q 359 783 434 866 q 259 543 285 701 l 245 452 l 239 383 q 249 252 234 313 q 303 158 264 191 q 401 124 342 126 q 644 321 591 117 l 810 322 m 638 1266 l 831 1266 l 617 1061 l 477 1061 l 638 1266 z "},"ć":{"ha":712,"x_min":38,"x_max":686,"o":"m 331 117 q 433 151 389 116 q 490 242 477 186 l 642 243 q 589 111 634 170 q 473 18 544 51 q 326 -14 403 -16 q 165 35 232 -12 q 68 166 99 83 q 48 353 38 250 l 50 377 q 112 570 62 484 q 243 703 163 656 q 420 747 323 750 q 611 668 540 745 q 682 470 682 592 l 532 470 q 501 573 532 533 q 412 616 470 613 q 263 536 317 618 q 205 302 209 453 q 331 117 200 120 m 492 1042 l 686 1042 l 471 836 l 332 836 l 492 1042 z "},"Ĉ":{"ha":886,"x_min":68,"x_max":877,"o":"m 810 322 q 671 76 785 168 q 393 -14 557 -16 q 228 31 299 -12 q 117 156 157 74 q 73 340 77 237 q 92 551 68 418 q 180 790 115 684 q 341 949 245 896 q 553 1001 436 1003 q 786 908 700 998 q 877 661 871 819 l 711 661 q 666 813 707 766 q 545 863 625 861 q 359 783 434 866 q 259 543 285 701 l 245 452 l 239 383 q 249 252 234 313 q 303 158 264 191 q 401 124 342 126 q 644 321 591 117 l 810 322 m 794 1080 l 794 1069 l 669 1071 l 589 1176 l 472 1072 l 341 1069 l 340 1081 l 545 1267 l 637 1267 l 794 1080 z "},"ĉ":{"ha":712,"x_min":38,"x_max":682,"o":"m 331 117 q 433 151 389 116 q 490 242 477 186 l 642 243 q 589 111 634 170 q 473 18 544 51 q 326 -14 403 -16 q 165 35 232 -12 q 68 166 99 83 q 48 353 38 250 l 50 377 q 112 570 62 484 q 243 703 163 656 q 420 747 323 750 q 611 668 540 745 q 682 470 682 592 l 532 470 q 501 573 532 533 q 412 616 470 613 q 263 536 317 618 q 205 302 209 453 q 331 117 200 120 m 648 856 l 648 844 l 523 846 l 444 951 l 326 847 l 195 844 l 195 857 l 399 1042 l 491 1042 l 648 856 z "},"Ċ":{"ha":886,"x_min":68,"x_max":877,"o":"m 810 322 q 671 76 785 168 q 393 -14 557 -16 q 228 31 299 -12 q 117 156 157 74 q 73 340 77 237 q 92 551 68 418 q 180 790 115 684 q 341 949 245 896 q 553 1001 436 1003 q 786 908 700 998 q 877 661 871 819 l 711 661 q 666 813 707 766 q 545 863 625 861 q 359 783 434 866 q 259 543 285 701 l 245 452 l 239 383 q 249 252 234 313 q 303 158 264 191 q 401 124 342 126 q 644 321 591 117 l 810 322 m 493 1156 q 517 1218 493 1194 q 578 1244 541 1242 q 641 1222 616 1245 q 666 1162 666 1198 q 642 1100 666 1123 q 581 1076 618 1077 q 518 1098 544 1074 q 493 1156 493 1121 z "},"ċ":{"ha":712,"x_min":38,"x_max":682,"o":"m 331 117 q 433 151 389 116 q 490 242 477 186 l 642 243 q 589 111 634 170 q 473 18 544 51 q 326 -14 403 -16 q 165 35 232 -12 q 68 166 99 83 q 48 353 38 250 l 50 377 q 112 570 62 484 q 243 703 163 656 q 420 747 323 750 q 611 668 540 745 q 682 470 682 592 l 532 470 q 501 573 532 533 q 412 616 470 613 q 263 536 317 618 q 205 302 209 453 q 331 117 200 120 m 347 932 q 371 994 347 970 q 433 1019 395 1018 q 495 997 470 1021 q 520 937 520 974 q 496 876 520 899 q 435 851 472 852 q 373 873 398 850 q 347 932 347 897 z "},"Č":{"ha":886,"x_min":68,"x_max":877,"o":"m 810 322 q 671 76 785 168 q 393 -14 557 -16 q 228 31 299 -12 q 117 156 157 74 q 73 340 77 237 q 92 551 68 418 q 180 790 115 684 q 341 949 245 896 q 553 1001 436 1003 q 786 908 700 998 q 877 661 871 819 l 711 661 q 666 813 707 766 q 545 863 625 861 q 359 783 434 866 q 259 543 285 701 l 245 452 l 239 383 q 249 252 234 313 q 303 158 264 191 q 401 124 342 126 q 644 321 591 117 l 810 322 m 573 1162 l 688 1266 l 829 1269 l 829 1258 l 621 1071 l 522 1071 l 363 1259 l 363 1270 l 496 1267 l 573 1162 z "},"č":{"ha":712,"x_min":38,"x_max":684,"o":"m 331 117 q 433 151 389 116 q 490 242 477 186 l 642 243 q 589 111 634 170 q 473 18 544 51 q 326 -14 403 -16 q 165 35 232 -12 q 68 166 99 83 q 48 353 38 250 l 50 377 q 112 570 62 484 q 243 703 163 656 q 420 747 323 750 q 611 668 540 745 q 682 470 682 592 l 532 470 q 501 573 532 533 q 412 616 470 613 q 263 536 317 618 q 205 302 209 453 q 331 117 200 120 m 427 938 l 542 1042 l 684 1044 l 684 1034 l 475 846 l 376 846 l 218 1034 l 218 1045 l 351 1042 l 427 938 z "},"Ď":{"ha":887,"x_min":26,"x_max":846,"o":"m 26 0 l 197 987 l 465 987 q 677 925 588 987 q 806 756 766 864 q 831 517 846 648 l 823 464 q 733 222 803 328 q 554 58 664 117 q 313 0 444 0 l 26 0 m 341 849 l 218 137 l 317 136 q 539 221 451 136 q 653 456 628 307 q 666 636 671 559 q 609 790 660 734 q 467 848 557 846 l 341 849 m 497 1153 l 612 1257 l 753 1259 l 753 1249 l 545 1061 l 446 1061 l 288 1249 l 288 1260 l 420 1257 l 497 1153 z "},"ď":{"ha":869,"x_min":40,"x_max":1013,"o":"m 46 368 q 107 571 60 481 q 224 706 155 661 q 380 748 294 750 q 555 665 492 745 l 625 1042 l 787 1042 l 606 0 l 462 0 l 473 76 q 272 -14 387 -17 q 108 65 170 -13 q 42 271 47 142 q 44 353 40 313 l 46 368 m 202 304 q 228 171 197 220 q 320 120 259 121 q 481 210 413 117 l 536 526 q 412 613 504 610 q 264 532 320 616 q 202 304 208 448 m 874 762 l 791 815 q 869 987 855 905 l 880 1043 l 1013 1043 l 1004 985 q 874 762 979 851 z "},"Ē":{"ha":768,"x_min":26,"x_max":821,"o":"m 664 441 l 271 441 l 218 137 l 677 137 l 654 0 l 26 0 l 197 987 l 821 987 l 796 849 l 341 849 l 294 576 l 688 576 l 664 441 m 760 1094 l 306 1094 l 323 1201 l 777 1201 l 760 1094 z "},"ē":{"ha":730,"x_min":40,"x_max":696,"o":"m 343 -14 q 177 35 248 -12 q 74 161 107 81 q 48 339 40 241 l 50 367 q 116 568 62 479 q 248 703 169 657 q 420 747 328 749 q 627 645 558 745 q 679 385 696 545 l 669 315 l 208 315 q 243 174 201 227 q 357 119 284 120 q 548 209 460 115 l 629 123 q 508 21 583 58 q 343 -14 433 -15 m 412 616 q 220 435 284 620 l 525 435 l 528 449 q 528 510 532 480 q 490 586 521 558 q 412 616 460 614 m 668 879 l 214 879 l 232 986 l 685 986 l 668 879 z "},"Ĕ":{"ha":768,"x_min":26,"x_max":821,"o":"m 664 441 l 271 441 l 218 137 l 677 137 l 654 0 l 26 0 l 197 987 l 821 987 l 796 849 l 341 849 l 294 576 l 688 576 l 664 441 m 762 1240 q 692 1097 755 1149 q 538 1048 629 1045 q 394 1101 448 1049 q 340 1240 340 1153 l 460 1239 q 538 1144 456 1144 q 609 1171 583 1144 q 643 1238 635 1197 l 762 1240 z "},"ĕ":{"ha":730,"x_min":40,"x_max":696,"o":"m 343 -14 q 177 35 248 -12 q 74 161 107 81 q 48 339 40 241 l 50 367 q 116 568 62 479 q 248 703 169 657 q 420 747 328 749 q 627 645 558 745 q 679 385 696 545 l 669 315 l 208 315 q 243 174 201 227 q 357 119 284 120 q 548 209 460 115 l 629 123 q 508 21 583 58 q 343 -14 433 -15 m 412 616 q 220 435 284 620 l 525 435 l 528 449 q 528 510 532 480 q 490 586 521 558 q 412 616 460 614 m 671 1025 q 601 882 664 935 q 446 833 538 830 q 303 886 357 834 q 249 1025 249 938 l 368 1024 q 446 929 365 929 q 517 956 492 929 q 551 1023 543 982 l 671 1025 z "},"Ė":{"ha":768,"x_min":26,"x_max":821,"o":"m 664 441 l 271 441 l 218 137 l 677 137 l 654 0 l 26 0 l 197 987 l 821 987 l 796 849 l 341 849 l 294 576 l 688 576 l 664 441 m 454 1147 q 478 1209 454 1185 q 539 1234 502 1233 q 602 1212 576 1236 q 627 1152 627 1189 q 603 1090 627 1114 q 541 1066 578 1067 q 479 1088 505 1065 q 454 1147 454 1112 z "},"ė":{"ha":730,"x_min":40,"x_max":696,"o":"m 343 -14 q 177 35 248 -12 q 74 161 107 81 q 48 339 40 241 l 50 367 q 116 568 62 479 q 248 703 169 657 q 420 747 328 749 q 627 645 558 745 q 679 385 696 545 l 669 315 l 208 315 q 243 174 201 227 q 357 119 284 120 q 548 209 460 115 l 629 123 q 508 21 583 58 q 343 -14 433 -15 m 412 616 q 220 435 284 620 l 525 435 l 528 449 q 528 510 532 480 q 490 586 521 558 q 412 616 460 614 m 362 932 q 386 994 362 970 q 448 1019 410 1018 q 510 997 485 1021 q 535 937 535 974 q 511 876 535 899 q 450 851 487 852 q 388 873 413 850 q 362 932 362 897 z "},"Ę":{"ha":768,"x_min":26,"x_max":821,"o":"m 664 441 l 271 441 l 218 137 l 677 137 l 654 0 l 577 0 l 581 -2 l 549 -23 q 455 -140 460 -81 q 490 -180 452 -178 q 549 -165 508 -181 l 557 -263 q 453 -291 511 -292 q 358 -254 394 -291 q 324 -160 323 -217 q 428 0 326 -65 l 26 0 l 197 987 l 821 987 l 796 849 l 341 849 l 294 576 l 688 576 l 664 441 z "},"ę":{"ha":730,"x_min":41,"x_max":700,"o":"m 633 123 q 480 8 576 42 l 447 -14 q 368 -121 373 -66 q 402 -162 364 -160 q 462 -147 420 -163 l 470 -245 q 366 -273 423 -274 q 271 -236 307 -273 q 237 -142 235 -199 q 303 -10 238 -68 q 110 103 179 7 q 52 339 41 199 l 54 367 q 120 568 66 479 q 252 703 173 657 q 425 747 332 749 q 631 645 562 745 q 683 385 700 545 l 673 315 l 212 315 q 247 174 205 227 q 361 119 288 120 q 552 209 465 115 l 633 123 m 416 616 q 224 435 288 620 l 529 435 l 532 449 q 532 510 536 480 q 494 586 525 558 q 416 616 464 614 z "},"Ě":{"ha":768,"x_min":26,"x_max":821,"o":"m 664 441 l 271 441 l 218 137 l 677 137 l 654 0 l 26 0 l 197 987 l 821 987 l 796 849 l 341 849 l 294 576 l 688 576 l 664 441 m 534 1153 l 648 1257 l 790 1259 l 790 1249 l 581 1061 l 482 1061 l 324 1249 l 324 1260 l 457 1257 l 534 1153 z "},"ě":{"ha":730,"x_min":40,"x_max":699,"o":"m 343 -14 q 177 35 248 -12 q 74 161 107 81 q 48 339 40 241 l 50 367 q 116 568 62 479 q 248 703 169 657 q 420 747 328 749 q 627 645 558 745 q 679 385 696 545 l 669 315 l 208 315 q 243 174 201 227 q 357 119 284 120 q 548 209 460 115 l 629 123 q 508 21 583 58 q 343 -14 433 -15 m 412 616 q 220 435 284 620 l 525 435 l 528 449 q 528 510 532 480 q 490 586 521 558 q 412 616 460 614 m 442 938 l 557 1042 l 699 1044 l 699 1034 l 490 846 l 391 846 l 233 1034 l 233 1045 l 366 1042 l 442 938 z "},"Ĝ":{"ha":924,"x_min":73,"x_max":883,"o":"m 792 128 q 639 21 738 58 q 418 -14 540 -15 q 245 30 320 -13 q 127 156 171 73 q 77 343 83 238 q 94 551 73 425 q 172 775 116 677 q 308 928 228 873 q 556 1001 416 1004 q 788 916 705 998 q 883 684 872 833 l 721 684 q 552 863 706 859 q 362 782 437 867 q 261 538 288 698 q 244 387 245 446 q 289 195 240 265 q 430 124 337 125 q 625 183 549 121 l 662 376 l 464 376 l 487 507 l 850 507 l 792 128 m 792 1080 l 792 1069 l 667 1071 l 587 1176 l 470 1072 l 339 1069 l 338 1081 l 543 1267 l 635 1267 l 792 1080 z "},"ĝ":{"ha":770,"x_min":-6,"x_max":739,"o":"m 47 368 q 107 566 60 477 q 224 702 153 655 q 385 748 294 749 q 568 659 506 745 l 593 734 l 739 734 l 618 20 q 497 -209 597 -123 q 252 -290 396 -294 q 105 -254 174 -288 q -6 -165 36 -220 l 79 -68 q 248 -159 144 -157 q 383 -116 326 -162 q 458 14 439 -71 l 470 66 q 277 -14 385 -16 q 112 64 174 -12 q 44 271 50 141 q 47 368 42 311 m 207 353 q 204 279 203 319 q 237 165 205 207 q 326 121 268 123 q 486 205 417 117 l 543 530 q 418 613 508 610 q 281 550 336 615 q 208 368 225 485 l 207 353 m 671 856 l 671 844 l 545 846 l 466 951 l 349 847 l 218 844 l 217 857 l 421 1042 l 513 1042 l 671 856 z "},"Ğ":{"ha":924,"x_min":73,"x_max":883,"o":"m 792 128 q 639 21 738 58 q 418 -14 540 -15 q 245 30 320 -13 q 127 156 171 73 q 77 343 83 238 q 94 551 73 425 q 172 775 116 677 q 308 928 228 873 q 556 1001 416 1004 q 788 916 705 998 q 883 684 872 833 l 721 684 q 552 863 706 859 q 362 782 437 867 q 261 538 288 698 q 244 387 245 446 q 289 195 240 265 q 430 124 337 125 q 625 183 549 121 l 662 376 l 464 376 l 487 507 l 850 507 l 792 128 m 800 1249 q 730 1107 793 1159 q 575 1057 667 1055 q 432 1111 486 1059 q 378 1249 378 1162 l 497 1249 q 575 1154 494 1154 q 646 1180 621 1154 q 680 1248 672 1206 l 800 1249 z "},"ğ":{"ha":770,"x_min":-6,"x_max":739,"o":"m 47 368 q 107 566 60 477 q 224 702 153 655 q 385 748 294 749 q 568 659 506 745 l 593 734 l 739 734 l 618 20 q 497 -209 597 -123 q 252 -290 396 -294 q 105 -254 174 -288 q -6 -165 36 -220 l 79 -68 q 248 -159 144 -157 q 383 -116 326 -162 q 458 14 439 -71 l 470 66 q 277 -14 385 -16 q 112 64 174 -12 q 44 271 50 141 q 47 368 42 311 m 207 353 q 204 279 203 319 q 237 165 205 207 q 326 121 268 123 q 486 205 417 117 l 543 530 q 418 613 508 610 q 281 550 336 615 q 208 368 225 485 l 207 353 m 678 1025 q 608 882 671 935 q 454 833 545 830 q 310 886 364 834 q 256 1025 256 938 l 376 1024 q 454 929 372 929 q 525 956 499 929 q 559 1023 551 982 l 678 1025 z "},"Ġ":{"ha":924,"x_min":73,"x_max":883,"o":"m 792 128 q 639 21 738 58 q 418 -14 540 -15 q 245 30 320 -13 q 127 156 171 73 q 77 343 83 238 q 94 551 73 425 q 172 775 116 677 q 308 928 228 873 q 556 1001 416 1004 q 788 916 705 998 q 883 684 872 833 l 721 684 q 552 863 706 859 q 362 782 437 867 q 261 538 288 698 q 244 387 245 446 q 289 195 240 265 q 430 124 337 125 q 625 183 549 121 l 662 376 l 464 376 l 487 507 l 850 507 l 792 128 m 491 1156 q 515 1218 491 1194 q 576 1244 539 1242 q 639 1222 614 1245 q 664 1162 664 1198 q 640 1100 664 1123 q 578 1076 616 1077 q 516 1098 542 1074 q 491 1156 491 1121 z "},"ġ":{"ha":770,"x_min":-6,"x_max":739,"o":"m 47 368 q 107 566 60 477 q 224 702 153 655 q 385 748 294 749 q 568 659 506 745 l 593 734 l 739 734 l 618 20 q 497 -209 597 -123 q 252 -290 396 -294 q 105 -254 174 -288 q -6 -165 36 -220 l 79 -68 q 248 -159 144 -157 q 383 -116 326 -162 q 458 14 439 -71 l 470 66 q 277 -14 385 -16 q 112 64 174 -12 q 44 271 50 141 q 47 368 42 311 m 207 353 q 204 279 203 319 q 237 165 205 207 q 326 121 268 123 q 486 205 417 117 l 543 530 q 418 613 508 610 q 281 550 336 615 q 208 368 225 485 l 207 353 m 370 932 q 394 994 370 970 q 455 1019 418 1018 q 517 997 492 1021 q 543 937 543 974 q 518 876 543 899 q 457 851 494 852 q 395 873 420 850 q 370 932 370 897 z "},"Ģ":{"ha":924,"x_min":73,"x_max":883,"o":"m 792 128 q 639 21 738 58 q 418 -14 540 -15 q 245 30 320 -13 q 127 156 171 73 q 77 343 83 238 q 94 551 73 425 q 172 775 116 677 q 308 928 228 873 q 556 1001 416 1004 q 788 916 705 998 q 883 684 872 833 l 721 684 q 552 863 706 859 q 362 782 437 867 q 261 538 288 698 q 244 387 245 446 q 289 195 240 265 q 430 124 337 125 q 625 183 549 121 l 662 376 l 464 376 l 487 507 l 850 507 l 792 128 m 324 -356 l 241 -302 q 319 -131 305 -212 l 330 -75 l 463 -75 l 454 -133 q 324 -356 429 -267 z "},"ģ":{"ha":770,"x_min":-6,"x_max":739,"o":"m 47 368 q 107 566 60 477 q 224 702 153 655 q 385 748 294 749 q 568 659 506 745 l 593 734 l 739 734 l 618 20 q 497 -209 597 -123 q 252 -290 396 -294 q 105 -254 174 -288 q -6 -165 36 -220 l 79 -68 q 248 -159 144 -157 q 383 -116 326 -162 q 458 14 439 -71 l 470 66 q 277 -14 385 -16 q 112 64 174 -12 q 44 271 50 141 q 47 368 42 311 m 207 353 q 204 279 203 319 q 237 165 205 207 q 326 121 268 123 q 486 205 417 117 l 543 530 q 418 613 508 610 q 281 550 336 615 q 208 368 225 485 l 207 353 m 505 1158 l 593 1099 q 523 934 538 1014 l 508 851 l 368 851 l 380 932 q 505 1158 401 1078 z "},"Ĥ":{"ha":964,"x_min":26,"x_max":960,"o":"m 788 0 l 621 0 l 697 439 l 270 439 l 194 0 l 26 0 l 198 987 l 366 987 l 294 576 l 721 576 l 792 987 l 960 987 l 788 0 m 814 1071 l 814 1059 l 689 1061 l 610 1166 l 492 1062 l 361 1059 l 361 1072 l 565 1257 l 657 1257 l 814 1071 z "},"ĥ":{"ha":755,"x_min":9,"x_max":690,"o":"m 276 653 q 484 747 368 749 q 639 673 589 745 q 677 472 690 600 l 598 0 l 437 0 l 517 474 q 519 528 521 503 q 421 613 510 611 q 261 525 332 614 l 170 0 l 9 0 l 189 1042 l 351 1042 l 276 653 m 684 1093 l 684 1081 l 559 1083 l 479 1188 l 362 1084 l 231 1081 l 231 1093 l 435 1279 l 527 1279 l 684 1093 z "},"Ĩ":{"ha":387,"x_min":36,"x_max":571,"o":"m 203 0 l 36 0 l 208 987 l 374 987 l 203 0 m 571 1242 q 519 1114 563 1161 q 412 1066 475 1066 q 380 1071 395 1066 q 329 1096 365 1076 q 275 1123 292 1117 q 237 1129 257 1130 q 165 1059 184 1127 l 64 1064 q 115 1193 71 1141 q 224 1242 159 1244 q 308 1212 257 1242 q 382 1179 359 1181 l 399 1178 q 473 1249 454 1180 l 571 1242 z "},"ĩ":{"ha":361,"x_min":14,"x_max":520,"o":"m 184 0 l 23 0 l 151 734 l 311 734 l 184 0 m 520 1022 q 468 894 512 941 q 361 846 425 846 q 329 851 345 846 q 278 877 314 856 q 224 904 241 897 q 186 909 206 910 q 115 839 133 907 l 14 844 q 64 973 20 922 q 174 1023 109 1024 q 257 992 206 1022 q 331 959 308 962 l 348 958 q 422 1029 403 960 l 520 1022 z "},"Ī":{"ha":387,"x_min":36,"x_max":555,"o":"m 203 0 l 36 0 l 208 987 l 374 987 l 203 0 m 538 1094 l 84 1094 l 102 1201 l 555 1201 l 538 1094 z "},"ī":{"ha":361,"x_min":23,"x_max":504,"o":"m 184 0 l 23 0 l 151 734 l 311 734 l 184 0 m 487 874 l 33 874 l 51 981 l 504 981 l 487 874 z "},"Ĭ":{"ha":387,"x_min":36,"x_max":541,"o":"m 203 0 l 36 0 l 208 987 l 374 987 l 203 0 m 541 1240 q 471 1097 534 1149 q 316 1048 408 1045 q 173 1101 227 1049 q 119 1240 119 1153 l 238 1239 q 316 1144 235 1144 q 387 1171 361 1144 q 421 1238 413 1197 l 541 1240 z "},"ĭ":{"ha":361,"x_min":23,"x_max":490,"o":"m 184 0 l 23 0 l 151 734 l 311 734 l 184 0 m 490 1020 q 420 878 483 930 q 265 828 357 825 q 122 881 176 829 q 68 1020 68 933 l 187 1019 q 265 924 184 924 q 336 951 311 924 q 370 1019 362 977 l 490 1020 z "},"Į":{"ha":387,"x_min":-77,"x_max":374,"o":"m 203 0 l 36 0 l 208 987 l 374 987 l 203 0 m 180 2 l 149 -19 q 55 -136 60 -77 q 90 -176 52 -174 q 149 -161 108 -177 l 157 -259 q 53 -287 111 -288 q -42 -250 -6 -287 q -76 -156 -77 -213 q 105 45 -74 -35 l 180 2 z "},"į":{"ha":351,"x_min":-94,"x_max":353,"o":"m 182 0 l 21 0 l 149 734 l 309 734 l 182 0 m 172 922 q 196 985 172 959 q 262 1013 220 1012 q 327 989 301 1015 q 353 927 353 964 q 328 863 353 888 q 263 837 302 838 q 198 860 224 836 q 172 922 172 885 m 164 -2 l 132 -23 q 39 -140 43 -81 q 73 -180 35 -178 q 133 -165 92 -181 l 141 -263 q 37 -291 94 -292 q -58 -254 -22 -291 q -92 -160 -94 -217 q 89 41 -90 -39 l 164 -2 z "},"İ":{"ha":387,"x_min":36,"x_max":404,"o":"m 203 0 l 36 0 l 208 987 l 374 987 l 203 0 m 231 1147 q 255 1209 231 1185 q 317 1234 279 1233 q 379 1212 354 1236 q 404 1152 404 1189 q 380 1090 404 1114 q 319 1066 356 1067 q 257 1088 282 1065 q 231 1147 231 1112 z "},"Ĳ":{"ha":1142,"x_min":36,"x_max":1147,"o":"m 203 0 l 36 0 l 208 987 l 374 987 l 203 0 m 981 987 l 1147 987 l 1029 295 q 912 67 1008 151 q 673 -14 815 -17 q 462 68 535 -12 q 396 282 389 147 l 563 281 q 684 123 553 126 q 800 166 751 121 q 863 294 848 212 l 981 987 z "},"ĳ":{"ha":695,"x_min":21,"x_max":696,"o":"m 182 0 l 21 0 l 149 734 l 309 734 l 182 0 m 172 922 q 196 985 172 959 q 262 1013 220 1012 q 327 989 301 1015 q 353 927 353 964 q 328 863 353 888 q 263 837 302 838 q 198 860 224 836 q 172 922 172 885 m 656 734 l 522 -64 q 443 -239 507 -178 q 277 -298 379 -300 q 185 -286 233 -297 l 199 -155 q 256 -163 230 -163 q 359 -62 342 -163 l 496 734 l 656 734 m 515 922 q 540 986 515 961 q 605 1013 564 1012 q 670 990 644 1015 q 696 927 696 965 q 671 863 696 888 q 606 837 646 838 q 541 861 566 837 q 515 922 515 885 z "},"Ĵ":{"ha":755,"x_min":2,"x_max":901,"o":"m 593 987 l 760 987 l 642 295 q 525 67 621 151 q 286 -14 428 -17 q 75 68 148 -12 q 9 282 2 147 l 176 281 q 296 123 166 126 q 413 166 364 121 q 475 294 461 212 l 593 987 m 901 1066 l 901 1055 l 776 1057 l 696 1162 l 579 1057 l 448 1055 l 448 1067 l 652 1253 l 744 1253 l 901 1066 z "},"ĵ":{"ha":369,"x_min":-163,"x_max":482,"o":"m 323 734 l 191 -42 q 105 -232 174 -165 q -75 -298 36 -298 q -163 -287 -116 -298 l -142 -156 q -78 -167 -106 -167 q 31 -35 8 -167 l 162 734 l 323 734 m 482 833 l 482 821 l 357 823 l 277 928 l 160 824 l 29 821 l 28 833 l 233 1019 l 325 1019 l 482 833 z "},"Ķ":{"ha":856,"x_min":26,"x_max":945,"o":"m 382 425 l 246 301 l 194 0 l 26 0 l 198 987 l 366 987 l 286 534 l 390 642 l 730 987 l 945 987 l 505 542 l 783 0 l 595 0 l 382 425 m 288 -301 l 205 -248 q 283 -76 269 -157 l 294 -20 l 427 -20 l 418 -78 q 288 -301 393 -212 z "},"ķ":{"ha":710,"x_min":12,"x_max":745,"o":"m 303 313 l 212 233 l 172 0 l 12 0 l 192 1042 l 353 1042 l 250 450 l 306 509 l 539 734 l 745 734 l 419 420 l 633 0 l 459 0 l 303 313 m 212 -315 l 128 -262 q 207 -90 193 -172 l 217 -34 l 350 -34 l 341 -92 q 212 -315 317 -226 z "},"Ĺ":{"ha":736,"x_min":26,"x_max":653,"o":"m 218 137 l 653 137 l 629 0 l 26 0 l 198 987 l 366 987 l 218 137 m 368 1252 l 562 1252 l 347 1046 l 208 1046 l 368 1252 z "},"ĺ":{"ha":351,"x_min":21,"x_max":562,"o":"m 182 0 l 21 0 l 202 1042 l 363 1042 l 182 0 m 369 1314 l 562 1314 l 348 1108 l 208 1108 l 369 1314 z "},"Ļ":{"ha":736,"x_min":26,"x_max":653,"o":"m 218 137 l 653 137 l 629 0 l 26 0 l 198 987 l 366 987 l 218 137 m 249 -345 l 165 -292 q 244 -120 230 -201 l 254 -64 l 387 -64 l 378 -122 q 249 -345 354 -256 z "},"ļ":{"ha":351,"x_min":-64,"x_max":363,"o":"m 182 0 l 21 0 l 202 1042 l 363 1042 l 182 0 m 20 -345 l -64 -292 q 15 -120 1 -201 l 25 -64 l 158 -64 l 149 -122 q 20 -345 125 -256 z "},"Ľ":{"ha":736,"x_min":26,"x_max":672,"o":"m 218 137 l 653 137 l 629 0 l 26 0 l 198 987 l 366 987 l 218 137 m 534 707 l 450 760 q 529 932 515 850 l 539 988 l 672 988 l 663 930 q 534 707 639 796 z "},"ľ":{"ha":452,"x_min":21,"x_max":600,"o":"m 182 0 l 21 0 l 202 1042 l 363 1042 l 182 0 m 461 762 l 378 815 q 456 987 442 905 l 467 1043 l 600 1043 l 591 985 q 461 762 566 851 z "},"Ŀ":{"ha":736,"x_min":26,"x_max":653,"o":"m 218 137 l 653 137 l 629 0 l 26 0 l 198 987 l 366 987 l 218 137 m 411 549 q 435 611 411 587 q 496 636 459 635 q 559 614 534 637 q 584 554 584 591 q 560 492 584 515 q 498 468 536 469 q 436 490 462 467 q 411 549 411 513 z "},"ŀ":{"ha":500,"x_min":21,"x_max":512,"o":"m 182 0 l 21 0 l 202 1042 l 363 1042 l 182 0 m 339 524 q 363 586 339 562 q 425 611 387 610 q 487 589 462 612 q 512 529 512 566 q 488 467 512 490 q 427 443 464 444 q 365 465 390 441 q 339 524 339 488 z "},"Ń":{"ha":963,"x_min":26,"x_max":959,"o":"m 787 0 l 625 0 l 317 707 l 194 0 l 26 0 l 198 987 l 360 987 l 669 277 l 792 987 l 959 987 l 787 0 m 664 1252 l 857 1252 l 643 1046 l 503 1046 l 664 1252 z "},"ń":{"ha":756,"x_min":9,"x_max":720,"o":"m 287 734 l 271 648 q 488 747 365 750 q 641 674 591 745 q 677 474 690 602 l 598 0 l 437 0 l 517 476 q 518 530 521 505 q 422 613 509 611 q 261 523 330 614 l 170 0 l 9 0 l 136 734 l 287 734 m 527 1042 l 720 1042 l 506 836 l 366 836 l 527 1042 z "},"Ņ":{"ha":963,"x_min":26,"x_max":959,"o":"m 787 0 l 625 0 l 317 707 l 194 0 l 26 0 l 198 987 l 360 987 l 669 277 l 792 987 l 959 987 l 787 0 m 321 -348 l 238 -294 q 317 -123 302 -204 l 327 -66 l 460 -66 l 451 -125 q 321 -348 427 -258 z "},"ņ":{"ha":756,"x_min":9,"x_max":690,"o":"m 287 734 l 271 648 q 488 747 365 750 q 641 674 591 745 q 677 474 690 602 l 598 0 l 437 0 l 517 476 q 518 530 521 505 q 422 613 509 611 q 261 523 330 614 l 170 0 l 9 0 l 136 734 l 287 734 m 220 -345 l 136 -292 q 215 -120 201 -201 l 225 -64 l 358 -64 l 349 -122 q 220 -345 325 -256 z "},"Ň":{"ha":963,"x_min":26,"x_max":959,"o":"m 787 0 l 625 0 l 317 707 l 194 0 l 26 0 l 198 987 l 360 987 l 669 277 l 792 987 l 959 987 l 787 0 m 599 1148 l 713 1252 l 855 1255 l 855 1244 l 646 1057 l 547 1057 l 389 1244 l 389 1255 l 522 1253 l 599 1148 z "}}}
